<mxfile host="app.diagrams.net" modified="2023-12-06T12:47:29.337Z" agent="Mozilla/5.0 (Windows NT 10.0; Win64; x64) AppleWebKit/537.36 (KHTML, like Gecko) Chrome/119.0.0.0 Safari/537.36" etag="gVb-ZbEZldhMMwmVMNBA" version="21.2.9">
  <diagram id="FrHd8QILHjhErLJrh2mX" name="Page-1">
    <mxGraphModel dx="15167" dy="7920" grid="1" gridSize="10" guides="1" tooltips="1" connect="1" arrows="1" fold="1" page="1" pageScale="1" pageWidth="827" pageHeight="1169" math="0" shadow="0">
      <root>
        <mxCell id="0" />
        <mxCell id="1" parent="0" />
        <mxCell id="Apy_nMzA6MKSCh_NEfZ--84" value="" style="rounded=0;whiteSpace=wrap;html=1;fillColor=none;" vertex="1" parent="1">
          <mxGeometry x="130" y="10" width="360" height="570" as="geometry" />
        </mxCell>
        <mxCell id="Apy_nMzA6MKSCh_NEfZ--40" style="edgeStyle=orthogonalEdgeStyle;rounded=0;orthogonalLoop=1;jettySize=auto;html=1;" edge="1" parent="1" source="Apy_nMzA6MKSCh_NEfZ--32" target="Apy_nMzA6MKSCh_NEfZ--33">
          <mxGeometry relative="1" as="geometry" />
        </mxCell>
        <mxCell id="Apy_nMzA6MKSCh_NEfZ--33" value="" style="shape=image;verticalLabelPosition=bottom;labelBackgroundColor=default;verticalAlign=top;aspect=fixed;imageAspect=0;image=https://static.thenounproject.com/png/175577-200.png;" vertex="1" parent="1">
          <mxGeometry x="322" y="515" width="70" height="70" as="geometry" />
        </mxCell>
        <mxCell id="Apy_nMzA6MKSCh_NEfZ--41" value="&lt;i&gt;Communication via UART&lt;/i&gt;" style="text;html=1;strokeColor=none;fillColor=none;align=center;verticalAlign=middle;whiteSpace=wrap;rounded=0;" vertex="1" parent="1">
          <mxGeometry x="380" y="480" width="60" height="30" as="geometry" />
        </mxCell>
        <mxCell id="Apy_nMzA6MKSCh_NEfZ--42" value="" style="shape=image;verticalLabelPosition=bottom;labelBackgroundColor=default;verticalAlign=top;aspect=fixed;imageAspect=0;image=https://cdn-icons-png.flaticon.com/512/15/15647.png;rotation=-180;" vertex="1" parent="1">
          <mxGeometry x="324" y="570" width="72" height="72" as="geometry" />
        </mxCell>
        <mxCell id="Apy_nMzA6MKSCh_NEfZ--51" style="edgeStyle=orthogonalEdgeStyle;rounded=0;orthogonalLoop=1;jettySize=auto;html=1;" edge="1" parent="1" source="Apy_nMzA6MKSCh_NEfZ--43" target="Apy_nMzA6MKSCh_NEfZ--49">
          <mxGeometry relative="1" as="geometry" />
        </mxCell>
        <mxCell id="Apy_nMzA6MKSCh_NEfZ--43" value="" style="shape=image;verticalLabelPosition=bottom;labelBackgroundColor=default;verticalAlign=top;aspect=fixed;imageAspect=0;image=https://static.thenounproject.com/png/175577-200.png;rotation=-180;" vertex="1" parent="1">
          <mxGeometry x="324" y="630" width="70" height="70" as="geometry" />
        </mxCell>
        <mxCell id="Apy_nMzA6MKSCh_NEfZ--46" value="" style="group" vertex="1" connectable="0" parent="1">
          <mxGeometry x="231.5" y="330" width="251" height="135" as="geometry" />
        </mxCell>
        <mxCell id="Apy_nMzA6MKSCh_NEfZ--32" value="" style="shape=image;verticalLabelPosition=bottom;labelBackgroundColor=default;verticalAlign=top;aspect=fixed;imageAspect=0;image=data:image/png,iVBORw0KGgoAAAANSUhEUgAAAgAAAAIACAYAAAD0eNT6AAAAAXNSR0IArs4c6QAAAARnQU1BAACxjwv8YQUAAAAJcEhZcwAADsMAAA7DAcdvqGQAAEmOSURBVHhe7d0JgGVnXeb/99xbW1dVb+kl6SxkpZOQSCK7ymIHhETGfRzFBFQQpRUVRdQEnfE/QIK7/2HGBJcZlQRmlFERJS2SBFkiEUK6CUvSCXTI0kl636q6uqruPfM859zqJXVvdZ9bVXd7v5/k6XPurerq6up73/d33vOe9yQBzepTXq68TDlLOfO47RqFny0ALIxU2alsV544bvtp5VPKtIKC6KSKWa5crXyfco2yQgEAtM8+5XblI8omZb+CU0ABcGqWKb+m/JKyxE8AADrOYeUPld9WDvgJNFaubVFfv/Jzyt8qr6k9BgB0JrfRPi37ZmVCuU+pKqiDEYDGXqJ8QLkoewQA6DYPK69XPpc9wgkYAajvDcr/VdZmjwAA3eg0xQXAo8oWP4FjKABO5J/H7yq/o3iWPwCgu7kt/wFlqXKH4isKIJwCOMbnjv5e+e7sEQCg13xM+X5lKnsUOUYAjnm/8iP5LgCgBz1bWad8NHsUOQqA3C8qN+S7AIAe9jzFawfckz2KGKcAQni14mEhiiEAiENF8enej2ePIhV7AbBa2aqszB4BAGKxV1mv7MoeRSj2o94ble/MdwEAEfGqroOKlw+OUswjAOcrDygD2SMAQGwmlUuUbdmjyJRq2xi9S6HzB4B4uQ9wXxClWEcALle+pDAJEgDi5oWBnqt8OXsUkVhHAF6n0PkDANwXuE+ITqyd4FeU5+S7C2JM8b2ov6B8Xvma4stMAADz5wnrlyovVF6gfJ8yoiyUryqX5bvoZV4JykM+C5V/VS5QAACt4TbXbW+9NrnZuG9Aj3uHUu8fv5lcr3AqAQBaz22v2+B6bXMzcd+AHvcJpd4/ftH4dsEAgPZyW1yvjS4a9w3ocQ8r9f7xi2SHskYBALSX22K3yfXa6iJx34AeN67U+8cvkl9SAACdwW1yvba6SNw3RCW2ywBXKF7+cb6iv4sUAHSQhWiT3Te4j0CP8mUe9Sq/IplWhhUAQGdwm+y2uV6bXSRRXQoY2wjAGbXtfPg8UXRDRQDQwdwmL8Q5/IXoI7pGbAVAf207HxO1LQCgcyxE27wQfUTXiPlmQAAARIsCAACACFEAAAAQIQoAAAAiRAEAAECEKAAAAIgQBQAAABGK7Va2Vyu357tN26Jcme8uqLJylfLCWi5XoromFUBPmlK+rHy+ljuVirLQNitX5LtNu0bZlO+i17gAqLf8Y5H4RbbQLlH+Tan35xFCSC/FbZ3bvIXmtrnen1ck7iOiwSmA9tuo3Ke8JHsEAL3NbZ3bPLd9aCMKgPb6duW/K0PZIwCIg9s8t31uA9EmFADt47tX/aXCvwGAGLntcxvI3VXbhM6nfX5BuSjfBYAouQ10W4g2oABoH4a+AIC2sG0oANrn+bUtAMSMtrBNKADaY41yZr4LAFFzW+g2ES1GAdAeI7UtAIA2sS0oAAAAiBAFAAAAEaIAAAAgQhQAAABEiAIAAIAIUQAAABAhCgAAACKU1Lax8L2eb893m7ZFuTLfbdp5yrZ8t2mHlJfluwDQNp9WRvPdpp2vPJLvNm2zckW+27RrlE35LnqNC4B0nvGLbL5cANT72kWyTwGAdnNbVK+NKhK3ifPltrne1y4S9xHR4BQAAAARogAAACBCFAAAAESIAgAAgAhRAAAAECEKAAAAIkQBAABAhCgAAACIEAUAAAARogAAACBCFAAAAESIAgAAgAhRAAAAECEKAAAAIkQBAABAhJLaNha+1/Pt+W7TtihX5rtN872vt+W7TduvrMh3AfSAi5Tn13Kp0q/Mx4Ryv3Kv8gXlcWUx7FOW57tNO195JN9t2mbliny3adcom/Jd9BoXAOk84xfZfLkAqPe1i8RvOgDdb5Xyv5V67/OFSlV5nzKsLDS3RfX+zCJxmzhfbpvrfe0icR8RDU4BAED7+Ijzy8qPZI8Wj0d736p4BPOFfgKgAACA9rhY+b/KGdmj1vBphn9U1mSPEDUKAABovT7lr5Ql2aPWWqvcku8iZhQAANB6P6O8KN9tix9UXpvvIlYUAADQet9Z27ZTJ3wPaCMKAABoPV/q126d8D2gjSgAAKC1fM28r3tvt/muZ4IuRwEAAK01phzJd9tqb22LSFEAAEBrTStfynfbyisEImIUAADQep3Q+VIARI4CAABa7y8VL8/bLj4N8df5LmJFAQAArfc55ffy3bZ4hzLfG5Khy1EAAEB7/GelHXMB/lm5Od9FzCgAAKA9fCXAS5X3K74T3WLz5MN3Kd+bPUL0KAAAoH0OKm9Rvku5UzmgLLRdyj8pL1Y86jCpANktImPiez3fnu82zbfTnO8CGr739XzPv+1XVuS7AHqE2+T1yuVKv5+YhwnF7dVin+vfp3hxo/nwwkiP5LtN26xcke82zbdn3pTvote4APBQ23ziF9l8uQCo97WLxG86AGg3t0X12qgicZs4X26b633tInEfEQ1OAQAAECEKAAAAIkQBAABAhCgAAACIEAUAAAARogAAACBCFAAAAESIAgAAgAhRAAAAECEKAAAAIkQBAABAhCgAAACIEAUAAAARogAAACBCFAAAAEQoqW1j4Xs9357vNm2LcmW+2zTf+3pbvtu0SeV/5bsA0DY/qQzku007X3kk323aZuWKfLdp1yib8t3eRwFQXKcUAADQKygA2oBTAAAARIgCAACACFEAAAAQIQoAAAAiRAEAAECEKAAAAIgQBQAAABGiAAAAIEIUAAAARIgCAACACFEAAAAQIQoAAAAiRAEAAECEKAAAAIgQBQAAABFKattYXK3cnu82bYtyZb7btPOUbflu0yaU/y/fBYC2+S/KUL7btPOVR/Ldpm1Wrsh3m3aNsinfRa9xAZDOM36RzZcLgHpfu0j2KQDQbm6L6rVRReI2cb7cNtf72kXiPiIanAIAACBCFAAAAESIAgAAgAhRAAAAECEKAAAAIkQBAABAhCgAAACIEAUAAAARogAAACBCFAAAAESIAgAAgAhRAAAAECEKAAAAIkQBAABAhCgAAACIUFLbxsL3er49323aFuXKfLdpvvf1tny3afuVFfkugB6xSnmBcrnS7yfmYUJxe3WvcsBPLJJ9yvJ8t2nnK4/ku03brFyR7zbtGmVTvote4wIgnWf8IpsvFwD1vnaR+E0HoDe8Ufm6Uu+9Pt9UlS8r36MsBrdF9f7cInGbOF9um+t97SJxHxENTgEAQPucrXhU8s+VC/zEIvBI72XKPyh/paxUAAoAAGgTD5vfrbTyqPP1yr8ofdkjRI0CAADa4w+Vc/Ldlnq+ckO+i5hRAABA63my2U/mu23xG8q35LuIFQUAALTeD9e27eIrDH4g30WsKAAAoPWeV9u2Uyd8D2gjCgAAaK0hxbPy281zARAxCgAAaK2y0glt70Bti0hRAABAa40pW/PdtvpibYtIUQAAQOt5ed5264TvAW1EAQAArfdPtW27eNnbj+W7iBUFAAC03oeUdhYBf6x4FUJEjAIAANrjzcqefLelfNOhX8t3ETMKAABojyeVVylfyR61xmeUVyueiIjIUQAAQPvcp/h6/N9Wpv3EIhlXfkV5hfINPwH4NpEx8V23fOvN+diiXJnvNs33vt6W7zZtv7Ii3wXQA7xA0BWKC4JLFS/XOx8Tyv2KZ/t7lGFKWQz7FN/ZcD7OVx7Jd5u2WfHPbz58j4ZN+S56jQsAz36dT/wimy8XAPW+dpH4TQcA7ea2qF4bVSRuE+fLbXO9r10krbw1c9txCgAAgAhRAAAAECEKAAAAIkQBAABAhCgAAACIEAUAAAARogAAACBCFAAAAESIAgAAgAhRAAAAECEKAAAAIkQBAABAhCgAAACIEAUAAAARogAAACBCSW0bC9/r+fZ8t2lblCvz3ab53tfb8t2mjStvyncBoG3+XBnOd5t2vvJIvtu0zcoV+W7TrlE25bu9jwKguE4pAACgV1AAtAGnAAAAiBAFAAAAEaIAAAAgQhQAAABEiAIAAIAIUQAAABAhCgAAACJEAQAAQIQoAAAAiBAFAAAAEaIAAAAgQhQAAABEiAIAAIAIUQAAABAhCgAAACKU1LaxuFq5Pd9t2hblyny3aecp2/Ldpk0rd+S7ANA2r1T68t2mna88ku82bbNyRb7btGuUTfkueo0LgHSe8YtsvlwA1PvaRbJPAYB2c1tUr40qEreJ8+W2ud7XLhL3EdHgFAAAABGiAAAAIEIUAAAARIgCAACACFEAAAAQIQoAAAAiRAEAAECEKAAAAIgQBQAAABGiAAAAIEIUAAAARIgCAACACFEAAAAQIQoAAAAiRAEAAECEkto2Fr7X8+35btO2KFfmu03zva+35btN26+syHcB9JBB5SKlP3vUvAnlYWU6e7R49inL892mna88ku82bbNyRb7btGuUTfkueo0LgHSe8YtsvlwA1PvaReI3HYDecKnyZ8p9yqRS7z3fTA4rn1Pep5ylLAa3RfX+7CJxmzhfbpvrfe0icR8RDU4BAED7uA1+u/JF5U2KRxfne+R/vCHlxcpblS8rr1eADAUAALSHT8F+VPk9xR31YvMpw79Sbs4eIXoUAADQHr+ofHe+21JvUb4/30XMKAAAoPUuUW7Kd9viT5S1+S5iRQEAAK23UWnFsH8ja5Rr813EigIAAFrvebVtO3XC94A2ogAAgNZyuzvftUQWAgVA5CgAAKC1PBt/NN9tq3NqW0SKAgAAWmuPsj3fbav7a1tEigIAAFrv3tq2nTrhe0AbUQAAQOvdXdu2Uyd8D2gjCgAAaL3/pvhGPe3yGeWv813EigIAAFpvXPlxpZo9aq0x5SeUdvzZ6CAUAADQHh6C9016fNveVvGd+3xDoK9njxA1CgAAaB/fmOdbFd+yd7F9TLlc+bvsEaLnu1HFxPd6vj3fbdoWZb6LePje19vy3abtV3w9MYDuV1auUl5Yizvq+d4W2CMLbq8+r7jA8Hn/xeBRheX5btPOVx7Jd5u2Wbki323aNcqmfBe9xgVAOs/4RTZfLgDqfe0i8ZsOANrNbVG9NqpI3CbOl9vmel+7SNxHRINTAAAARIgCAACACFEAAAAQIQoAAAAiRAEAAECEKAAAAIgQBQAAABGiAAAAIEIUAAAARIgCAACACFEAAAAQIQoAAAAiRAEAAECEKAAAAIgQBQAAABFKattY+F7Pt+e7TduiXJnvNs33vt6W7zbtgHJuvgsAbfNNZVm+27TzlUfy3aZtVq7Id5t2jbIp3+19FADFdUoBAAC9ggKgDTgFAABAhCgAAACIEAUAAAARogAAACBCFAAAAESIAgAAgAhRAAAAECEKgPaYqG0BALSJbUEB0B5PKbvyXQCImttCt4loMQqA9rm3tgWAmNEWtgkFQPt8vrYFgJjRFrYJBUD7/JHCsBeAmLkNdFuINqAAaJ/dyk/nuwAQJbeBbgvRBhQA7fVR5b1Kmj0CgDi4zXPb5zYQbUIB0H7XK69WHsseAUBvc1vnNs9tH9qIAqAzfEK5XPl55S+U+5VpBQC6ndsyt2lu29zGua1zmwe01NWKh57mk80KAKCzuG2u12YXifuIaDACAABAhCgAAACIEAUAAAARogAAACBCFAAAAESIAgAAgAhRAAAAECEKAAAAIkQBAABAhCgAAACIEAUAAAARogAAACBCFAAAAESIAgAAgAhRAAAAECEKAAAAIkQBAABAhCgAAACIEAUAAAARogAAACBCFAAAAESIAgAAgAhRAAAAECEKAAAAIkQBAABAhCgAAACIEAUAAAARogAAACBCFAAAAESIAgAAgAgltW0srlZuz3ebtkW5Mt8FFsbF195U1qY/Demgtk6/MqD06V3qj2mTLPz7NU1T/VpRppUp/flT3ioTpaQ86Y89cOuv+3OATrdZuSLfbdo1yqZ8t/dRABRHAYAFpwJgqTZnqAM+V1vnTD9WVutdOqpteZEKAHf8Y8oeZYf+/Ke1dR5WAfC4tgdUALgQADodBUBBFADFUQCgkGe/ITu6Hw7V1B36eXrTze7M0zBTAJyj7UwBcLqy2AWAj/ZdAOxVVACEHXpSBUDyjSRJsgJAyQqAfLAg23PRMK5s3XrbO3dmTwHtRwFQEAVAcRQAKEQFwIg2Z6sAeI22P6433UidAmDmFICH/R2fAnBadQrAmdKD7FSAckQFgLd+vqocXwC48/+m8gcqAD6VPQW0HwVAQRQAxVEAoKH1193ko/bzlLP15vK++vYwpM0q7fl1s0EZWpTOfJGpAJipAI7okY78k4+qSPiKn9CHntLmYeXJrbfdwKgA2oECoCCuAgAWljv/1yq/rPxRLb+t/KriEQAXA91uUJ3/2dr+tDLzd3yb8grFpzAAdAFGAIpjBABHrb/2Rh3Zh6u8q4zqwN4d4IXKuXpzrdM2CmmabtfmAeXxJCQ+PfBPA2n4orbT93/w+pmRA2AxMQJQEAVAcRQAkbvk9TclaZqNni1Tx/ccbX9eebmyOkkSn7dfZLW37dF378nexrX+92g3vMj9cZpNHHxPEtIP608ad/T40NbbbsjmEgCLhAKgIE4BAMX5On0f+b9e+Q3lxcpyJZustygSvVVL5ZCU+0PS1x9K/YPKklAaGA7lwZHQNzSqLA19S/KU9bg8NJJ9rDwwkn9u/1Ao9Q3kX6PUl3/NxbFE+RH19u9W5/927bvw9pUMADoIIwDFMQIQqUtf/273mP3VtHSh3jqXaf9Nis/rNyVRh5516u6IszmBSf03pD+m5J/nQqCkfT/n3zvzvLf518iP79N81v7RVLVRl5xt9bjqbSX/mH+HN8c59tAf0+f686v+/FM/iNef4yN/X0r4WeXDyle33nbDI9oCi4ERgILqtjc9jAIATVMBMKzNChUAr9Nb58e172v1PRLQhKR2hD6so/LB7Ig8Ucfujrwxd/r5Nt8c/7kzH6s52oMf17Nnnb2fcaee7zVyrHiohmplKlQnD4eK4u2p0tfwJYRHFK8x4DkCH1AB8D5tgcVAAVDQ8U1GDCgA0LSLr7vxEm084e+1eut8d/bkyahjL5WVvgH9FnXwM9R5lwdmhuU9JF/OPp4fxbdX1vnne+r/HRUAU5PKhOL+PP+Y910c6Jfac/Xp63nYwJ+0SS3OB7W9d+utNzzkjwELiAKgoONaJACNPOeHf8tj65dr95cUFwEnp87cHX95ybIwsHxtGFq57lhWnBH6R1aE8uCS7Jz8CcVBmx0rQpJsVMIjFJ5jMLB01dHvf3D56dk8g9Kpfe/+gn2K10D4XeWlCoA2YwSgOEYAIrP+x95zljavVs/oo4Nr1EE2nNCWuMPXkX02pK8jf8cdaHlgKKwYHQrrViwJA335kf5ju8fCnkPducy+5wRUJsezUQDPDahqf/rwIX8k/4Q6PJagjVca/KBKi7/T9gsP3nq9Tw0AC4ERgIIYAQDmcPG1N3l23TnKm/XwBxUv61ufjoTL/Ut0ZL8yDCxbraPktWFk+aowunRZGB4ayDr/K889LbzowtXKqnD2aSNheKCcZVBFQTfxyMDMqID/nn3DK1Ts+DRG42MKjyco/cq36eEPKywaBLQRIwDFMQIQiazzD2FUR67foe27lef5eR29z3rf+Fx+3/Dy2nl9T+orhxF1+i9UZ79+3bJw2uigMhBWa9tX9ghACDv2T4R941PZOfcHnzwQPv6l7eHAYS+/3308EuARgemJsVA5Mh5Szw2of8WAhwj2K19T/ot+lHc88IFfP/VLC4DGGAEoiBEAoAF1/L45zwXavVQZdcdv2QeP0vFsuT+bze9z+r4G3+f93fmfoSP+51+wKnzXt5wZXvutZ4erLlsXnnvuaeE5Z68Il561IrziOWeE733+2eE/KK+49PRw8ZnLwioVCd3IRY9HPvqWLKtd2fCMSY/H+Oe3Qj/Xc5RLq2n1gvXX3dgLyyMDXYcCAGjMw/0/oMxc8jeLz/H3j56WdX7Z4jo1560ZDS+6aHW4WEf/a5cPZef9Gymrprjw9KXh9S+9IHz7+rW1Z7uTJzUO6OfhCYKeD9GgCDBfPvlGxfcTyG6aBKC1KACARpLQr1ykXKbUnfjnRXiyYX/l+PPf564ZCS/Q0f9Zpw2HkcG+UC7NOmuQ8YCCs3JkIDz33JXhnNWNpxh0A18VUBoYUiGQr0KYXd5Yn4/6fVWFh2yXXnzdjfV/QAAWDQUA0Jg7JfdgDXoxfdid/nEd/4xzV4+G55+/Kqwa9arBJ+cCYUl/Xxgo98JbMgl9QyOhf3hZdnpkDv7Lzvx8aYuAFuNNBzSgY/OZ/7Lj9NrTR/lctyf+ZZf7ZZ9x7FMG+8thdKg/m/B3Kvx7SyoC/PuWDvWF/i4uBLKfhY78ffljvydGDi3Vkyf+fY7+TNOwTvneNA3ftv7aGxsOFwBYeBQAQDPUd3nC38DoynzC2wLx5YArhgdUCHT/WzObH7F0VTY5svGpgOQ85c3KNUp3zoAEuhQFANAsFQHq5byTP14A05U0jE9Wsm3P8M+pMXf6KxTuFgi0GAUAUMfF1763HFJ1Tvl9/+tLSvq/8fr9vr7/2Lr6p2a6Wg2HJ6dVAHT/pfH5IH8tDW50pKf6lKXKEn9a7WkALUABANTno1IvAdzctPys86/tF1CppuHIdDXb9gpfHpndN6Cfy/2BTkIBANSh7nu5uuB1ypLaU4U8vmc83P/Y3rB37NTW+j94eCp8/emD4al9h7POv3e6fxUAZRUAgyMLOlcCwPxRAAD1JOlS5XSlqQLgU197OvzZnQ+Fh586WHtmbk+oYPiHex8L9z2yp/ZM78hGALxWAgUA0FEoAID6fAG/J6YdW96vgF0Hj4SvPbE/KwTu3roj7BubrDsn4NDEVNisTv/uh3Zm2+17D9c+0kN8ct9XATReFRBAG/COBOpzx+9D1qauTXc37xv7/ON9j4UPf+6b4en9h+vOCfDtgD9+//Zw++YnslMA+8e78/bAJ8f8PqDTUAAAjc2r13J/f3iyknXsf6Mi4P13bA3v/8TWcMu/PHg0H7p7W9jyzb1h18GJMFWp9tS5fwCdjQIAaGzeh62ezL993+HwkXsfC//zkw+HP39GPnzPN8PWJw+EQxPT2ecCQKtQAAAAECEKAKAZOlpPpydD5ch4Z2bycKhOHQlptVL7hgHgRLHNzLlauT3fbdoW5cp8F71q/XU3frs2Vyk/kITkedmTz+D73ZdKTV0kcCK/Cxdy+N9fLymHUv9gtg6/L8Frp+zKB2Xy4K4wuf/p2rOz/KnytgdvvX48fwgUtlnx7aXn4xplU77b+xgBAJqUjQBM+mh7nsmO2Bcw2SjAWJbq5ESo6vtM0+5fWhjAwqIAAHqROvx0eipM104HhCoFAIATUQAA9U0rE0rXnkT3UX91+kg+F6DeIgQAokYBANSVTCpjiguB7qRO36cpHD3InwOAGgoAoL7HFU8q6r3F+QFAKACAOrbeev2uJISHHB07b1N26IB6r7Kvw3JQ6d5RCgBtw2WAxXEZYCQuvu4m3wvgOer8n6vti0IaztC2X+mk980K5bIkCaflD4+XZLfi7RsaDQPL17btbnxcBogW4TLAgigAiqMAiMz6625ao81LOrQAeJbyH1UAXJA/PB4FAKJCAVAQBUBxFACRUQHg1X5GVQC48++002Zu8N6tAuCF+cPjUQAgKhQABVEAFEcBgI5x8XU3vUCbP1K+I3viBBQAiAoFQEFMAgQAIEKMABTHCEAHu/i6G1dpc45ykXK+MqDjz5mhe7/eEx0Xa9Mz1imvVs7OHp2AEQBEhRGAgigAiqMA6BDq7JfoJew73ZSV2mhW6k7/W5WXKy9RRtT9DGnr8/hZEdBjBYD/Msf9/Y9HAYCoUAAUxCkAdKVLr3uPOz538m9T3qP4PLjzG8oblBcrq5WligsAjwK4CHBn2WuJrZAHsAAYASiOEYA2ufjaG5dr46HuYb1yfTj7A3oJv6b2nK+HxwkYAUBUGAEoiBEAdJNLlF9W3qv8vvJDynnKiIKGGCAAMBsFADraRde+d+TZ19507vprb/KR/vcpL1Neok7txYo7/1HFw/t4piTRUf9gSPp15K99ADgeBQA6ljp/vz59Ht/Xuv+KslFxp+9z+jiJpFQK5cFhZUT9v6cKAMAxzAEojjkALbD+2hsv08Y/5wv1MvX+d+gg9ix/DCdX6l+Sdf59S5ZqfyibC5C0aRSg2TkAd92y1vM6fE7XRd9axZM4F1Yaqvq1kob0G2oN79f+zqvesnNf9jF0G+YAFEQBUBwFwCK6+LqbfNTfr07jddr+uLJeHdeZ/tjJ1V7O0Y92J6F/9DR1/svV+Q+Ekjr/dppHAeC1HN6ovFLxDZkWfuQnv5PipAqAj+vHdpv2v6qXzze0rTgb3rLTBQK6AwVAQRQAxVEALCIVAJdr8xp1Gi/V1uvbr1ABcNJJfkm5P5SHRrOZ7kmprCfirgJK/YPq+POfhU8FtNM8CgB3+r+peN6HTwUt/HmMfASgqgLgUbWGD2l/r14527W9W/GIwGMqAg5ri85HAVAQBUBxFACLYP11N/ow1R39a5VfTELiBX18F76Gso7eHZz+Kw0Mhv6RlbXh7v62DXdjtnkUAC4AvbbDt2dPtEy6V7/8nb7lT2n7Nb3SHtP2qas27tBfBB2MAqAgJgGiU/h874sUN/q+xe0yZU7lJUvD4IozwuDKdWFg6RoVAUuyc93APLkQvUp5q+JFpnw6iomn6DkUAOgUKxUf6T2vtj+o1JUP9y8NfYqH/bMMDodSduRf4ugf85T4usnzlOcrG/SE77Xw2rtuWfvs7MNAj6AAQNs9/6d/y122b+LzCsUFwJzX9bvDH9JRvwsAd/jAIvIL7NuU31Z8ChHoGbSeaKuLr7tx5ND4gBvW/6Qi4KIkJKPK7NelSoSkfzD0jayoXdo2GJJyOTva54g/PvqnD6ctS8K61aVTzhmrSuH000ph1fJSWD6ShEGVmXPNj6y9tJxlygVpCK+585a1P6VcXPsUoKtRAKDNEp/7/wnlF7Tv2/jWoQ4+KYfywHAYXH66CoCTTg9AjxvoC+rUy+HCs049F5xZDuetK4ezVAy4CFgymIQ+tYAFykcXqjcqnqcCdD0KALTNJa9/r8/1n60meDTr4RvwkX6/jvz7h5fnl7VxxA9f+aGXQUm/nGrK5ST09yVheKgUVi4thTPXuCDoCxeoODh9ZSkMqqgoz90ilkKaLlG+884/XvP9yum154GuRAGAtknTdJ02z1Ea38lPHb4v7esfXpYN/WeX/gHiQrBUIGUVAX0qAoZ05L90pBTWrixnRcA5p/eFNSoARpbkpwX69BLTp8/icShtPDn1JYpHA+a8TBXodBQAaJs0hJcpP6V4xbfZ1Ar7qH9g2ZqQ9DW8KACYt9HhUlYIuCBYs6IUBhvfOdkV6FkqBS5QRv/1ljUMR6FrUQCg5S768d9JFL/23PF7hnWdIylPBSzn69l7hT+u78ciGhpIwsplpXCa4u3IkE8X5If8x0uSpKR4xMr3J3hBJQ2X3HnzGqpTdCUKALSDj6LcaDY+718qZdf717sgAFgsgyoElg4nYfloKYwu8byB2gdm8/0pfkZ5g7LcTwDdhtYVLZdUKs9SfH//831etXZu9QQ+7983vCxb2x9oFc8TGOhLwrKRUpbGBUCyRLlYOV+Zc90KoFNRAKAdvkX5WcWL/tTlof+B0VVZIQC0ktcGWFYbBehTQdCAP+DzUk7DTwI6GQUAWk6t5QplvXZ9GWAD+RwALvnrFd1zH53s6gJ1/EsGvdZAKaxa5tWAah+s0WN/mp5NL1J+8s6b1/julUBXoQBAy6nVHFHOVJbWnnoGvSzp+NFmnhh45upytmhQ44GAbCLrm5WXZ4+ALkIBgI6S3+hnhHP/vSRNveZDtu02rkNPMgrlF6pHsoazR0AXoQBAS134o+8uqTNo+Lrz7Xx9sx8KgN6RptVQnToS0sp07ZnukI3xK14YyKMB3j6TPt6v+P4VSz558+l9CkNX6BoUAGgZdf5uQj2rr19FQN2G0rf07fMIQD+XVvcKd/5Th/aE6SNjtWfmr5W97JKhJLuR0OjwnH+qrwQYrW2BrkABgJYplZM1im/5e5lSvzVNSvl9/Vnyt3dUK6E6eTik05O1J+avlScTBvuTsGJpKSwZmKsASM9MQ/VFCvcHQNegAEArPVt5q3KNun9ee5FI/V9azfa6kYf+h7OVAeccAbhE+TGFWwWja9AIo2V8nlQ5W7uru7QvQAGe+FetTIe0WvGj/Mln0OfsVu5Wvqr4EzN33LK6rLKhT2l7G+V5AF4gaO65gOEM5fkKNwhC16AAQCsdnQOQPUJvmykAPPmv8RUATysfU/5dyWYJqvN3V+vXiGeCzt3tttCc30iSrFIuUU6rPQN0PAoAdAbPuO7rz3KyQy10h7Q6HSrj+8P04YO1UwB17Ve+pGxTap/kF0CyTDu+vK5jisWZ+wT0Mz0FPYICAC0zc1mVkqk9nfPkv77BbAIgutvM0H91aiJMTxwM1cnxWSMA+coA6ZQOq/cpX9962w1PKtkn6RVSVs7Q3jlKx6wF7QJg+Ugp9PdToKI3UACgI2S3/vXlfwO+xwoNbFdT1z49vi9MHtwVqo1n/nu4f2ctU37iOL4G1LeJfrWy2k90At8dcPWKk10NAHQPCgC0xPrr3lXSEZ8ndtVtPV0AlPqGagsA0cB2K3f4lSOHwvThQ6EyMZZdAtjAuHKfcq9yyE8cx8NAnk1/hbLUT3SCAR35j6gI6PPtf+pQ3ZMoZ91589pLlY75voFGKACw6Nz5a+Ojujl79/zmP7wku9n0xKFwZN+OUPGw/9x87v/vlQ8ru/zEcfwi8GS6tUo3rQjl7/tlyuuUc/0E0MlobbHo0rTUr6wNqRr0tNGkLtUF2dwvjv67SXYmX0f5lcnDYWpsbzbhz+f+Gx356/Nti14H/6Tct/XWG7YrR08B/Osta/QKSPsUD7QPKrPaqH4dgftOfeXObL0uUHw54Bx3ugQ6AwUAWsFHcecpPiqqu8i/u/2ZeYHPnB+IDqYCoFqdzo/89z4VKioA9GT+sfr8wX/R5v3Kw/lTJ/Acew+yN2yblqgs8Pn4emvzt1PtVeuVAF0EeFlgoKNRAKAFEl/bt047zpzT/On8O1darYbq9FR2lD95YFc4sn+H8nSY0r47/rkW/Mmk6Q79ukV5UHlMOaycoJqGDfoSv6JcXnvqBH55+FK805aVTrYy36LxrYFLDVpOf0gpK+355oACKACw6NRoDyjr1CSeoURxnV+aDY1Xs07RC+HMlZnFcjo91cpUNskvKwAO7VYRsDNMHdyV3einkt3op0Hnnwb9ILKZ/k+oV/w35eGtt71zj3L0EoG7bl6TKH5tvEKvmJ9TLs0/MtvIUCmsWFrOJuW1mgsQjzwM9OU9/QmSo/95H+h4sb1Mr1Zuz3eb5iOYK/NdnIr11914jjY/o7xGuVQt5IifP155YDgMnnamtktqz3S3ytSRUJ2aDNXJsbkuhesuLmo85K+/T6piQNVN7QMnkYYD+vVJ7fi999fKtgdvu+Epf2iGOn+fM/cI0S+qWfopbWe60hO4073o7L5w5pr2jP9XqmnYe6Aa9ii7lSP1/2kfUt624S07vMIhWmez4itH5uMaZVO+2/sYAUAr+JyuG/gVSk+uo5ZNhJuayCbDVY6MZ/EiOFPjB8K0V8PrhRw+ECr6O6XTR06p81etMKE8lobwJeWz6tM/rY7/357Z+dd4Lf2XKs9St1+q1/n7qNvn/j0JsF1cgIwMJWHZSCn0eaAf6GIUAGgFv848KcrpyQIgu+f9wV3hyL6nwsTeJ7P9ijrM7Eg5XruVjyg3K/9DURHQ0HOUNyueQV/X8tFSOO/Mctb5tlNfX16EzDoFAHQZCgC0gC/uT4YVL/PXE685D4V7mN+z37Oj/MMHtT+WnQv30re+FK7QMHmP0JH+tHJQ+Tc9/Dvl48rdyv0P3na9b/xzgjtvXrNWeXVIklcplyt176bnc+9Dg3kR0N/mWSSeAFj2YsUNCgC9NsrKMv29nJ4seNEbKADQCn6d+VJAr+veM8dNHuafPLg7TO5/KpsUl/pcvwqDyB1RvLzvXyjvUu5UHt962/WNhkK84t+vKz+q1L9EVK8YX/Nf0iG3j7rb/QLy9+DvZ47vwyWKT2mc9KoXoJ0oANACXv437VN0NFR/KeBuKguyjv/AzuycuI/0fWlco4Vvel6a7lfuU/5W+X0984fKLcrn1OnvUMaU7Da/x7vrltUr7rp5zQ9q9/WKh/89P6Rue+Tr/tetKoUVIz7qztMup/jnu5A5Szlb6aaVDBGZLmp2FwRXAbTBxdfdeKkOjN0xvDpvO2e3oOXBkTC4cl1HXgXg4f7jufOf3D9rNLsh/f6ZL5Dqr55VCvoB9MZQQZp+U7961vS/KB9/8LYbPAJQly/1028olUKlVE36LtRTKhiS784/2tjalaVw4dl9YbCD7sJ3cLwaHn5sOuwfm/3PqH/uPdr41Id/Lh+7auNOj4hg8XEVQEGd845qDQqANlh/7Y2XaOOjw+9S+nQEVacAGFYB0JmXAc70357h79nw+Xn+WWvYNKTf74kA7vi36B2njiHZox+AL5zvfmnqpf8eVbywz6MqABpOelAB4PeNZ/p7PYjztf0O/Swarpk/2B+yu+950Z8Vo6XsvHunOEkB4Mse71H+WfmQCoDtfh6LjgKgIAqA4igAClIB4PO8v6349q6D6v9nDfV24joAR5t2r4BXmQ7Th/dnR/+nMtyvTmCvNu4IfO7b8eS4O6pJ+NOQJE98/QPX+2Y4Pe3Om9f4gr1lyrAypMbG60D8iHKBfgYeIm/Ii+0sG0nCs84oh6XDpfzc/8mH3lvmJAWAi7sHFI8C3KICwAUSFh8FQEHMAUAr+KjQh8xO102Lr1Yms8v6psf2ZcXAKfpX5XeU65VfUn5F+UvFR8onvVVej/Ad/V6lvFXxz+KNikeD/HxDnmXvo/61K8thaCDv/LuMZ/678Fle2wc6EiMAxTECUND6a2/0zVFuUDwCcLqO5GbN9u7IEYBUR/7ZpX5jYWpmln8jaZjQrz7i9+SA7WlIfQmcz4vv2HrbDc+83/0sd/zxGneK5+ogd1Tx1RLSBW/P2gGwNvk3e9zVcToS9u18NyjPUy7Wv3vt79XYkF4Zw0NJ1vkvH02y5X7LHVgBnGQEwCM+XgPB//7/9aqNO+vd9AgLjxGAgigAiqMAKEgFgM/z+ijYBcB56ghm9fKdWAB42D+b7T++P1sL/2hvV0+adfxfVTzs+xEVAL7HfXYKQAXAnMMGH/tvF5UG+/a/QLtvUO+5XvEd5fTePNqXdq4TCwCv4Ff7P+sIfQmcj4S99PNQvVM/z+TZ/mesKofBAXX+fflPoJOG/mecpADwOSKP8rgAuEEFgG9+hMVHAVBQ572zFhcFQBtcfO2NPt/7JsXngJ+rFn3WrVI7rQDIlvT1Pe4P7c0W9mlEzb/P5W/Wzpe1fUBvqC9oe8+Dt10/q2f45J+u9futlE6nz9XWr6G+NF8YSUkv0vYq5Sz1d74kLuv6tO1sxwoAO6EAKMJH/T7nv2pZKaxcWspOA/i6/051kgLABZ+Hiz6hvEMFgOcDYPFRABR00oocWAA+fPYRsTPrmvBO5Jn+Uwd3Z6cATsJ/pw+pz/sD5c+1/+/1Ov8a92ieGOdCyOfE9XvC/6/8kfLziguD1Yo/x+eOa8VBl2Qe/bU7/wvP6stm/Zf1N++C0mcu/u49+uF/x+7+m6Cn+Y0LLCr1hpPKE8p279ee7kg6estTrQTf/naOpXx9nvcf1Lq7A79HPdZO5Yg6/1m/4c6b15yj/GR1Ov3NaiX16ni+9n2pskQd3aAykCRJv4fIFX3JmWSdR2en9p++26PfuJ4/KR/cjyxJwhp1+OeeUda2XOv4Z77YKX0ZAPNAAYBWcKf/RC3uOBuodb5H181pA0/8U8efnfPPLver972kvh3eXmWTuqn/pTfR/Vtv/bWDygmd/523rC0pHs6/TPkx5Rf05d6u3u1lyqAS1Qxxd+ke2vclfj7H75v6rFlZDmetLYdVyz3bv6c6fb9w2vhCBk6OAgAtkKjDTB5VHlPqjgBkrWUHNJfZMr/7nspu8jOHrco/1Lae/d9omMAz+33p29sVFwGeDBftoe3gQAgrR5Nwtjr8C84qhzNWlcLS4ST09V4r5FeyC12HIgAdiwIAi85rwfdPDu5Wz+c0mAOgdtLD7Y2H3FuiOj0ZpscP1L3kLz0qfF0PPdv/kQduvX5aOaGRv+O/ryvdefNar3TnVe++J0mSVynrFC+C1NMFgP92PsL35Xwe4ncH7/P7jlfz8/X9q3W07yH/5SOlbJ3/Tp7s1yS/iL3mxVzFIdB2FABoia/8zS97PL1xY1g7756e+kI77eCO3t/gI4oX+pm1xKs6fw/rewKYb3TzW8p8ZyV3Fd8nf2QohDUrS+FZp+tI/8y+cNHZec7R41UrSmFInX6P82vEQ0heJvnky0YCbdLz78Rn4DLANrr4upt8iY1nvK/PnjhO0jcQ+oaXh76h0ey+AKdwyfiC8jl/z/ifGt+fLfpTjw793fF/XqXK3zx02zv/Jn/2RDry97LHL1Zep6Nhv97m5KNlHykP9OWz6Lqdr9334j2jOvL3pX395WNH+L009jH3ZYDZ0b8X//Eo0fuu2rjDN0zC4uMywIIoAIqjAGjSXAWAL4cv1YqAgaWr9LC18+N87t+X/VUmx7PTAPWo4/9bNffv1PbRh299Z93FAVQAeL2D9yjL1OGddFEDd5KeBe8h8mzFuy5/R/rbd0fvHBvZz3ciKgB85H+f4gLgL1QAePIrFh8FQEGcAkDLqOOc+c8D/ie2nHp4dPZ9G2TL/qrj9+p/cziiPmx3vc7/rlvWXqRsVCf3fcpqpWHnP6ojfk+A82S4M1eXsqNl3+rWw+ceCejm9Ct9Oup3MePpDnl6q/M/qSSdVnYoTytzXPUCtBcFAFpGPb57fZ8fnX3Y5KeyOQCV/LNazSVJ9mfPnoPg70xRQ55U1J3Vnj3mrpvXlPX7L1U82/97lLrDF/6dPipe5pnw+i0+8j97bV8YGfLKd3lnic7n8nVOqV4raXhK2Z7tAx2KAgCt5LF1n2D3EGk32afcrdynpv+EpQHV+XtZY9/s5luVOYf8l44k2eVvvtGNr4Mv8+7rOjOdvzdzlAF+jfhKEcfzAYCORBOEFkr2K19WvCZA7bn2yk9GnPSIbr9yj3K/8swJAr62//mKCwDf934WH/X7srjlo/mNbnw5nIfKe/Dytyh4OKg652sm8WjRdv3LP6HUn1ACdAAKALSSj4j+RPFd0jro8qhsXkL2XwO+q58nGPmmLs8c0l2qvER5keJiYBZf9ubz/WtX5je5QXebrqRhygtFNq4BfB7JawBMXLXx6dnnlIAOQXOElnno1uv3LUn6Nuu4d1ujY1/fSbU6feRkk/EWVLb2wNzrD3hI19f879h62/VHC5e7bl7jI/41yrkhSc5UfP3/CXyZ3/BQfvTvy/045u9uPvAfO5yGA2PVMD1dvwJIkpAq0+r82zOjFThFFABoqS994B3uaZ26rWc6PRWmJw6G6pQPoFrApwC8BoALjsbDuv5+/Q0dHc5V5+++3Hfu862O65779wi/L/MbUVwI0Pl3Px/17z1YDTv2VsMk0/vQ5SgA0FHcGVcmxuouxbtYstu3Z7P/5zyiS3X0f/wn+FavXvDnPyhn+Iln8nC/l8L10b8vjZu5LA7dyzWih//d+dc5BeBn6r+IgA5EAYCOklZVABzxYjytOrxSe+1RAJ8CKNJ0J4kLgFcqb9D+udlzz+BZ/p7wt3JpPukPvcFFQOPBIqB7UACg9fJZ9V9X9tae6U5zHNJ7+N8FgD/KUX8k8nmkm5V/Vp6sPQt0LAoAtJwOnnYpm5UdtadmS6v6v5IPz3chr+rnO91xrX/vqFTTMF2pO/R/vPtV8n1CafzaBjoEzRPa4avK/1TUWNaX3Zb38MFsUmA3WrG0FM5cXQ7DQ7zFeoVn/+/aVwkTRxpWAP6AL3W9V9njJ4BORuuEltMx/ZOKV9Z7PH9mNl8KOD1xKPj+AJ3mk3+y1u8bzwFo+P4Z1tH/8uzcf+0JdL3D6vh9BcDkVIMCIFEBkITdGzY+/bjCCoDoeBQAaAdfS+8GsuF10h4BqBwZa9vNgU6iXw291wBo2L37tL/nAXD6v3ccmfT1/2mY5Op+9AgKALTcw7ddnypV3zEtDenDilfaO5Fn5uvovzJ5OEyrEGjlwkAnU62mA2maLtN3OFB7arajk/+oALrdzHLRlapXAcxemrOl6R5lq9LdE1sRFQoAtNM3lH9XfIOg2dTS+jTA1Ni+rBjoIEPKMqVhAUC331vc5zc885/z6azPKMz+R9egAEA7fUXZpDyRParDHb9PB2RXBFSrqglO0gy3hvv3urf8PV5+CWDtAbrW+JE0PLW7Eg6Nz3lFysPK3ysuaoGuQAGAttl66w2+uc4dyqNpSCeU2S2sO34VAJ4M6EWCrEOKAKN7j8BhvTKf3l1VAVDndacXbfZfSL6xYePO25Vv1j4CdDwKALTbuPJZxYVA3UunPBFw+tDe2qkAZmChtXzu/8hUvgYA0EsoANBuvsnOvTqGulvZr6P7TP6hmrSaXRHgmwR5UuDRUwKdMxKAHlStptklf84ct/8dU3zUX38eC9DBKADQbr7rz4OKFwU6qDTs1atTR8LkgR1hemxfqNSKAGCx+HK/PQer4eB4Otfqf9uU25TPZY+ALkIBgLbaeusNVWWfd5WPK19Q6t8KUB1+1ZcFThwKlcMHw/ThA9lqgdmIQJoyIoAFNV1Jw4FD1WwFwIZlaRJ2KJ8JSfJQ7Rmga1AAoFP4SOoPlA8qnhfQUHXqcJg6uCtM7n86HFF8WqDe/EFgPnzO/5A6f18FMEdp6VErd/5PZ4+ALkIBgI6w9bYbJhU1osndyp/pYN7rA9Tno33PAahMZ6cFpsf3h8mDu/Oi4MDOYtHv8+/3yEK33ngIC6uiI/89Byph975Ktvpf3YGlNB1Tvqo8oBzc8JanmZ2KrkMBgA7Tt0V5j3Y+ofgk/9y9sjrtrADwaMC+pwrHv2/q0O5QOXKIUQSoL89n++/cWw1P7anOteyvj/w/r+j1mk1kBboOBQA6jZtc3yfgo8qvK/coQEscngxh/1g1TOjIv6JCYI5pJfuVf1N85z8KAHQlCgB0lK23vaOqTG697XrPqr5F+VQa0seUcQ/8NxiQBebFw/6+3G/scFUFQKoCoP5lf3rKT+9Jk2Sb8sUNG3c+pNSftAp0OAoAdDIfWXlS4HsVXyZ4RKEAwIIbm0jDk7sr4ek91bBn/xy3/M1fk/+s+NK/7X4C6FYUAOhYD956/bTyJe3+k/Jxdf13KHelafpQPji7uKMBHm2YGXVg5KE35P+SHt7Pj/b3Hapm9/jfeyDv+A+MVbP7/nv1v2fyb9OLwqen7gtJ+KxSd+VKoFtQAKAbPKX8qfLrISS/qu1H/GSLuCvwZEQKgB7hUs5L+3p9/0e2T4eHH58O23dVskv+vOLfHHxLyjG9EnzJn4/+PSIFdK3YbmZytXJ7vts0z/q9Mt9FK62/9r1+vfapT96QJOGHtO/HTkmN8lJtz1FOU5aqje8LSaLPPfo5xegAUb94otcD+t2e7PU3W2+94RF/6M5b1qzV5jzlV5OQ+PuY5cKzyuGc0/3Ht4+PdM2Xsh0YZy37o/RzmVRXvkdH/eMT+rmc5OIP/Rz9Gf5h/rteSp/U9m+v2rjDC1ahs2xWrsh3m3aN4juURqF4w9jdKAB6wPprb+xTATBzL36/hvvVSl+g7auUy/XU+WqtR1QA+L79vm3vSW/dO0vqWxSnXp3wg/oT7tZ2UgVA1qN2UwHgGsBD3N/YXsnuaodj5lje9wT6Obp08tjATXpt/Y62kyoAKKc6DwVAQRQAxVEAdJhL3nBjOa2kK7XrIsCd84o0JAPHjQAUP9Wlg2b96hu83L/1tutVDBzTLQXA1HQadu+vZke6DiMAzVEB4KN9X5Z6x1Ubd/rOlehMFAAFUQAURwEQuW4pAMYnfOQ/Hfbsn/NmNngGdfj+afnSvixJknjG/29seMsOL/6DzkUBUBCTAIEe5rPXtakAOHX5TP8QPqT8puJLUVnsBz2HAgDoYe776f9PTgf9+5VvKF5v4h79zO5S/lH5ax3536P4CgCgp1AAAEAID6qz91D/TcqvKX+heBlqzwUBehJzAIpjDkDkumkOgK9x33Og3hhAdmLAl7d5ouNmNQV7/WysdOT/Jf1APqPdr79y484TJn2iazAHoCAKgOIoACLXQwWAJ7n5jnbvUlPgFRejpQLgiH4gPvc/rQKAW/t2JwqAgigAiqMAiFyPFAA++ncB4DUO3rHhLTu/6GeBLkYBUBBzAAAAiBAFAAAAEeIUQHGcAohcj80B8PXuv6um4Ct+tpPoO5zUN+lZ+OPKxCs37qj3FwFmcAqgIAqA4igAItdjVwHsU7aqKei4y930HT6pb/IT2nXD/pAKABcsQCMUAAVRABRHARC53igAOp8LAG3uUPye/ehVG1mKF3OiACiIOQAAOtUqxUX7y5UlfgLAwqEAANCRfMtnZbWyQqGtAhYYbyoAACJEAQD0qL5yEk5bVlKSUC7XngSAGgoAoEe501+5tBRWqQhYMpCoINAbPunMJAqA1qIAAHqUO9bB/iSsUAFw3rpyOGtNOSwbScLSDszQQO2bBtAyFABAj0p0WN3Xl4ThwVI4bXk5rFpeykYEOjHDQ0l01yQD7Rbbe451ADBv3bIOwIxsyR+pVNMwNd2ZawLs2FsN33yyEvQt1vN/lLdteMuOp/KHQF2sA1AQIwBAj/P5dceTApcMlhYw/bWUj3uuufT3cfwPtBoFAIAmuKroVwvik/c0I0A34p0LFJWGaWVCqdSeicPQ+hBW/1gIp/9UCOt+XvnZEM5Q1r219lhZ+m36RBUGnNEHOh4FAFBQkpamkjQZT0IyVXuqrjRNs3Q/NROlJSGMXKnO/415R3/2r4Rw1tuUX9T+25V35Fl+VQh9y/VDOrVp/f7p9MJPCOhGFABAcROK76LX8O507vd7ou+3JReHcKY6+tU/FMLA2hDKw7UP1LH8ZSoKflnFwnNrTwDoVBQAQEEbfvbpKb1zxkISGo4ATFfScGQqDVXfcLfbDZwZwsrXhrDs23R0v0KtxmDtA3UMPyeEVd8fwtIX6vedk48czKFaTcPEZBomO/TqBKCXUQAAi+DQ4TTsOVDNioDuV/B8fqICwQXD6T+hIuDs2pP1ufN/encl7NXPqsElgAAWCQUAsAgOH0nD/kM+sq090Y08y79fR/8DZ+T7pyrpC2HJs/M5A54PMIdp/XwOjFXD+AS9P9BqFADAIpiYDOHQeKoOros7ttKoOvErQhj+lpMO5c/iSYClIe3M3cT4qH9yKi8EALQWBQDQjDStKtuVh5RDtWeP8gRAn9feP5aGfYeq2ZyArpOoeSirCHC8f6qylYf8+U790wdelfDgeDUc1NH/lH42dX86aXpQ2aI8oDSccAmgORQAQFNUAIT068p9euArAmap6DN8bnv3PnVyXXmE6468XOvMF1aloh/awWrYo0w3Xk1hr/Ip5QuKr7wAsIAoAIDmuNtyx/TPytN+4pk8CuBJgD6/PT5RDZPa76p1AapjIYypvhn7kvYP1548Bf47Vqe09UH7iZdB+O8/c0+CMf1cDitzXClxUPmi8hWFEQBggVEAAE3YsHFXVXkgJMlndaD8hLq2cWVWV+Yjf08IHDucFwJTKht86VtXcKd/eKvykPaP5B37KdHnTe9Wl/1k/vtqqvr97uyPTM4URb5Uss6XzVdQcsWxS/nqho07tynMEgAWGAUAMD/q+LM7RN6v1D1M9iiA73b31J5Kdjqgu2a8+3s9LqdSBFQnQtjz0RCe/nP95R+tPZlP9vOM/6d2V8PjOyrZ0X8DXl9BlUf2c/UoAIBFQAEAzM+Y4lMBHqp2MTCL5wJ4XYDsnPeBatir7f5D+SmBrjC9V38B/fUmtulBRUVA4zH7cGS7Pvfz6uk/nW8r+7Lhfnf8M+f8/TPw5EiPhjTg4X4XVPcodedXAJg/CgBgfg4on1XuVlwMNOQjYF8RsH1XJWzbPp11il3BpwGefJ+O6v9RHbqO7tPGPXc4qB/Ddn3umE/b53z649GnpsNjT1fCjj3V7JTISfi8weeUTyg+DQBgEcR2y66rldvz3aZ5WPLKfBfI3XXLWi9+/2PKy5UXK3MW12V9dO3KUlg+Wgol7Q8OJGF0SaLnO/gtOfqSEE57rVqNgfzqgKPNx3Ed+v5Phuq+u8L4+ESYODKZjX640Nm5N78S4hTGPO5VXFB9cMNbdngEADhVm5Ur8t2mXaNsynd7HwVAcRQAmEUFQJ82XvnmZ5T3Kn48J/f1ZfWj/X1JOG1ZKZxzejkM9nfwW9KrAWZ3+Zv5HmdqHHfrta49Vac/PZmNcuzaV8mW+s0nPuYfPgX/Vfk9ZUIFgOcCAKeKAqAgCoDiKADQkAqBF2pzdRpSv9Z8c3y9ybwyTmMeDRgeSrLRABcE/mSPBvi5ARUEfeVOfZsmoVK76dHhI9VsnoPnCLqzn1ne153/qcwbFB/5+735cXX8n86eAYqhACiIAqA4CgCc1J23rHmXDop/TrvqyrOF9EuuBLIPnoLTV5bCquWlMKLf7SLAsl/1i0cOZkqKZO7aYkHMrF2Qde7eVWb6dE/wm7nxkYf5PeR/SvLF/xxf3ndYf6+/0PYGdf51J1ICp4ACoKA5z1MCaNrfK/9Z8Up2XtGu0HD2gfF8suAjT1bCw49PZ9mm/Sd2VsK+Q77HQN4ht4L/HHf0nsD46NOV8I3t+feTfU/bK2G7vidf1VDw1sf+bF/i93nl3cr/VljsB2ihxT986CyMAKBl7rp57Spt3qh8p7JWOUNZp3edZ9AV1t8XwtBAElYsLYUVo/mpAU8gPJ7f0NlS/NnOzOP8JIT3Lasb9Iu3+Zo7M/vHnj+eO/aZAmD3/mp2h0Mv5dss/ZlParND2a3vzFdP/OmGjTuOLRgANIcRgIJm2oRYUACgZVQAeOj/HOV05TTl1cqb9K4b0bYwd+Ie/nch4ImDx3fqM1wQeE5Bnz7epzLDcwr69Ju8LdUKAXfoXo1wWlt35F6a1+vx+4ZF+cdqX6xmpjhwEeDOP7sLQv6hwtT5+6v/pfKPyi59R09p+6gKANb6x3xRABT0zPaj11EAoOXu+uPsCoERvdtequ2PqPP0yMCo8my9AT0q4HfigrwXXSC4CJjp/H1ZYb59RgGgHj3v/PMCwPsuCPyxbCRgAejL5F8pDTv164P6ow+k2ZLJ4cPKncrBqzbuPLZWMDA/FAAFLUij00UoANAWKgI8CXBYu8vVK65Tp3iRHr9Jb8BXZp+wQAXADHf02bb2S70vnvXOM730zHYBHf2SafiMfr1Z38OD+kZ2pGnqxZO8aFJVBcBC/7GIFwVAQfXahV5GAYC2u/OP1y7XZo3yMr0DL9O2HJL0Wdq+QFmlWqCpUwSdQEf4ntjnSY9fVPPitYOrenKrcpeH+zf87NOs7Y/FQgFQEAVAcRQAWDB3/skZnsY3EKqVDdq+XblUHaUnDGZ0tOyPJ8dd7tf296y+p+OP2lN9bz6vn1EB8IQ++JB235eWEzekU6968w6O8tEKFAAFUQAURwGABaUioKwC4GztfquyUgWATxW4o12mzXcoHiU4Qx3toJ+Xtr5vawWAL9l7RHlA+YK+Nx/1uwAY0wd9A58tKgC+qc7/aHEALDIKgIIoAIqjAEBL3HnzmtXavE55hXKhOtmjpwbU0fq9O6gdr807pAcuDmoLDh0bLigsTb3Wjzttr1vgCXoT+mLu7Kf0dbPOPO//s8l8X1K8bv8/XLVxly/tA9qJAqAgCoDiKADQEioA3Lmfq3i+wKj69aP3F1AB4P3ztXOBtuv1Rj5PW48iDKmjPvp5haWp79Xnzv1x5ZuKZ+/7XP4T+rrZQj21AsArAfiof7fyhAoALuNDu1EAFEQBUBwFANruzlvWuJO/QAXAhdperDfy+dp6zYGFKgAeUx7RE1+rFQCPb9i4i5X60MkoAAqiACiOAgAdQUXAkAoA34Fwid7IPgXgLNQpAA//K+lhfTEf3U+qAPChP9CpKAAwJxcA2fjlPOIXGQCgs7htrtdmF4n7iGj4EiMAABAZCgAAACJEAQAAQIQoAAAAiBAFAAAAEaIAAAAgQrEVAF7edL583TUAoLMsRNu8EH1E14itAHiqtp2Pi5TsZi0AgI7gNtlt83wtRB/RNWIrAJ6obeejrLASIAB0DrfJbpvnayH6iK4RWwHg25Qeznfn5cW1LQCg/RaiTXbf4D4CPexhpd4SkEWyQ/Ed2gAA7eW22G1yvba6SNw3RCXGqwAeqW3nwy+4W/JdAEAbuS1eiAOyhegb0OHeodSr/prJ9Upsd1QEgE7gttdtcL22uZm4b0CPe7ZS7x+/2fyrcoECAGgNt7lue+u1yc3GfUNUYj16/YrynHx3QYwpH1G+oHxe+ZpSUQAA8+cZ/pcqL1ReoHyfMqIslK8ql+W78Yi1AHiPckO+CwCI3I3KO/PdeMQ4CdA+pHjIBwAQN/cF7hOiE2sB8GXlg/kuACBi7gvcJ0Qn5hns5ysPKAPZIwBAbCaVS5Rt2aPIxDoCYP4HvznfBQBEyH1AlJ2/xX4N+2plq7IyewQAiMVeZb2yK3sUoZhHAMz/8D+qcMkeAMTDbb7b/mg7f1uIuyd1u68r+5Wrs0cAgF73y0r0E8EpAHL3KGcrz8seAQB61Z8p0V3zX0/scwCO16/8vfLd2SMAQK/5mPL9ylT2KHKMABxTVf6P4uUlv91PAAB6xu8rb1Kms0dgBKCBNyh/ogxmjwAA3eqI8tPKX2WPcBQFQGMvUT6gXJQ9AgB0m4eV1yufyx7hBLFfBjgXv2B8x8BfUKK+VAQAuozbbLfdbsPp/BtgDsDcPC/g35X3K75hhG9D6cmCAIDOc1j5XeU/KZ9W3IajAU4BFLNc8XoBvhf1NcoKBQDQPvuU25WPKJsUr+uCU0AB0Lw+5eXKy5SzlDOP265R+NkCwMLwCOxOZbvyxHFbH+V/SmFmf2Eh/D/EeFuBeck6vAAAAABJRU5ErkJggg==;" vertex="1" parent="Apy_nMzA6MKSCh_NEfZ--46">
          <mxGeometry x="74.5" y="33" width="102" height="102" as="geometry" />
        </mxCell>
        <mxCell id="Apy_nMzA6MKSCh_NEfZ--44" value="&lt;font size=&quot;1&quot; style=&quot;&quot;&gt;&lt;b style=&quot;font-size: 20px;&quot;&gt;Serveur Émetteur&lt;/b&gt;&lt;/font&gt;" style="text;html=1;strokeColor=none;fillColor=none;align=center;verticalAlign=middle;whiteSpace=wrap;rounded=0;" vertex="1" parent="Apy_nMzA6MKSCh_NEfZ--46">
          <mxGeometry width="251" height="30" as="geometry" />
        </mxCell>
        <mxCell id="Apy_nMzA6MKSCh_NEfZ--47" value="" style="group" vertex="1" connectable="0" parent="1">
          <mxGeometry x="233.5" y="740" width="276.5" height="135" as="geometry" />
        </mxCell>
        <mxCell id="Apy_nMzA6MKSCh_NEfZ--48" value="" style="shape=image;verticalLabelPosition=bottom;labelBackgroundColor=default;verticalAlign=top;aspect=fixed;imageAspect=0;image=data:image/png,iVBORw0KGgoAAAANSUhEUgAAAgAAAAIACAYAAAD0eNT6AAAAAXNSR0IArs4c6QAAAARnQU1BAACxjwv8YQUAAAAJcEhZcwAADsMAAA7DAcdvqGQAAEmOSURBVHhe7d0JgGVnXeb/99xbW1dVb+kl6SxkpZOQSCK7ymIHhETGfRzFBFQQpRUVRdQEnfE/QIK7/2HGBJcZlQRmlFERJS2SBFkiEUK6CUvSCXTI0kl636q6uqruPfM859zqJXVvdZ9bVXd7v5/k6XPurerq6up73/d33vOe9yQBzepTXq68TDlLOfO47RqFny0ALIxU2alsV544bvtp5VPKtIKC6KSKWa5crXyfco2yQgEAtM8+5XblI8omZb+CU0ABcGqWKb+m/JKyxE8AADrOYeUPld9WDvgJNFaubVFfv/Jzyt8qr6k9BgB0JrfRPi37ZmVCuU+pKqiDEYDGXqJ8QLkoewQA6DYPK69XPpc9wgkYAajvDcr/VdZmjwAA3eg0xQXAo8oWP4FjKABO5J/H7yq/o3iWPwCgu7kt/wFlqXKH4isKIJwCOMbnjv5e+e7sEQCg13xM+X5lKnsUOUYAjnm/8iP5LgCgBz1bWad8NHsUOQqA3C8qN+S7AIAe9jzFawfckz2KGKcAQni14mEhiiEAiENF8enej2ePIhV7AbBa2aqszB4BAGKxV1mv7MoeRSj2o94ble/MdwEAEfGqroOKlw+OUswjAOcrDygD2SMAQGwmlUuUbdmjyJRq2xi9S6HzB4B4uQ9wXxClWEcALle+pDAJEgDi5oWBnqt8OXsUkVhHAF6n0PkDANwXuE+ITqyd4FeU5+S7C2JM8b2ov6B8Xvma4stMAADz5wnrlyovVF6gfJ8yoiyUryqX5bvoZV4JykM+C5V/VS5QAACt4TbXbW+9NrnZuG9Aj3uHUu8fv5lcr3AqAQBaz22v2+B6bXMzcd+AHvcJpd4/ftH4dsEAgPZyW1yvjS4a9w3ocQ8r9f7xi2SHskYBALSX22K3yfXa6iJx34AeN67U+8cvkl9SAACdwW1yvba6SNw3RCW2ywBXKF7+cb6iv4sUAHSQhWiT3Te4j0CP8mUe9Sq/IplWhhUAQGdwm+y2uV6bXSRRXQoY2wjAGbXtfPg8UXRDRQDQwdwmL8Q5/IXoI7pGbAVAf207HxO1LQCgcyxE27wQfUTXiPlmQAAARIsCAACACFEAAAAQIQoAAAAiRAEAAECEKAAAAIgQBQAAABGK7Va2Vyu357tN26Jcme8uqLJylfLCWi5XoromFUBPmlK+rHy+ljuVirLQNitX5LtNu0bZlO+i17gAqLf8Y5H4RbbQLlH+Tan35xFCSC/FbZ3bvIXmtrnen1ck7iOiwSmA9tuo3Ke8JHsEAL3NbZ3bPLd9aCMKgPb6duW/K0PZIwCIg9s8t31uA9EmFADt47tX/aXCvwGAGLntcxvI3VXbhM6nfX5BuSjfBYAouQ10W4g2oABoH4a+AIC2sG0oANrn+bUtAMSMtrBNKADaY41yZr4LAFFzW+g2ES1GAdAeI7UtAIA2sS0oAAAAiBAFAAAAEaIAAAAgQhQAAABEiAIAAIAIUQAAABAhCgAAACKU1Lax8L2eb893m7ZFuTLfbdp5yrZ8t2mHlJfluwDQNp9WRvPdpp2vPJLvNm2zckW+27RrlE35LnqNC4B0nvGLbL5cANT72kWyTwGAdnNbVK+NKhK3ifPltrne1y4S9xHR4BQAAAARogAAACBCFAAAAESIAgAAgAhRAAAAECEKAAAAIkQBAABAhCgAAACIEAUAAAARogAAACBCFAAAAESIAgAAgAhRAAAAECEKAAAAIkQBAABAhJLaNha+1/Pt+W7TtihX5rtN872vt+W7TduvrMh3AfSAi5Tn13Kp0q/Mx4Ryv3Kv8gXlcWUx7FOW57tNO195JN9t2mbliny3adcom/Jd9BoXAOk84xfZfLkAqPe1i8RvOgDdb5Xyv5V67/OFSlV5nzKsLDS3RfX+zCJxmzhfbpvrfe0icR8RDU4BAED7+Ijzy8qPZI8Wj0d736p4BPOFfgKgAACA9rhY+b/KGdmj1vBphn9U1mSPEDUKAABovT7lr5Ql2aPWWqvcku8iZhQAANB6P6O8KN9tix9UXpvvIlYUAADQet9Z27ZTJ3wPaCMKAABoPV/q126d8D2gjSgAAKC1fM28r3tvt/muZ4IuRwEAAK01phzJd9tqb22LSFEAAEBrTStfynfbyisEImIUAADQep3Q+VIARI4CAABa7y8VL8/bLj4N8df5LmJFAQAArfc55ffy3bZ4hzLfG5Khy1EAAEB7/GelHXMB/lm5Od9FzCgAAKA9fCXAS5X3K74T3WLz5MN3Kd+bPUL0KAAAoH0OKm9Rvku5UzmgLLRdyj8pL1Y86jCpANktImPiez3fnu82zbfTnO8CGr739XzPv+1XVuS7AHqE2+T1yuVKv5+YhwnF7dVin+vfp3hxo/nwwkiP5LtN26xcke82zbdn3pTvote4APBQ23ziF9l8uQCo97WLxG86AGg3t0X12qgicZs4X26b633tInEfEQ1OAQAAECEKAAAAIkQBAABAhCgAAACIEAUAAAARogAAACBCFAAAAESIAgAAgAhRAAAAECEKAAAAIkQBAABAhCgAAACIEAUAAAARogAAACBCFAAAAEQoqW1j4Xs9357vNm2LcmW+2zTf+3pbvtu0SeV/5bsA0DY/qQzku007X3kk323aZuWKfLdp1yib8t3eRwFQXKcUAADQKygA2oBTAAAARIgCAACACFEAAAAQIQoAAAAiRAEAAECEKAAAAIgQBQAAABGiAAAAIEIUAAAARIgCAACACFEAAAAQIQoAAAAiRAEAAECEKAAAAIgQBQAAABFKattYXK3cnu82bYtyZb7btPOUbflu0yaU/y/fBYC2+S/KUL7btPOVR/Ldpm1Wrsh3m3aNsinfRa9xAZDOM36RzZcLgHpfu0j2KQDQbm6L6rVRReI2cb7cNtf72kXiPiIanAIAACBCFAAAAESIAgAAgAhRAAAAECEKAAAAIkQBAABAhCgAAACIEAUAAAARogAAACBCFAAAAESIAgAAgAhRAAAAECEKAAAAIkQBAABAhCgAAACIUFLbxsL3er49323aFuXKfLdpvvf1tny3afuVFfkugB6xSnmBcrnS7yfmYUJxe3WvcsBPLJJ9yvJ8t2nnK4/ku03brFyR7zbtGmVTvote4wIgnWf8IpsvFwD1vnaR+E0HoDe8Ufm6Uu+9Pt9UlS8r36MsBrdF9f7cInGbOF9um+t97SJxHxENTgEAQPucrXhU8s+VC/zEIvBI72XKPyh/paxUAAoAAGgTD5vfrbTyqPP1yr8ofdkjRI0CAADa4w+Vc/Ldlnq+ckO+i5hRAABA63my2U/mu23xG8q35LuIFQUAALTeD9e27eIrDH4g30WsKAAAoPWeV9u2Uyd8D2gjCgAAaK0hxbPy281zARAxCgAAaK2y0glt70Bti0hRAABAa40pW/PdtvpibYtIUQAAQOt5ed5264TvAW1EAQAArfdPtW27eNnbj+W7iBUFAAC03oeUdhYBf6x4FUJEjAIAANrjzcqefLelfNOhX8t3ETMKAABojyeVVylfyR61xmeUVyueiIjIUQAAQPvcp/h6/N9Wpv3EIhlXfkV5hfINPwH4NpEx8V23fOvN+diiXJnvNs33vt6W7zZtv7Ii3wXQA7xA0BWKC4JLFS/XOx8Tyv2KZ/t7lGFKWQz7FN/ZcD7OVx7Jd5u2WfHPbz58j4ZN+S56jQsAz36dT/wimy8XAPW+dpH4TQcA7ea2qF4bVSRuE+fLbXO9r10krbw1c9txCgAAgAhRAAAAECEKAAAAIkQBAABAhCgAAACIEAUAAAARogAAACBCFAAAAESIAgAAgAhRAAAAECEKAAAAIkQBAABAhCgAAACIEAUAAAARogAAACBCSW0bC9/r+fZ8t2lblCvz3ab53tfb8t2mjStvyncBoG3+XBnOd5t2vvJIvtu0zcoV+W7TrlE25bu9jwKguE4pAACgV1AAtAGnAAAAiBAFAAAAEaIAAAAgQhQAAABEiAIAAIAIUQAAABAhCgAAACJEAQAAQIQoAAAAiBAFAAAAEaIAAAAgQhQAAABEiAIAAIAIUQAAABAhCgAAACKU1LaxuFq5Pd9t2hblyny3aecp2/Ldpk0rd+S7ANA2r1T68t2mna88ku82bbNyRb7btGuUTfkueo0LgHSe8YtsvlwA1PvaRbJPAYB2c1tUr40qEreJ8+W2ud7XLhL3EdHgFAAAABGiAAAAIEIUAAAARIgCAACACFEAAAAQIQoAAAAiRAEAAECEKAAAAIgQBQAAABGiAAAAIEIUAAAARIgCAACACFEAAAAQIQoAAAAiRAEAAECEkto2Fr7X8+35btO2KFfmu03zva+35btN26+syHcB9JBB5SKlP3vUvAnlYWU6e7R49inL892mna88ku82bbNyRb7btGuUTfkueo0LgHSe8YtsvlwA1PvaReI3HYDecKnyZ8p9yqRS7z3fTA4rn1Pep5ylLAa3RfX+7CJxmzhfbpvrfe0icR8RDU4BAED7uA1+u/JF5U2KRxfne+R/vCHlxcpblS8rr1eADAUAALSHT8F+VPk9xR31YvMpw79Sbs4eIXoUAADQHr+ofHe+21JvUb4/30XMKAAAoPUuUW7Kd9viT5S1+S5iRQEAAK23UWnFsH8ja5Rr813EigIAAFrvebVtO3XC94A2ogAAgNZyuzvftUQWAgVA5CgAAKC1PBt/NN9tq3NqW0SKAgAAWmuPsj3fbav7a1tEigIAAFrv3tq2nTrhe0AbUQAAQOvdXdu2Uyd8D2gjCgAAaL3/pvhGPe3yGeWv813EigIAAFpvXPlxpZo9aq0x5SeUdvzZ6CAUAADQHh6C9016fNveVvGd+3xDoK9njxA1CgAAaB/fmOdbFd+yd7F9TLlc+bvsEaLnu1HFxPd6vj3fbdoWZb6LePje19vy3abtV3w9MYDuV1auUl5Yizvq+d4W2CMLbq8+r7jA8Hn/xeBRheX5btPOVx7Jd5u2Wbki323aNcqmfBe9xgVAOs/4RTZfLgDqfe0i8ZsOANrNbVG9NqpI3CbOl9vmel+7SNxHRINTAAAARIgCAACACFEAAAAQIQoAAAAiRAEAAECEKAAAAIgQBQAAABGiAAAAIEIUAAAARIgCAACACFEAAAAQIQoAAAAiRAEAAECEKAAAAIgQBQAAABFKattY+F7Pt+e7TduiXJnvNs33vt6W7zbtgHJuvgsAbfNNZVm+27TzlUfy3aZtVq7Id5t2jbIp3+19FADFdUoBAAC9ggKgDTgFAABAhCgAAACIEAUAAAARogAAACBCFAAAAESIAgAAgAhRAAAAECEKgPaYqG0BALSJbUEB0B5PKbvyXQCImttCt4loMQqA9rm3tgWAmNEWtgkFQPt8vrYFgJjRFrYJBUD7/JHCsBeAmLkNdFuINqAAaJ/dyk/nuwAQJbeBbgvRBhQA7fVR5b1Kmj0CgDi4zXPb5zYQbUIB0H7XK69WHsseAUBvc1vnNs9tH9qIAqAzfEK5XPl55S+U+5VpBQC6ndsyt2lu29zGua1zmwe01NWKh57mk80KAKCzuG2u12YXifuIaDACAABAhCgAAACIEAUAAAARogAAACBCFAAAAESIAgAAgAhRAAAAECEKAAAAIkQBAABAhCgAAACIEAUAAAARogAAACBCFAAAAESIAgAAgAhRAAAAECEKAAAAIkQBAABAhCgAAACIEAUAAAARogAAACBCFAAAAESIAgAAgAhRAAAAECEKAAAAIkQBAABAhCgAAACIEAUAAAARogAAACBCFAAAAESIAgAAgAgltW0srlZuz3ebtkW5Mt8FFsbF195U1qY/Demgtk6/MqD06V3qj2mTLPz7NU1T/VpRppUp/flT3ioTpaQ86Y89cOuv+3OATrdZuSLfbdo1yqZ8t/dRABRHAYAFpwJgqTZnqAM+V1vnTD9WVutdOqpteZEKAHf8Y8oeZYf+/Ke1dR5WAfC4tgdUALgQADodBUBBFADFUQCgkGe/ITu6Hw7V1B36eXrTze7M0zBTAJyj7UwBcLqy2AWAj/ZdAOxVVACEHXpSBUDyjSRJsgJAyQqAfLAg23PRMK5s3XrbO3dmTwHtRwFQEAVAcRQAKEQFwIg2Z6sAeI22P6433UidAmDmFICH/R2fAnBadQrAmdKD7FSAckQFgLd+vqocXwC48/+m8gcqAD6VPQW0HwVAQRQAxVEAoKH1193ko/bzlLP15vK++vYwpM0q7fl1s0EZWpTOfJGpAJipAI7okY78k4+qSPiKn9CHntLmYeXJrbfdwKgA2oECoCCuAgAWljv/1yq/rPxRLb+t/KriEQAXA91uUJ3/2dr+tDLzd3yb8grFpzAAdAFGAIpjBABHrb/2Rh3Zh6u8q4zqwN4d4IXKuXpzrdM2CmmabtfmAeXxJCQ+PfBPA2n4orbT93/w+pmRA2AxMQJQEAVAcRQAkbvk9TclaZqNni1Tx/ccbX9eebmyOkkSn7dfZLW37dF378nexrX+92g3vMj9cZpNHHxPEtIP608ad/T40NbbbsjmEgCLhAKgIE4BAMX5On0f+b9e+Q3lxcpyJZustygSvVVL5ZCU+0PS1x9K/YPKklAaGA7lwZHQNzSqLA19S/KU9bg8NJJ9rDwwkn9u/1Ao9Q3kX6PUl3/NxbFE+RH19u9W5/927bvw9pUMADoIIwDFMQIQqUtf/273mP3VtHSh3jqXaf9Nis/rNyVRh5516u6IszmBSf03pD+m5J/nQqCkfT/n3zvzvLf518iP79N81v7RVLVRl5xt9bjqbSX/mH+HN8c59tAf0+f686v+/FM/iNef4yN/X0r4WeXDyle33nbDI9oCi4ERgILqtjc9jAIATVMBMKzNChUAr9Nb58e172v1PRLQhKR2hD6so/LB7Ig8Ucfujrwxd/r5Nt8c/7kzH6s52oMf17Nnnb2fcaee7zVyrHiohmplKlQnD4eK4u2p0tfwJYRHFK8x4DkCH1AB8D5tgcVAAVDQ8U1GDCgA0LSLr7vxEm084e+1eut8d/bkyahjL5WVvgH9FnXwM9R5lwdmhuU9JF/OPp4fxbdX1vnne+r/HRUAU5PKhOL+PP+Y910c6Jfac/Xp63nYwJ+0SS3OB7W9d+utNzzkjwELiAKgoONaJACNPOeHf8tj65dr95cUFwEnp87cHX95ybIwsHxtGFq57lhWnBH6R1aE8uCS7Jz8CcVBmx0rQpJsVMIjFJ5jMLB01dHvf3D56dk8g9Kpfe/+gn2K10D4XeWlCoA2YwSgOEYAIrP+x95zljavVs/oo4Nr1EE2nNCWuMPXkX02pK8jf8cdaHlgKKwYHQrrViwJA335kf5ju8fCnkPducy+5wRUJsezUQDPDahqf/rwIX8k/4Q6PJagjVca/KBKi7/T9gsP3nq9Tw0AC4ERgIIYAQDmcPG1N3l23TnKm/XwBxUv61ufjoTL/Ut0ZL8yDCxbraPktWFk+aowunRZGB4ayDr/K889LbzowtXKqnD2aSNheKCcZVBFQTfxyMDMqID/nn3DK1Ts+DRG42MKjyco/cq36eEPKywaBLQRIwDFMQIQiazzD2FUR67foe27lef5eR29z3rf+Fx+3/Dy2nl9T+orhxF1+i9UZ79+3bJw2uigMhBWa9tX9ghACDv2T4R941PZOfcHnzwQPv6l7eHAYS+/3308EuARgemJsVA5Mh5Szw2of8WAhwj2K19T/ot+lHc88IFfP/VLC4DGGAEoiBEAoAF1/L45zwXavVQZdcdv2QeP0vFsuT+bze9z+r4G3+f93fmfoSP+51+wKnzXt5wZXvutZ4erLlsXnnvuaeE5Z68Il561IrziOWeE733+2eE/KK+49PRw8ZnLwioVCd3IRY9HPvqWLKtd2fCMSY/H+Oe3Qj/Xc5RLq2n1gvXX3dgLyyMDXYcCAGjMw/0/oMxc8jeLz/H3j56WdX7Z4jo1560ZDS+6aHW4WEf/a5cPZef9Gymrprjw9KXh9S+9IHz7+rW1Z7uTJzUO6OfhCYKeD9GgCDBfPvlGxfcTyG6aBKC1KACARpLQr1ykXKbUnfjnRXiyYX/l+PPf564ZCS/Q0f9Zpw2HkcG+UC7NOmuQ8YCCs3JkIDz33JXhnNWNpxh0A18VUBoYUiGQr0KYXd5Yn4/6fVWFh2yXXnzdjfV/QAAWDQUA0Jg7JfdgDXoxfdid/nEd/4xzV4+G55+/Kqwa9arBJ+cCYUl/Xxgo98JbMgl9QyOhf3hZdnpkDv7Lzvx8aYuAFuNNBzSgY/OZ/7Lj9NrTR/lctyf+ZZf7ZZ9x7FMG+8thdKg/m/B3Kvx7SyoC/PuWDvWF/i4uBLKfhY78ffljvydGDi3Vkyf+fY7+TNOwTvneNA3ftv7aGxsOFwBYeBQAQDPUd3nC38DoynzC2wLx5YArhgdUCHT/WzObH7F0VTY5svGpgOQ85c3KNUp3zoAEuhQFANAsFQHq5byTP14A05U0jE9Wsm3P8M+pMXf6KxTuFgi0GAUAUMfF1763HFJ1Tvl9/+tLSvq/8fr9vr7/2Lr6p2a6Wg2HJ6dVAHT/pfH5IH8tDW50pKf6lKXKEn9a7WkALUABANTno1IvAdzctPys86/tF1CppuHIdDXb9gpfHpndN6Cfy/2BTkIBANSh7nu5uuB1ypLaU4U8vmc83P/Y3rB37NTW+j94eCp8/emD4al9h7POv3e6fxUAZRUAgyMLOlcCwPxRAAD1JOlS5XSlqQLgU197OvzZnQ+Fh586WHtmbk+oYPiHex8L9z2yp/ZM78hGALxWAgUA0FEoAID6fAG/J6YdW96vgF0Hj4SvPbE/KwTu3roj7BubrDsn4NDEVNisTv/uh3Zm2+17D9c+0kN8ct9XATReFRBAG/COBOpzx+9D1qauTXc37xv7/ON9j4UPf+6b4en9h+vOCfDtgD9+//Zw++YnslMA+8e78/bAJ8f8PqDTUAAAjc2r13J/f3iyknXsf6Mi4P13bA3v/8TWcMu/PHg0H7p7W9jyzb1h18GJMFWp9tS5fwCdjQIAaGzeh62ezL993+HwkXsfC//zkw+HP39GPnzPN8PWJw+EQxPT2ecCQKtQAAAAECEKAKAZOlpPpydD5ch4Z2bycKhOHQlptVL7hgHgRLHNzLlauT3fbdoW5cp8F71q/XU3frs2Vyk/kITkedmTz+D73ZdKTV0kcCK/Cxdy+N9fLymHUv9gtg6/L8Frp+zKB2Xy4K4wuf/p2rOz/KnytgdvvX48fwgUtlnx7aXn4xplU77b+xgBAJqUjQBM+mh7nsmO2Bcw2SjAWJbq5ESo6vtM0+5fWhjAwqIAAHqROvx0eipM104HhCoFAIATUQAA9U0rE0rXnkT3UX91+kg+F6DeIgQAokYBANSVTCpjiguB7qRO36cpHD3InwOAGgoAoL7HFU8q6r3F+QFAKACAOrbeev2uJISHHB07b1N26IB6r7Kvw3JQ6d5RCgBtw2WAxXEZYCQuvu4m3wvgOer8n6vti0IaztC2X+mk980K5bIkCaflD4+XZLfi7RsaDQPL17btbnxcBogW4TLAgigAiqMAiMz6625ao81LOrQAeJbyH1UAXJA/PB4FAKJCAVAQBUBxFACRUQHg1X5GVQC48++002Zu8N6tAuCF+cPjUQAgKhQABVEAFEcBgI5x8XU3vUCbP1K+I3viBBQAiAoFQEFMAgQAIEKMABTHCEAHu/i6G1dpc45ykXK+MqDjz5mhe7/eEx0Xa9Mz1imvVs7OHp2AEQBEhRGAgigAiqMA6BDq7JfoJew73ZSV2mhW6k7/W5WXKy9RRtT9DGnr8/hZEdBjBYD/Msf9/Y9HAYCoUAAUxCkAdKVLr3uPOz538m9T3qP4PLjzG8oblBcrq5WligsAjwK4CHBn2WuJrZAHsAAYASiOEYA2ufjaG5dr46HuYb1yfTj7A3oJv6b2nK+HxwkYAUBUGAEoiBEAdJNLlF9W3qv8vvJDynnKiIKGGCAAMBsFADraRde+d+TZ19507vprb/KR/vcpL1Neok7txYo7/1HFw/t4piTRUf9gSPp15K99ADgeBQA6ljp/vz59Ht/Xuv+KslFxp+9z+jiJpFQK5cFhZUT9v6cKAMAxzAEojjkALbD+2hsv08Y/5wv1MvX+d+gg9ix/DCdX6l+Sdf59S5ZqfyibC5C0aRSg2TkAd92y1vM6fE7XRd9axZM4F1Yaqvq1kob0G2oN79f+zqvesnNf9jF0G+YAFEQBUBwFwCK6+LqbfNTfr07jddr+uLJeHdeZ/tjJ1V7O0Y92J6F/9DR1/svV+Q+Ekjr/dppHAeC1HN6ovFLxDZkWfuQnv5PipAqAj+vHdpv2v6qXzze0rTgb3rLTBQK6AwVAQRQAxVEALCIVAJdr8xp1Gi/V1uvbr1ABcNJJfkm5P5SHRrOZ7kmprCfirgJK/YPq+POfhU8FtNM8CgB3+r+peN6HTwUt/HmMfASgqgLgUbWGD2l/r14527W9W/GIwGMqAg5ri85HAVAQBUBxFACLYP11N/ow1R39a5VfTELiBX18F76Gso7eHZz+Kw0Mhv6RlbXh7v62DXdjtnkUAC4AvbbDt2dPtEy6V7/8nb7lT2n7Nb3SHtP2qas27tBfBB2MAqAgJgGiU/h874sUN/q+xe0yZU7lJUvD4IozwuDKdWFg6RoVAUuyc93APLkQvUp5q+JFpnw6iomn6DkUAOgUKxUf6T2vtj+o1JUP9y8NfYqH/bMMDodSduRf4ugf85T4usnzlOcrG/SE77Xw2rtuWfvs7MNAj6AAQNs9/6d/y122b+LzCsUFwJzX9bvDH9JRvwsAd/jAIvIL7NuU31Z8ChHoGbSeaKuLr7tx5ND4gBvW/6Qi4KIkJKPK7NelSoSkfzD0jayoXdo2GJJyOTva54g/PvqnD6ctS8K61aVTzhmrSuH000ph1fJSWD6ShEGVmXPNj6y9tJxlygVpCK+585a1P6VcXPsUoKtRAKDNEp/7/wnlF7Tv2/jWoQ4+KYfywHAYXH66CoCTTg9AjxvoC+rUy+HCs049F5xZDuetK4ezVAy4CFgymIQ+tYAFykcXqjcqnqcCdD0KALTNJa9/r8/1n60meDTr4RvwkX6/jvz7h5fnl7VxxA9f+aGXQUm/nGrK5ST09yVheKgUVi4thTPXuCDoCxeoODh9ZSkMqqgoz90ilkKaLlG+884/XvP9yum154GuRAGAtknTdJ02z1Ea38lPHb4v7esfXpYN/WeX/gHiQrBUIGUVAX0qAoZ05L90pBTWrixnRcA5p/eFNSoARpbkpwX69BLTp8/icShtPDn1JYpHA+a8TBXodBQAaJs0hJcpP6V4xbfZ1Ar7qH9g2ZqQ9DW8KACYt9HhUlYIuCBYs6IUBhvfOdkV6FkqBS5QRv/1ljUMR6FrUQCg5S768d9JFL/23PF7hnWdIylPBSzn69l7hT+u78ciGhpIwsplpXCa4u3IkE8X5If8x0uSpKR4xMr3J3hBJQ2X3HnzGqpTdCUKALSDj6LcaDY+718qZdf717sgAFgsgyoElg4nYfloKYwu8byB2gdm8/0pfkZ5g7LcTwDdhtYVLZdUKs9SfH//831etXZu9QQ+7983vCxb2x9oFc8TGOhLwrKRUpbGBUCyRLlYOV+Zc90KoFNRAKAdvkX5WcWL/tTlof+B0VVZIQC0ktcGWFYbBehTQdCAP+DzUk7DTwI6GQUAWk6t5QplvXZ9GWAD+RwALvnrFd1zH53s6gJ1/EsGvdZAKaxa5tWAah+s0WN/mp5NL1J+8s6b1/julUBXoQBAy6nVHFHOVJbWnnoGvSzp+NFmnhh45upytmhQ44GAbCLrm5WXZ4+ALkIBgI6S3+hnhHP/vSRNveZDtu02rkNPMgrlF6pHsoazR0AXoQBAS134o+8uqTNo+Lrz7Xx9sx8KgN6RptVQnToS0sp07ZnukI3xK14YyKMB3j6TPt6v+P4VSz558+l9CkNX6BoUAGgZdf5uQj2rr19FQN2G0rf07fMIQD+XVvcKd/5Th/aE6SNjtWfmr5W97JKhJLuR0OjwnH+qrwQYrW2BrkABgJYplZM1im/5e5lSvzVNSvl9/Vnyt3dUK6E6eTik05O1J+avlScTBvuTsGJpKSwZmKsASM9MQ/VFCvcHQNegAEArPVt5q3KNun9ee5FI/V9azfa6kYf+h7OVAeccAbhE+TGFWwWja9AIo2V8nlQ5W7uru7QvQAGe+FetTIe0WvGj/Mln0OfsVu5Wvqr4EzN33LK6rLKhT2l7G+V5AF4gaO65gOEM5fkKNwhC16AAQCsdnQOQPUJvmykAPPmv8RUATysfU/5dyWYJqvN3V+vXiGeCzt3tttCc30iSrFIuUU6rPQN0PAoAdAbPuO7rz3KyQy10h7Q6HSrj+8P04YO1UwB17Ve+pGxTap/kF0CyTDu+vK5jisWZ+wT0Mz0FPYICAC0zc1mVkqk9nfPkv77BbAIgutvM0H91aiJMTxwM1cnxWSMA+coA6ZQOq/cpX9962w1PKtkn6RVSVs7Q3jlKx6wF7QJg+Ugp9PdToKI3UACgI2S3/vXlfwO+xwoNbFdT1z49vi9MHtwVqo1n/nu4f2ctU37iOL4G1LeJfrWy2k90At8dcPWKk10NAHQPCgC0xPrr3lXSEZ8ndtVtPV0AlPqGagsA0cB2K3f4lSOHwvThQ6EyMZZdAtjAuHKfcq9yyE8cx8NAnk1/hbLUT3SCAR35j6gI6PPtf+pQ3ZMoZ91589pLlY75voFGKACw6Nz5a+Ojujl79/zmP7wku9n0xKFwZN+OUPGw/9x87v/vlQ8ru/zEcfwi8GS6tUo3rQjl7/tlyuuUc/0E0MlobbHo0rTUr6wNqRr0tNGkLtUF2dwvjv67SXYmX0f5lcnDYWpsbzbhz+f+Gx356/Nti14H/6Tct/XWG7YrR08B/Osta/QKSPsUD7QPKrPaqH4dgftOfeXObL0uUHw54Bx3ugQ6AwUAWsFHcecpPiqqu8i/u/2ZeYHPnB+IDqYCoFqdzo/89z4VKioA9GT+sfr8wX/R5v3Kw/lTJ/Acew+yN2yblqgs8Pn4emvzt1PtVeuVAF0EeFlgoKNRAKAFEl/bt047zpzT/On8O1darYbq9FR2lD95YFc4sn+H8nSY0r47/rkW/Mmk6Q79ukV5UHlMOaycoJqGDfoSv6JcXnvqBH55+FK805aVTrYy36LxrYFLDVpOf0gpK+355oACKACw6NRoDyjr1CSeoURxnV+aDY1Xs07RC+HMlZnFcjo91cpUNskvKwAO7VYRsDNMHdyV3einkt3op0Hnnwb9ILKZ/k+oV/w35eGtt71zj3L0EoG7bl6TKH5tvEKvmJ9TLs0/MtvIUCmsWFrOJuW1mgsQjzwM9OU9/QmSo/95H+h4sb1Mr1Zuz3eb5iOYK/NdnIr11914jjY/o7xGuVQt5IifP155YDgMnnamtktqz3S3ytSRUJ2aDNXJsbkuhesuLmo85K+/T6piQNVN7QMnkYYD+vVJ7fi999fKtgdvu+Epf2iGOn+fM/cI0S+qWfopbWe60hO4073o7L5w5pr2jP9XqmnYe6Aa9ii7lSP1/2kfUt624S07vMIhWmez4itH5uMaZVO+2/sYAUAr+JyuG/gVSk+uo5ZNhJuayCbDVY6MZ/EiOFPjB8K0V8PrhRw+ECr6O6XTR06p81etMKE8lobwJeWz6tM/rY7/357Z+dd4Lf2XKs9St1+q1/n7qNvn/j0JsF1cgIwMJWHZSCn0eaAf6GIUAGgFv848KcrpyQIgu+f9wV3hyL6nwsTeJ7P9ijrM7Eg5XruVjyg3K/9DURHQ0HOUNyueQV/X8tFSOO/Mctb5tlNfX16EzDoFAHQZCgC0gC/uT4YVL/PXE685D4V7mN+z37Oj/MMHtT+WnQv30re+FK7QMHmP0JH+tHJQ+Tc9/Dvl48rdyv0P3na9b/xzgjtvXrNWeXVIklcplyt176bnc+9Dg3kR0N/mWSSeAFj2YsUNCgC9NsrKMv29nJ4seNEbKADQCn6d+VJAr+veM8dNHuafPLg7TO5/KpsUl/pcvwqDyB1RvLzvXyjvUu5UHt962/WNhkK84t+vKz+q1L9EVK8YX/Nf0iG3j7rb/QLy9+DvZ47vwyWKT2mc9KoXoJ0oANACXv437VN0NFR/KeBuKguyjv/AzuycuI/0fWlco4Vvel6a7lfuU/5W+X0984fKLcrn1OnvUMaU7Da/x7vrltUr7rp5zQ9q9/WKh/89P6Rue+Tr/tetKoUVIz7qztMup/jnu5A5Szlb6aaVDBGZLmp2FwRXAbTBxdfdeKkOjN0xvDpvO2e3oOXBkTC4cl1HXgXg4f7jufOf3D9rNLsh/f6ZL5Dqr55VCvoB9MZQQZp+U7961vS/KB9/8LYbPAJQly/1028olUKlVE36LtRTKhiS784/2tjalaVw4dl9YbCD7sJ3cLwaHn5sOuwfm/3PqH/uPdr41Id/Lh+7auNOj4hg8XEVQEGd845qDQqANlh/7Y2XaOOjw+9S+nQEVacAGFYB0JmXAc70357h79nw+Xn+WWvYNKTf74kA7vi36B2njiHZox+AL5zvfmnqpf8eVbywz6MqABpOelAB4PeNZ/p7PYjztf0O/Swarpk/2B+yu+950Z8Vo6XsvHunOEkB4Mse71H+WfmQCoDtfh6LjgKgIAqA4igAClIB4PO8v6349q6D6v9nDfV24joAR5t2r4BXmQ7Th/dnR/+nMtyvTmCvNu4IfO7b8eS4O6pJ+NOQJE98/QPX+2Y4Pe3Om9f4gr1lyrAypMbG60D8iHKBfgYeIm/Ii+0sG0nCs84oh6XDpfzc/8mH3lvmJAWAi7sHFI8C3KICwAUSFh8FQEHMAUAr+KjQh8xO102Lr1Yms8v6psf2ZcXAKfpX5XeU65VfUn5F+UvFR8onvVVej/Ad/V6lvFXxz+KNikeD/HxDnmXvo/61K8thaCDv/LuMZ/678Fle2wc6EiMAxTECUND6a2/0zVFuUDwCcLqO5GbN9u7IEYBUR/7ZpX5jYWpmln8jaZjQrz7i9+SA7WlIfQmcz4vv2HrbDc+83/0sd/zxGneK5+ogd1Tx1RLSBW/P2gGwNvk3e9zVcToS9u18NyjPUy7Wv3vt79XYkF4Zw0NJ1vkvH02y5X7LHVgBnGQEwCM+XgPB//7/9aqNO+vd9AgLjxGAgigAiqMAKEgFgM/z+ijYBcB56ghm9fKdWAB42D+b7T++P1sL/2hvV0+adfxfVTzs+xEVAL7HfXYKQAXAnMMGH/tvF5UG+/a/QLtvUO+5XvEd5fTePNqXdq4TCwCv4Ff7P+sIfQmcj4S99PNQvVM/z+TZ/mesKofBAXX+fflPoJOG/mecpADwOSKP8rgAuEEFgG9+hMVHAVBQ572zFhcFQBtcfO2NPt/7JsXngJ+rFn3WrVI7rQDIlvT1Pe4P7c0W9mlEzb/P5W/Wzpe1fUBvqC9oe8+Dt10/q2f45J+u9futlE6nz9XWr6G+NF8YSUkv0vYq5Sz1d74kLuv6tO1sxwoAO6EAKMJH/T7nv2pZKaxcWspOA/i6/051kgLABZ+Hiz6hvEMFgOcDYPFRABR00oocWAA+fPYRsTPrmvBO5Jn+Uwd3Z6cATsJ/pw+pz/sD5c+1/+/1Ov8a92ieGOdCyOfE9XvC/6/8kfLziguD1Yo/x+eOa8VBl2Qe/bU7/wvP6stm/Zf1N++C0mcu/u49+uF/x+7+m6Cn+Y0LLCr1hpPKE8p279ee7kg6estTrQTf/naOpXx9nvcf1Lq7A79HPdZO5Yg6/1m/4c6b15yj/GR1Ov3NaiX16ni+9n2pskQd3aAykCRJv4fIFX3JmWSdR2en9p++26PfuJ4/KR/cjyxJwhp1+OeeUda2XOv4Z77YKX0ZAPNAAYBWcKf/RC3uOBuodb5H181pA0/8U8efnfPPLver972kvh3eXmWTuqn/pTfR/Vtv/bWDygmd/523rC0pHs6/TPkx5Rf05d6u3u1lyqAS1Qxxd+ke2vclfj7H75v6rFlZDmetLYdVyz3bv6c6fb9w2vhCBk6OAgAtkKjDTB5VHlPqjgBkrWUHNJfZMr/7nspu8jOHrco/1Lae/d9omMAz+33p29sVFwGeDBftoe3gQAgrR5Nwtjr8C84qhzNWlcLS4ST09V4r5FeyC12HIgAdiwIAi85rwfdPDu5Wz+c0mAOgdtLD7Y2H3FuiOj0ZpscP1L3kLz0qfF0PPdv/kQduvX5aOaGRv+O/ryvdefNar3TnVe++J0mSVynrFC+C1NMFgP92PsL35Xwe4ncH7/P7jlfz8/X9q3W07yH/5SOlbJ3/Tp7s1yS/iL3mxVzFIdB2FABoia/8zS97PL1xY1g7756e+kI77eCO3t/gI4oX+pm1xKs6fw/rewKYb3TzW8p8ZyV3Fd8nf2QohDUrS+FZp+tI/8y+cNHZec7R41UrSmFInX6P82vEQ0heJvnky0YCbdLz78Rn4DLANrr4upt8iY1nvK/PnjhO0jcQ+oaXh76h0ey+AKdwyfiC8jl/z/ifGt+fLfpTjw793fF/XqXK3zx02zv/Jn/2RDry97LHL1Zep6Nhv97m5KNlHykP9OWz6Lqdr9334j2jOvL3pX395WNH+L009jH3ZYDZ0b8X//Eo0fuu2rjDN0zC4uMywIIoAIqjAGjSXAWAL4cv1YqAgaWr9LC18+N87t+X/VUmx7PTAPWo4/9bNffv1PbRh299Z93FAVQAeL2D9yjL1OGddFEDd5KeBe8h8mzFuy5/R/rbd0fvHBvZz3ciKgB85H+f4gLgL1QAePIrFh8FQEGcAkDLqOOc+c8D/ie2nHp4dPZ9G2TL/qrj9+p/cziiPmx3vc7/rlvWXqRsVCf3fcpqpWHnP6ojfk+A82S4M1eXsqNl3+rWw+ceCejm9Ct9Oup3MePpDnl6q/M/qSSdVnYoTytzXPUCtBcFAFpGPb57fZ8fnX3Y5KeyOQCV/LNazSVJ9mfPnoPg70xRQ55U1J3Vnj3mrpvXlPX7L1U82/97lLrDF/6dPipe5pnw+i0+8j97bV8YGfLKd3lnic7n8nVOqV4raXhK2Z7tAx2KAgCt5LF1n2D3EGk32afcrdynpv+EpQHV+XtZY9/s5luVOYf8l44k2eVvvtGNr4Mv8+7rOjOdvzdzlAF+jfhKEcfzAYCORBOEFkr2K19WvCZA7bn2yk9GnPSIbr9yj3K/8swJAr62//mKCwDf934WH/X7srjlo/mNbnw5nIfKe/Dytyh4OKg652sm8WjRdv3LP6HUn1ACdAAKALSSj4j+RPFd0jro8qhsXkL2XwO+q58nGPmmLs8c0l2qvER5keJiYBZf9ubz/WtX5je5QXebrqRhygtFNq4BfB7JawBMXLXx6dnnlIAOQXOElnno1uv3LUn6Nuu4d1ujY1/fSbU6feRkk/EWVLb2wNzrD3hI19f879h62/VHC5e7bl7jI/41yrkhSc5UfP3/CXyZ3/BQfvTvy/045u9uPvAfO5yGA2PVMD1dvwJIkpAq0+r82zOjFThFFABoqS994B3uaZ26rWc6PRWmJw6G6pQPoFrApwC8BoALjsbDuv5+/Q0dHc5V5+++3Hfu862O65779wi/L/MbUVwI0Pl3Px/17z1YDTv2VsMk0/vQ5SgA0FHcGVcmxuouxbtYstu3Z7P/5zyiS3X0f/wn+FavXvDnPyhn+Iln8nC/l8L10b8vjZu5LA7dyzWih//d+dc5BeBn6r+IgA5EAYCOklZVABzxYjytOrxSe+1RAJ8CKNJ0J4kLgFcqb9D+udlzz+BZ/p7wt3JpPukPvcFFQOPBIqB7UACg9fJZ9V9X9tae6U5zHNJ7+N8FgD/KUX8k8nmkm5V/Vp6sPQt0LAoAtJwOnnYpm5UdtadmS6v6v5IPz3chr+rnO91xrX/vqFTTMF2pO/R/vPtV8n1CafzaBjoEzRPa4avK/1TUWNaX3Zb38MFsUmA3WrG0FM5cXQ7DQ7zFeoVn/+/aVwkTRxpWAP6AL3W9V9njJ4BORuuEltMx/ZOKV9Z7PH9mNl8KOD1xKPj+AJ3mk3+y1u8bzwFo+P4Z1tH/8uzcf+0JdL3D6vh9BcDkVIMCIFEBkITdGzY+/bjCCoDoeBQAaAdfS+8GsuF10h4BqBwZa9vNgU6iXw291wBo2L37tL/nAXD6v3ccmfT1/2mY5Op+9AgKALTcw7ddnypV3zEtDenDilfaO5Fn5uvovzJ5OEyrEGjlwkAnU62mA2maLtN3OFB7arajk/+oALrdzHLRlapXAcxemrOl6R5lq9LdE1sRFQoAtNM3lH9XfIOg2dTS+jTA1Ni+rBjoIEPKMqVhAUC331vc5zc885/z6azPKMz+R9egAEA7fUXZpDyRParDHb9PB2RXBFSrqglO0gy3hvv3urf8PV5+CWDtAbrW+JE0PLW7Eg6Nz3lFysPK3ysuaoGuQAGAttl66w2+uc4dyqNpSCeU2S2sO34VAJ4M6EWCrEOKAKN7j8BhvTKf3l1VAVDndacXbfZfSL6xYePO25Vv1j4CdDwKALTbuPJZxYVA3UunPBFw+tDe2qkAZmChtXzu/8hUvgYA0EsoANBuvsnOvTqGulvZr6P7TP6hmrSaXRHgmwR5UuDRUwKdMxKAHlStptklf84ct/8dU3zUX38eC9DBKADQbr7rz4OKFwU6qDTs1atTR8LkgR1hemxfqNSKAGCx+HK/PQer4eB4Otfqf9uU25TPZY+ALkIBgLbaeusNVWWfd5WPK19Q6t8KUB1+1ZcFThwKlcMHw/ThA9lqgdmIQJoyIoAFNV1Jw4FD1WwFwIZlaRJ2KJ8JSfJQ7Rmga1AAoFP4SOoPlA8qnhfQUHXqcJg6uCtM7n86HFF8WqDe/EFgPnzO/5A6f18FMEdp6VErd/5PZ4+ALkIBgI6w9bYbJhU1osndyp/pYN7rA9Tno33PAahMZ6cFpsf3h8mDu/Oi4MDOYtHv8+/3yEK33ngIC6uiI/89Byph975Ktvpf3YGlNB1Tvqo8oBzc8JanmZ2KrkMBgA7Tt0V5j3Y+ofgk/9y9sjrtrADwaMC+pwrHv2/q0O5QOXKIUQSoL89n++/cWw1P7anOteyvj/w/r+j1mk1kBboOBQA6jZtc3yfgo8qvK/coQEscngxh/1g1TOjIv6JCYI5pJfuVf1N85z8KAHQlCgB0lK23vaOqTG697XrPqr5F+VQa0seUcQ/8NxiQBebFw/6+3G/scFUFQKoCoP5lf3rKT+9Jk2Sb8sUNG3c+pNSftAp0OAoAdDIfWXlS4HsVXyZ4RKEAwIIbm0jDk7sr4ek91bBn/xy3/M1fk/+s+NK/7X4C6FYUAOhYD956/bTyJe3+k/Jxdf13KHelafpQPji7uKMBHm2YGXVg5KE35P+SHt7Pj/b3Hapm9/jfeyDv+A+MVbP7/nv1v2fyb9OLwqen7gtJ+KxSd+VKoFtQAKAbPKX8qfLrISS/qu1H/GSLuCvwZEQKgB7hUs5L+3p9/0e2T4eHH58O23dVskv+vOLfHHxLyjG9EnzJn4/+PSIFdK3YbmZytXJ7vts0z/q9Mt9FK62/9r1+vfapT96QJOGHtO/HTkmN8lJtz1FOU5aqje8LSaLPPfo5xegAUb94otcD+t2e7PU3W2+94RF/6M5b1qzV5jzlV5OQ+PuY5cKzyuGc0/3Ht4+PdM2Xsh0YZy37o/RzmVRXvkdH/eMT+rmc5OIP/Rz9Gf5h/rteSp/U9m+v2rjDC1ahs2xWrsh3m3aN4juURqF4w9jdKAB6wPprb+xTATBzL36/hvvVSl+g7auUy/XU+WqtR1QA+L79vm3vSW/dO0vqWxSnXp3wg/oT7tZ2UgVA1qN2UwHgGsBD3N/YXsnuaodj5lje9wT6Obp08tjATXpt/Y62kyoAKKc6DwVAQRQAxVEAdJhL3nBjOa2kK7XrIsCd84o0JAPHjQAUP9Wlg2b96hu83L/1tutVDBzTLQXA1HQadu+vZke6DiMAzVEB4KN9X5Z6x1Ubd/rOlehMFAAFUQAURwEQuW4pAMYnfOQ/Hfbsn/NmNngGdfj+afnSvixJknjG/29seMsOL/6DzkUBUBCTAIEe5rPXtakAOHX5TP8QPqT8puJLUVnsBz2HAgDoYe776f9PTgf9+5VvKF5v4h79zO5S/lH5ax3536P4CgCgp1AAAEAID6qz91D/TcqvKX+heBlqzwUBehJzAIpjDkDkumkOgK9x33Og3hhAdmLAl7d5ouNmNQV7/WysdOT/Jf1APqPdr79y484TJn2iazAHoCAKgOIoACLXQwWAJ7n5jnbvUlPgFRejpQLgiH4gPvc/rQKAW/t2JwqAgigAiqMAiFyPFAA++ncB4DUO3rHhLTu/6GeBLkYBUBBzAAAAiBAFAAAAEeIUQHGcAohcj80B8PXuv6um4Ct+tpPoO5zUN+lZ+OPKxCs37qj3FwFmcAqgIAqA4igAItdjVwHsU7aqKei4y930HT6pb/IT2nXD/pAKABcsQCMUAAVRABRHARC53igAOp8LAG3uUPye/ehVG1mKF3OiACiIOQAAOtUqxUX7y5UlfgLAwqEAANCRfMtnZbWyQqGtAhYYbyoAACJEAQD0qL5yEk5bVlKSUC7XngSAGgoAoEe501+5tBRWqQhYMpCoINAbPunMJAqA1qIAAHqUO9bB/iSsUAFw3rpyOGtNOSwbScLSDszQQO2bBtAyFABAj0p0WN3Xl4ThwVI4bXk5rFpeykYEOjHDQ0l01yQD7Rbbe451ADBv3bIOwIxsyR+pVNMwNd2ZawLs2FsN33yyEvQt1vN/lLdteMuOp/KHQF2sA1AQIwBAj/P5dceTApcMlhYw/bWUj3uuufT3cfwPtBoFAIAmuKroVwvik/c0I0A34p0LFJWGaWVCqdSeicPQ+hBW/1gIp/9UCOt+XvnZEM5Q1r219lhZ+m36RBUGnNEHOh4FAFBQkpamkjQZT0IyVXuqrjRNs3Q/NROlJSGMXKnO/415R3/2r4Rw1tuUX9T+25V35Fl+VQh9y/VDOrVp/f7p9MJPCOhGFABAcROK76LX8O507vd7ou+3JReHcKY6+tU/FMLA2hDKw7UP1LH8ZSoKflnFwnNrTwDoVBQAQEEbfvbpKb1zxkISGo4ATFfScGQqDVXfcLfbDZwZwsrXhrDs23R0v0KtxmDtA3UMPyeEVd8fwtIX6vedk48czKFaTcPEZBomO/TqBKCXUQAAi+DQ4TTsOVDNioDuV/B8fqICwQXD6T+hIuDs2pP1ufN/encl7NXPqsElgAAWCQUAsAgOH0nD/kM+sq090Y08y79fR/8DZ+T7pyrpC2HJs/M5A54PMIdp/XwOjFXD+AS9P9BqFADAIpiYDOHQeKoOros7ttKoOvErQhj+lpMO5c/iSYClIe3M3cT4qH9yKi8EALQWBQDQjDStKtuVh5RDtWeP8gRAn9feP5aGfYeq2ZyArpOoeSirCHC8f6qylYf8+U790wdelfDgeDUc1NH/lH42dX86aXpQ2aI8oDSccAmgORQAQFNUAIT068p9euArAmap6DN8bnv3PnVyXXmE6468XOvMF1aloh/awWrYo0w3Xk1hr/Ip5QuKr7wAsIAoAIDmuNtyx/TPytN+4pk8CuBJgD6/PT5RDZPa76p1AapjIYypvhn7kvYP1548Bf47Vqe09UH7iZdB+O8/c0+CMf1cDitzXClxUPmi8hWFEQBggVEAAE3YsHFXVXkgJMlndaD8hLq2cWVWV+Yjf08IHDucFwJTKht86VtXcKd/eKvykPaP5B37KdHnTe9Wl/1k/vtqqvr97uyPTM4URb5Uss6XzVdQcsWxS/nqho07tynMEgAWGAUAMD/q+LM7RN6v1D1M9iiA73b31J5Kdjqgu2a8+3s9LqdSBFQnQtjz0RCe/nP95R+tPZlP9vOM/6d2V8PjOyrZ0X8DXl9BlUf2c/UoAIBFQAEAzM+Y4lMBHqp2MTCL5wJ4XYDsnPeBatir7f5D+SmBrjC9V38B/fUmtulBRUVA4zH7cGS7Pvfz6uk/nW8r+7Lhfnf8M+f8/TPw5EiPhjTg4X4XVPcodedXAJg/CgBgfg4on1XuVlwMNOQjYF8RsH1XJWzbPp11il3BpwGefJ+O6v9RHbqO7tPGPXc4qB/Ddn3umE/b53z649GnpsNjT1fCjj3V7JTISfi8weeUTyg+DQBgEcR2y66rldvz3aZ5WPLKfBfI3XXLWi9+/2PKy5UXK3MW12V9dO3KUlg+Wgol7Q8OJGF0SaLnO/gtOfqSEE57rVqNgfzqgKPNx3Ed+v5Phuq+u8L4+ESYODKZjX640Nm5N78S4hTGPO5VXFB9cMNbdngEADhVm5Ur8t2mXaNsynd7HwVAcRQAmEUFQJ82XvnmZ5T3Kn48J/f1ZfWj/X1JOG1ZKZxzejkM9nfwW9KrAWZ3+Zv5HmdqHHfrta49Vac/PZmNcuzaV8mW+s0nPuYfPgX/Vfk9ZUIFgOcCAKeKAqAgCoDiKADQkAqBF2pzdRpSv9Z8c3y9ybwyTmMeDRgeSrLRABcE/mSPBvi5ARUEfeVOfZsmoVK76dHhI9VsnoPnCLqzn1ne153/qcwbFB/5+735cXX8n86eAYqhACiIAqA4CgCc1J23rHmXDop/TrvqyrOF9EuuBLIPnoLTV5bCquWlMKLf7SLAsl/1i0cOZkqKZO7aYkHMrF2Qde7eVWb6dE/wm7nxkYf5PeR/SvLF/xxf3ndYf6+/0PYGdf51J1ICp4ACoKA5z1MCaNrfK/9Z8Up2XtGu0HD2gfF8suAjT1bCw49PZ9mm/Sd2VsK+Q77HQN4ht4L/HHf0nsD46NOV8I3t+feTfU/bK2G7vidf1VDw1sf+bF/i93nl3cr/VljsB2ihxT986CyMAKBl7rp57Spt3qh8p7JWOUNZp3edZ9AV1t8XwtBAElYsLYUVo/mpAU8gPJ7f0NlS/NnOzOP8JIT3Lasb9Iu3+Zo7M/vHnj+eO/aZAmD3/mp2h0Mv5dss/ZlParND2a3vzFdP/OmGjTuOLRgANIcRgIJm2oRYUACgZVQAeOj/HOV05TTl1cqb9K4b0bYwd+Ie/nch4ImDx3fqM1wQeE5Bnz7epzLDcwr69Ju8LdUKAXfoXo1wWlt35F6a1+vx+4ZF+cdqX6xmpjhwEeDOP7sLQv6hwtT5+6v/pfKPyi59R09p+6gKANb6x3xRABT0zPaj11EAoOXu+uPsCoERvdtequ2PqPP0yMCo8my9AT0q4HfigrwXXSC4CJjp/H1ZYb59RgGgHj3v/PMCwPsuCPyxbCRgAejL5F8pDTv164P6ow+k2ZLJ4cPKncrBqzbuPLZWMDA/FAAFLUij00UoANAWKgI8CXBYu8vVK65Tp3iRHr9Jb8BXZp+wQAXADHf02bb2S70vnvXOM730zHYBHf2SafiMfr1Z38OD+kZ2pGnqxZO8aFJVBcBC/7GIFwVAQfXahV5GAYC2u/OP1y7XZo3yMr0DL9O2HJL0Wdq+QFmlWqCpUwSdQEf4ntjnSY9fVPPitYOrenKrcpeH+zf87NOs7Y/FQgFQEAVAcRQAWDB3/skZnsY3EKqVDdq+XblUHaUnDGZ0tOyPJ8dd7tf296y+p+OP2lN9bz6vn1EB8IQ++JB235eWEzekU6968w6O8tEKFAAFUQAURwGABaUioKwC4GztfquyUgWATxW4o12mzXcoHiU4Qx3toJ+Xtr5vawWAL9l7RHlA+YK+Nx/1uwAY0wd9A58tKgC+qc7/aHEALDIKgIIoAIqjAEBL3HnzmtXavE55hXKhOtmjpwbU0fq9O6gdr807pAcuDmoLDh0bLigsTb3Wjzttr1vgCXoT+mLu7Kf0dbPOPO//s8l8X1K8bv8/XLVxly/tA9qJAqAgCoDiKADQEioA3Lmfq3i+wKj69aP3F1AB4P3ztXOBtuv1Rj5PW48iDKmjPvp5haWp79Xnzv1x5ZuKZ+/7XP4T+rrZQj21AsArAfiof7fyhAoALuNDu1EAFEQBUBwFANruzlvWuJO/QAXAhdperDfy+dp6zYGFKgAeUx7RE1+rFQCPb9i4i5X60MkoAAqiACiOAgAdQUXAkAoA34Fwid7IPgXgLNQpAA//K+lhfTEf3U+qAPChP9CpKAAwJxcA2fjlPOIXGQCgs7htrtdmF4n7iGj4EiMAABAZCgAAACJEAQAAQIQoAAAAiBAFAAAAEaIAAAAgQrEVAF7edL583TUAoLMsRNu8EH1E14itAHiqtp2Pi5TsZi0AgI7gNtlt83wtRB/RNWIrAJ6obeejrLASIAB0DrfJbpvnayH6iK4RWwHg25Qeznfn5cW1LQCg/RaiTXbf4D4CPexhpd4SkEWyQ/Ed2gAA7eW22G1yvba6SNw3RCXGqwAeqW3nwy+4W/JdAEAbuS1eiAOyhegb0OHeodSr/prJ9Upsd1QEgE7gttdtcL22uZm4b0CPe7ZS7x+/2fyrcoECAGgNt7lue+u1yc3GfUNUYj16/YrynHx3QYwpH1G+oHxe+ZpSUQAA8+cZ/pcqL1ReoHyfMqIslK8ql+W78Yi1AHiPckO+CwCI3I3KO/PdeMQ4CdA+pHjIBwAQN/cF7hOiE2sB8GXlg/kuACBi7gvcJ0Qn5hns5ysPKAPZIwBAbCaVS5Rt2aPIxDoCYP4HvznfBQBEyH1AlJ2/xX4N+2plq7IyewQAiMVeZb2yK3sUoZhHAMz/8D+qcMkeAMTDbb7b/mg7f1uIuyd1u68r+5Wrs0cAgF73y0r0E8EpAHL3KGcrz8seAQB61Z8p0V3zX0/scwCO16/8vfLd2SMAQK/5mPL9ylT2KHKMABxTVf6P4uUlv91PAAB6xu8rb1Kms0dgBKCBNyh/ogxmjwAA3eqI8tPKX2WPcBQFQGMvUT6gXJQ9AgB0m4eV1yufyx7hBLFfBjgXv2B8x8BfUKK+VAQAuozbbLfdbsPp/BtgDsDcPC/g35X3K75hhG9D6cmCAIDOc1j5XeU/KZ9W3IajAU4BFLNc8XoBvhf1NcoKBQDQPvuU25WPKJsUr+uCU0AB0Lw+5eXKy5SzlDOP265R+NkCwMLwCOxOZbvyxHFbH+V/SmFmf2Eh/D/EeFuBeck6vAAAAABJRU5ErkJggg==;" vertex="1" parent="Apy_nMzA6MKSCh_NEfZ--47">
          <mxGeometry x="74.5" y="33" width="102" height="102" as="geometry" />
        </mxCell>
        <mxCell id="Apy_nMzA6MKSCh_NEfZ--49" value="&lt;font size=&quot;1&quot; style=&quot;&quot;&gt;&lt;b style=&quot;font-size: 20px;&quot;&gt;Serveur Récepteur&lt;/b&gt;&lt;/font&gt;" style="text;html=1;strokeColor=none;fillColor=default;align=center;verticalAlign=middle;whiteSpace=wrap;rounded=0;fillStyle=auto;gradientColor=none;" vertex="1" parent="Apy_nMzA6MKSCh_NEfZ--47">
          <mxGeometry width="251" height="30" as="geometry" />
        </mxCell>
        <mxCell id="Apy_nMzA6MKSCh_NEfZ--104" value="&lt;i&gt;Requête MQTT&lt;/i&gt;" style="text;html=1;strokeColor=none;fillColor=none;align=center;verticalAlign=middle;whiteSpace=wrap;rounded=0;" vertex="1" parent="Apy_nMzA6MKSCh_NEfZ--47">
          <mxGeometry x="216.5" y="52.5" width="60" height="30" as="geometry" />
        </mxCell>
        <mxCell id="Apy_nMzA6MKSCh_NEfZ--52" value="&lt;i&gt;Communication via UART&lt;/i&gt;" style="text;html=1;strokeColor=none;fillColor=none;align=center;verticalAlign=middle;whiteSpace=wrap;rounded=0;" vertex="1" parent="1">
          <mxGeometry x="380" y="700" width="60" height="30" as="geometry" />
        </mxCell>
        <mxCell id="Apy_nMzA6MKSCh_NEfZ--80" value="" style="group" vertex="1" connectable="0" parent="1">
          <mxGeometry x="233.5" y="20" width="251" height="116" as="geometry" />
        </mxCell>
        <mxCell id="Apy_nMzA6MKSCh_NEfZ--76" value="" style="sketch=0;outlineConnect=0;fontColor=#232F3E;gradientColor=none;fillColor=#232F3D;strokeColor=none;dashed=0;verticalLabelPosition=bottom;verticalAlign=top;align=center;html=1;fontSize=12;fontStyle=0;aspect=fixed;pointerEvents=1;shape=mxgraph.aws4.client;" vertex="1" parent="Apy_nMzA6MKSCh_NEfZ--80">
          <mxGeometry x="85.5" y="40" width="78" height="76" as="geometry" />
        </mxCell>
        <mxCell id="Apy_nMzA6MKSCh_NEfZ--79" value="&lt;font size=&quot;1&quot; style=&quot;&quot;&gt;&lt;b style=&quot;font-size: 20px;&quot;&gt;Client simulation&lt;/b&gt;&lt;/font&gt;" style="text;html=1;strokeColor=none;fillColor=none;align=center;verticalAlign=middle;whiteSpace=wrap;rounded=0;" vertex="1" parent="Apy_nMzA6MKSCh_NEfZ--80">
          <mxGeometry width="251" height="30" as="geometry" />
        </mxCell>
        <mxCell id="Apy_nMzA6MKSCh_NEfZ--81" style="edgeStyle=orthogonalEdgeStyle;rounded=0;orthogonalLoop=1;jettySize=auto;html=1;" edge="1" parent="1" source="Apy_nMzA6MKSCh_NEfZ--76" target="Apy_nMzA6MKSCh_NEfZ--92">
          <mxGeometry relative="1" as="geometry">
            <mxPoint x="359" y="200" as="targetPoint" />
          </mxGeometry>
        </mxCell>
        <mxCell id="Apy_nMzA6MKSCh_NEfZ--87" value="&lt;font style=&quot;font-size: 20px;&quot;&gt;&lt;u&gt;Simulateur&lt;/u&gt;&lt;/font&gt;" style="text;html=1;strokeColor=none;fillColor=none;align=center;verticalAlign=middle;whiteSpace=wrap;rounded=0;fontStyle=1" vertex="1" parent="1">
          <mxGeometry x="130" y="10" width="170" height="40" as="geometry" />
        </mxCell>
        <mxCell id="Apy_nMzA6MKSCh_NEfZ--88" value="Client entre un feu sur la carte, il peut visualiser les capteurs existants ou non.&lt;br&gt;&lt;br&gt;Le feu est simulé par le serveur de simulation. Celui-ci récupère la liste de capteurs existants réellement&lt;br&gt;&lt;br&gt;Le feu simulé grandi au fur et a mesure, incrémentant de plus en plus de capteurs.&lt;br&gt;&lt;br&gt;Le serveur de simulation indique alors quoi envoyé comme signal radio" style="text;html=1;strokeColor=none;fillColor=none;align=center;verticalAlign=middle;whiteSpace=wrap;rounded=0;" vertex="1" parent="1">
          <mxGeometry x="490" y="200" width="300" height="167" as="geometry" />
        </mxCell>
        <mxCell id="Apy_nMzA6MKSCh_NEfZ--94" style="edgeStyle=orthogonalEdgeStyle;rounded=0;orthogonalLoop=1;jettySize=auto;html=1;" edge="1" parent="1" source="Apy_nMzA6MKSCh_NEfZ--91" target="Apy_nMzA6MKSCh_NEfZ--44">
          <mxGeometry relative="1" as="geometry" />
        </mxCell>
        <mxCell id="Apy_nMzA6MKSCh_NEfZ--91" value="" style="shape=image;verticalLabelPosition=bottom;labelBackgroundColor=default;verticalAlign=top;aspect=fixed;imageAspect=0;image=data:image/png,iVBORw0KGgoAAAANSUhEUgAAAgAAAAIACAYAAAD0eNT6AAAAAXNSR0IArs4c6QAAAARnQU1BAACxjwv8YQUAAAAJcEhZcwAADsMAAA7DAcdvqGQAAECJSURBVHhe7d0JYF11nff/c9KNTVqoIIsoTRFZG1RQVMA2gIKOoqOOOqOOPj4u0IKSJog4juP4DApNg39pEJ/RGZcH9xHcaBFIFVBBtqaACnaTVctWWuienP/nc85NSctNmnNvcrff+wWfnt85SW5u0p7z+57td+IIpRqvnKScqByoHDBouo/C7xYARkeiPKo8rDw0aHqjcoOyVUFOdFL5TFZOU85QTlemKACA6lmjLFR+oixSnlIwAhQAI7On8knlXGVXLwAA1JwNyiXKRcpaL8DQxhWmKG6CMlv5sfKGwjwAoDZ5G+3Tsh9WNip3Kv0KiuAIwNCOV76tHJLOAQDqzTLlfcrN6Ry2wxGA4t6v/I+ybzoHAKhHeysuAO5Xer0Az6IA2J5/H/OUixVf5Q8AqG/elr9NeZ5yveI7CiCcAniWzx1dpbwxnQMANJqrlbcqW9K5wHEE4FlfVd6VNQEADeglyv7Kz9K5wFEAZD6uXJA1AQAN7OWKxw64JZ0LGKcAouj1ig8LUQwBQBj6FJ/u/WU6F6jQC4DnK/cpe6VzAIBQPKkcqjyWzgUo9L3eC5WZWRMAEBCP6jpJ8fDBQQr5CMA05U/KxHQOABCazcphysp0LjBNhWmIPq/Q+QNAuNwHuC8IUqhHAI5SlipcBAkAYfPAQDOUu9O5gIR6BOA9Cp0/AMB9gfuE4ITaCd6jHJE1R8Uzip9FfZtyq/JHxbeZAADK5wvWD1eOU45VzlB2V0bLH5QjsyYamUeC8iGf0cqvlWYFAFAZ3uZ621tsm1xq3DegwXUoxf7yS8mnFE4lAEDledvrbXCxbXMpcd+ABnedUuwvP2/8uGAAQHV5W1xsG5037hvQ4JYpxf7y82S1so8CAKgub4u9TS62rc4T9w1ocOuVYn/5eXKuAgCoDd4mF9tW54n7hqCEdhvgFMXDP5Yr+KdIAUANGY1tsvsG9xFoUL7No1jllydbld0UAEBt8DbZ2+Zi2+w8CepWwNCOAOxXmJbD54mCO1QEADXM2+TROIc/Gn1E3QitAJhQmJZjY2EKAKgdo7FtHo0+om6E/DAgAACCRQEAAECAKAAAAAgQBQAAAAGiAAAAIEAUAAAABIgCAACAAIX2KNvTlIVZs2S9yjFZc1SNU1qV4wo5SgnqnlQADWmLcrdyayE9Sp8y2pYoLVmzZKcri7ImGo0LgGLDP+aJ/5GNtsOU3ynFvh8hhDRSvK3zNm+0edtc7PvlifuIYHAKoPrOVO5Ujk/nAKCxeVvnbZ63fagiCoDqeo2yQNklnQOAMHib522ft4GoEgqA6vHTq76p8HcAIETe9nkbyNNVq4TOp3rOUQ7JmgAQJG8DvS1EFVAAVA+HvgCAbWHVUABUzysKUwAIGdvCKqEAqI59lAOyJgAEzdtCbxNRYRQA1bF7YQoAYJtYFRQAAAAEiAIAAIAAUQAAABAgCgAAAAJEAQAAQIAoAAAACBAFAAAAAYoL01D4Wc8Ls2bJepVjsmbJDlZWZs2SPa2cmDUBoGpuVPbImiWbpqzKmiVborRkzZKdrizKmmg0LgCSMuN/ZOVyAVDstfNkjQIA1eZtUbFtVJ54m1gub5uLvXaeuI8IBqcAAAAIEAUAAAABogAAACBAFAAAAASIAgAAgABRAAAAECAKAAAAAkQBAABAgCgAAAAIEAUAAAABogAAACBAFAAAAASIAgAAgABRAAAAECAKAAAAAhQXpqHws54XZs2S9SrHZM2S+dnXK7NmyZ5SpmRNAA3gEOUVhRyuTFDKsVG5S7lduU15UBkLa5TJWbNk05RVWbNkS5SWrFmy05VFWRONxgVAUmb8j6xcLgCKvXaeeKUDUP+mKt9Tiq3no5V+5VJlN2W0eVtU7HvmibeJ5fK2udhr54n7iGBwCgAAqsd7nHcr70rnxo6P9s5RfATzOC8AKAAAoDpeqvyPsl86Vxk+zfBzZZ90DkGjAACAyhuvfEvZNZ2rrH2Vy7MmQkYBAACV91HllVmzKv5eeVPWRKgoAACg8mYWptVUC+8BVUQBAACV51v9qq0W3gOqiAIAACrL98z7vvdqK3c8E9Q5CgAAqKxnlE1Zs6qeLEwRKAoAAKisrcrSrFlVHiEQAaMAAIDKq4XOlwIgcBQAAFB531Q8PG+1+DTED7ImQkUBAACVd7PSmTWrokMp94FkqHMUAABQHf+qVONagGuUr2RNhIwCAACqw3cCnKB8VfGT6MaaLz78vPKWdA7BowAAgOpZp3xMOVXpUdYqo+0x5RfKqxQfddisAOkjIkPiZz0vzJol8+M0yx1Aw8++Lvf821PKlKwJoEF4m3yocpQywQvKsFHx9mqsz/WvUTy4UTk8MNKqrFmyJUpL1iyZH8+8KGui0bgA8KG2cuJ/ZOVyAVDstfPEKx0AVJu3RcW2UXnibWK5vG0u9tp54j4iGJwCAAAgQBQAAAAEiAIAAIAAUQAAABAgCgAAAAJEAQAAQIAoAAAACBAFAAAAAaIAAAAgQBQAAAAEiAIAAIAAUQAAABAgCgAAAAJEAQAAQIAoAAAACFBcmIbCz3pemDVL1qsckzVL5mdfr8yaJdus/HfWBICq+aAyMWuWbJqyKmuWbInSkjVLdrqyKGs2PgqA/GqlAACARkEBUAWcAgAAIEAUAAAABIgCAACAAFEAAAAQIAoAAAACRAEAAECAKAAAAAgQBQAAAAGiAAAAIEAUAAAABIgCAACAAFEAAAAQIAoAAAACRAEAAECAKAAAAAhQXJiG4jRlYdYsWa9yTNYs2cHKyqxZso3K57ImAFTNZ5VdsmbJpimrsmbJligtWbNkpyuLsiYajQuApMz4H1m5XAAUe+08WaMAQLV5W1RsG5Un3iaWy9vmYq+dJ+4jgsEpAAAAAkQBAABAgCgAAAAIEAUAAAABogAAACBAFAAAAASIAgAAgABRAAAAECAKAAAAAkQBAABAgCgAAAAIEAUAAAABogAAACBAFAAAAASIAgAAgADFhWko/KznhVmzZL3KMVmzZH729cqsWbKnlClZE0CDmKocqxylTPCCMmxUvL26XVnrBWNkjTI5a5ZsmrIqa5ZsidKSNUt2urIoa6LRuABIyoz/kZXLBUCx184Tr3QAGsP/UpYrxdb1ctOv3K28WRkL3hYV+7554m1iubxtLvbaeeI+IhicAgCA6nmh4qOSX1eavWAM+EjvkcpPlW8peykABQAAVIkPm/9WqeRe5/uUa5Xx6RyCRgEAANVxiXJQ1qyoVygXZE2EjAIAACrPF5t9MGtWxb8oR2dNhIoCAAAq752FabX4DoO3ZU2EigIAACrv5YVpNdXCe0AVUQAAQGXtoviq/GrztQAIGAUAAFTWOKUWtr0TC1MEigIAACrrGeW+rFlVdxSmCBQFAABUnofnrbZaeA+oIgoAAKi8XxSm1eJhb6/OmggVBQAAVN53lWoWAZcpHoUQAaMAAIDq+LDyRNasKD906JNZEyGjAACA6nhEOUW5J52rjJuU1yu+EBGBowAAgOq5U/H9+BcpW71gjKxX2pXXKSu8APBjIkPip2750Zvl6FWOyZol87OvV2bNkj2lTMmaABqABwhqUVwQHK54uN5ybFTuUny1v48ybFHGwhrFTzYsxzRlVdYs2RLFv79y+BkNi7ImGo0LAF/9Wk78j6xcLgCKvXaeeKUDgGrztqjYNipPvE0sl7fNxV47Tyr5aOaq4xQAAAABogAAACBAFAAAAASIAgAAgABRAAAAECAKAAAAAkQBAABAgCgAAAAIEAUAAAABogAAACBAFAAAAASIAgAAgABRAAAAECAKAAAAAkQBAABAgOLCNBR+1vPCrFmyXuWYrFkyP/t6ZdYs2XrlQ1kTAKrm68puWbNk05RVWbNkS5SWrFmy05VFWbPxUQDkVysFAAA0CgqAKuAUAAAAAaIAAAAgQBQAAAAEiAIAAIAAUQAAABAgCgAAAAJEAQAAQIAoAAAACBAFAAAAAaIAAAAgQBQAAAAEiAIAAIAAUQAAABAgCgAAAAJEAQAAQIDiwjQUpykLs2bJepVjsmbJDlZWZs2SbVWuz5oAUDUnK+OzZsmmKauyZsmWKC1Zs2SnK4uyJhqNC4CkzPgfWblcABR77TxZowBAtXlbVGwblSfeJpbL2+Zir50n7iOCwSkAAAACRAEAAECAKAAAAAgQBQAAAAGiAAAAIEAUAAAABIgCAACAAFEAAAAQIAoAAAACRAEAAECAKAAAAAgQBQAAAAGiAAAAIEAUAAAABIgCAACAAMWFaSj8rOeFWbNkvcoxWbNkfvb1yqxZsqeUKVkTQAOZpByiTEjnSrdRWaZsTefGzhplctYs2TRlVdYs2RKlJWuW7HRlUdZEo3EBkJQZ/yMrlwuAYq+dJ17pADSGw5WvKXcqm5Vi63wp2aDcrFyqHKiMBW+Lin3vPPE2sVzeNhd77TxxHxEMTgEAQPV4GzxXuUP5kOKji+Xu+Q+2i/IqZY5yt/I+BUhRAABAdfgU7M+UTsUd9VjzKcNvKV9J5xA8CgAAqI6PK2/MmhX1MeWtWRMhowAAgMo7TPlC1qyK/6vsmzURKgoAAKi8M5VKHPYfyj7KP2VNhIoCAAAq7+WFaTXVwntAFVEAAEBlebtb7lgio4ECIHAUAABQWb4af4+sWVUHFaYIFAUAAFTWE8rDWbOq7ipMESgKAACovNsL02qqhfeAKqIAAIDK+21hWk218B5QRRQAAFB5X1b8oJ5quUn5QdZEqCgAAKDy1iv/rPSnc5X1jPIBpRrfGzWEAgAAqsOH4P2QHj+2t1L85D4/EGh5OoegUQAAQPX4wTwvU/zI3rF2tXKUcmU6h+D5aVQh8bOeF2bNkvUq5Q7i4Wdfr8yaJXtK8f3EAOrfOKVVOa4Qd9TlPhbYRxa8vbpVcYHh8/5jwUcVJmfNkk1TVmXNki1RWrJmyU5XFmVNNBoXAEmZ8T+ycrkAKPbaeeKVDgCqzduiYtuoPPE2sVzeNhd77TxxHxEMTgEAABAgCgAAAAJEAQAAQIAoAAAACBAFAAAAAaIAAAAgQBQAAAAEiAIAAIAAUQAAABAgCgAAAAJEAQAAQIAoAAAACBAFAAAAAaIAAAAgQBQAAAAEKC5MQ+FnPS/MmiXrVY7JmiXzs69XZs2SrVVenDUBoGr+ouyZNUs2TVmVNUu2RGnJmiU7XVmUNRsfBUB+tVIAAECjoACoAk4BAAAQIAoAAAACRAEAAECAKAAAAAgQBQAAAAGiAAAAIEAUAAAABIgCoDo2FqYAALaJVUEBUB1/VR7LmgAQNG8LvU1EhVEAVM/thSkAhIxtYZVQAFTPrYUpAISMbWGVUABUz5cUDnsBCJm3gd4WogooAKrnceUjWRMAguRtoLeFqAIKgOr6mfJFJUnnACAM3uZ52+dtIKqEAqD6PqW8XnkgnQOAxuZtnbd53vahiigAasN1ylHK2co3lLuUrQoA1Dtvy7xN87bN2zhv67zNAyrqNMWHnsrJEgUAUFu8bS62zc4T9xHB4AgAAAABogAAACBAFAAAAASIAgAAgABRAAAAECAKAAAAAkQBAABAgCgAAAAIEAUAAAABogAAACBAFAAAAASIAgAAgABRAAAAECAKAAAAAkQBAABAgCgAAAAIEAUAAAABogAAACBAFAAAAASIAgAAgABRAAAAECAKAAAAAkQBAABAgCgAAAAIEAUAAAABogAAACBAFAAAAASIAgAAgABRAAAAECAKAAAAAkQBAABAgCgAAAAIEAUAAAABogAAACBAFAAAAASIAgAAgABRAAAAECAKAAAAAkQBAABAgCgAAAxr5SUtE5QDlF0KiwA0AAoAADvTp6zpT6L/tbyr5d3ZIgD1jgIAwLCmndvbr6xXc6byuj93tUxKPwCgrlEAABiRON1eJFPiKDloWdeM8YXFAOoUBQCAPFpVCFyk7FWYB1CnKAAAjJg6/qnKocqEwiIAdYoCAEAO8bgoiSYpu66Yf/S4wkIAdYgCAEBePv+/v7JbOgegLlEAAMhrT+VtURQ3Z7MA6hEFAICc4knKDGVqYQGAOkQBACAvTgEADYACAEA+ceSL/56nTEznAdQlCgAAw1o+v2Uf5aNJEk1PFyRq6Y8sAOoVBQCAndlbeYfyonROPb+yQfEzAgDUKQoAAMOK42h35VhlYPQ/d/xPKhvTOQB1iQIAQF5blAeUp9M5AHWJAgDAkFZ0zXhDFCWfUXzFf+xlSRQ9o1yvPOR5APWJAgDAkNTJH6bJKcqgsf/jjcqdyqOFBQDqEAUAgKKWd804UBMl3kNJ9/5NrS3Kw9Pn9q4vLAJQhygAAAzl35T3Z00AjYYCAMB2lne17Km8Wvv6h8c7DPebRNETyjLFFwICqGMUAAB2kOynvFcN3/fvYX8Hu0/5icLhf6DOUQAA2GZ51ww/6W+G8tE4ig5KFz4r0bLbp7f1/qfCLYBAnaMAADDYB5TOOIqLbRs2K1uzJoB6RwEAIFrR1TJe+bg6/n9UBob83V4SfUP5UWEOQJ2jAAACp45/X03OUD6kHKv4lr9tt/1JUsi1UdL0m3QJgLpHAQAETJ3/JE1eo3xDOULxo3531K+sVUmwpbn9ThcCABoABQAQtg8q/6rsqgy1PfCV/z5CcEM6B6AhUAAAAVreNWM35aNJlLxbswN7/oMP+6eSJLpb+aHy++a23jWFxQAaAAUAEJjCOX+P73+mcrzi0wBFJJuV29T4H8V3AABoIBQAQHhOiKP4m8qRyhCdf+rJOI7umz63d6nSV1gGoEFQAAAB8a1+mvyLsodS7IK/wb6gfCdrAmg0FABAAJZ3tUxWZqvpc/5HKx7i9znn/FNJcr9yYZREv2huW/qXwlIADYYCAGhgK7taxqnj31/NVuVTyquUHcf3f1YSPai6YGHcH322ee7SZYWlABoQBQDQ2PbQbv47Nb1CcSGwM99WPjmtYylD/gINrvghwMZ1mrIwa5asVzkmawK1aUXXjN00OVJ5t1Zz/7v3rX5DSrKr/D+nXBUn8Z+a5y7x4D8lWTG/ZaImb1U8wNBavfjnmtu5iBBjbonSkjVLdrqyKGs2Po4AAA1mRVfL4Zr8s/K/FXfEw3b+UZKsjJNkgRo/3DouvreUzn/5/JZYmaXvfY5mP6b4IsO/Kg8rjB4I1CCOAOTHEQDULHXAfpDPPylnKT7kP+yV/kkSPaI/r2pat9Ydd9+0f1s14s565fwZ4/TJU5IoLnyfpF1blDfEUbxc859oiscvOfjc2zelnwyMPY4A5MQRAKCx+DB+h+JOeSTr9+V9SdOn1fFvzdP5FzxP+XvleuVa5XXKz5Q3a9/iDjp/oLZxBCA/jgCg5izvmnGoJhdo7/tkTQ9Qhu381dOv08S3+l01fW7vn7KlO7d8/gwPHHSw8nFtPDyioNuHKAv0mvdoi3Lf9Lalt2seqDSOAOTEEQCgjq24pGWiOv/j1PyA8h7lhcrOOv8VmvyXckWezn9FV4v38H1tQfa94vitis/1f125Qt/0Sjp/oH5wBCA/jgCg6pZ1zXAnP0kr8MHa6z9bbY/rPxKPqQD4XjQu/vj0j+/8Yr/CHr87+T3iOO7S9I1Jkvgqf981sFrLvtPc1uvxBYBq4whAThwBAOrTnsorFXfK3vMfqfnK50fS+Rd4g/pJxRvFUxV3/j63/0flM4pfD0AdogAA6oz2yl8aJ9G7tPd/vmZ9+H9K+oGh+R78RxR//pXT23pXe+HOLO9q8ZGFTytnKC9RnhclySpNf6B8Ublee/+PaQqgDnEKID9OAaAqls9v8S19h0VR8gZN/y6O41npB4bnQ/Ue0tf/7i9Sh/2oFw5lWVfLrtoo+A6CYxXv+bdoPruVMInu1R89av1Yual57tKN6XKgNnAKICeOAAB1YEVXi8fvn6q8V3X7h3bW+SfaVVe2Kh6M50fq+Nt31vnre+yqyYsVDx70HXX8L3fnn0RRn/KMcmWUxP+pjv86On+g/lEAAPXBo/n5Hv93KNO8YCe85/+AcqFyuRcMR52/9/Lfrg7/3zU9d9tef8aH+X3XwFXKiO8aAFDbKACAGre8a8ZR2pN/U+xR9uLoIMV76kPS5z6uyc3KRco12vP3+f8hqfP3vfxzlPeq4z9R8a2EqSSJ1ukF/6T8MIqje5vbezcUPgSgzlEAADVqxSUzYmWymr7//u8U7/n7trzhuLP/nbru7ynfnt621BftDUmd/0GaePCgjygnKvspAxLlXuXnyq3T23rXeCGAxkABANSoJEkmaA/8SO2Rvz6OYj9ZbzjurP0I3xviqOkr09vuulxZn35kCCvmz2jSN/FFT354j08x+AmC2+gFN2qvf9H0ub2dCuf8gQZDAQDUoGWdR6tzjj3U7gXKa9OFw/MFfn7m/9eU33nBcNT5T9DERYWPLhzmZUV4gB+/HoAGRAEA1KA4jrMBeJLoeM356v+hJcnDyg3KtzV3R3PbkiezDwwtSeLdtYf/D2q+SvFIf89KkrXKzc70tt6/FJYCaDAUAECNWdHVcoAKgDcoc5ThO/8o8WF+3/98pfLr5rbeJ7x0OMvnt+wbxdFMFRZvUqUxvbB4MA8U9N04u54AQIOiAABqjx+x6+xE4vP+Dyq/UL7bPHeprwEYCR/2/34cD3E7YRw/pD8v0+vdny0A0IgoAIAak0SJH+3rDEedf+wO/0vam/+pOmsXAzuVPjkwTk5Q5+9rAIpItNefLNNrjvRZAQDqFAUAUCOWdx09WXm/mh7f37f/DUn7/quU+UkSX9PcttRHAUbKF/6dpMSF7OgOvfrV6XcA0NAoAIAaEUfxVKVNvfKw45mrZ16ryS3T5/Z+SvGz/XdKhUWseAChFn2P4Z5lcce4pv6FzW13UQAADY4CAKgdHn53b2WXdG5o2kuPrs2aI+ZD/ocoO3ty4OYXf+IeRvsDAkABANSAFZfMcMfsK/In+iq8dOFzea/cuT2Ko+vSJSMWT1Y+rMaMbH4oQ31rAI2GAgCoAUkSHaqe/QxlyHH+kyjpU5aodcf0tt5cV+jHUbyLRxNUDiwsAhA4CgCgJsRHK37U7/aD8mxvi3KlenPf95+XTy/spezs9AKAQFAAALXB5+g9Fv9wx+BdACxW/pzOAUAZKACAGqBe3yf+mzwtLNpREkexs2H6uUtdCABAWSgAgLqQXv+nP8b2/ny9+u7L57fs7E4BAA2AAgCoDx6Zb5MypgWAHKQcmTUBNDIKAKA+ePCfe5Wxfi7/qcqHl3e1sG0AGhwrOVAXfIlArPV1qEsERkkc7a28sDAHoIFRAAA1IImi9cpqpa+waDtJlExSpirjC4vy8qkDn0YY9iE/Ki/GK/soJ6/oavGohAAaFAUAUAuS6GHlNmVzYcn2kmgXZT9liKf4DU+FQ6I8pRR//e15yOD/T19xeDYLoBFRAAC14R7le8rT6dzoe1LpVu5M54Y3STlY2WP5RUewjQAaFCs3UAPiKHpM+aMyxD3++kh2HUA2m58f8NOjjGQIYY8a6CGJPxSNH39augRAw6EAAGpA89zezVGcrFGeiaJka2HxNmnXH+t/pbAol+ltS7cqf9GX+/HBq7Olw9M3e7viawF8RABAg6EAAGqHO/5HFBUBz1Ho+MseBuD3ym+UkbyQtw/PU16gIoBtBdBgWKmB2vFXpUP5XTr3HInX18krLplRzgN9blL8PAEbSRHwJuVzypBPKQRQnygAgBrR3LZ0Y1M87o4kiu9Xz+xz9jvyHQDvULf9smw2v+a23sf02jcqlyuPFRYP54AkiV6tnLR8fsvzC8sANAAKAKCGHHzunT4N8Aflj+mC7U1U3qMcm86VKvYdB8n8KEn+lt4duHNTFX/fF6VzABoCBQBQa+LoMv3p7MAjAUaTlbIOx08/t3dLlERPqbleec4Fh0W4AHi3QgEANBAKAKDGuIOOo8R76VcoawqLC9L7AY5a0dVyQmFBSfQiTylz1fx5tmRohbsPJug9nbhi/tGvKCwGUOcoAIDatEJ76T9S/qrsODaAO2E/tKdkzXOXblFuSuL4J0l2V8BIzFQ58KpCG0CdowAAalBz29LV6mxvVG6OouRvyuBz9UcoJ63oatlHKWlo4GfFHhzoR1l7J+L4ZQqPCgYaBAUAULueUM5VFik7Xqy3v/JPygvSudI9rKzMmgBCQgEA1Kjmub2JsiaKo69o9pJs6TYHKB9Q9kvnSjS9bUlfHCW9qi/mKjsrBEoahRBAbaIAAGpcc9vSO9T3XqHmN5VH04XZCH1HK29b0dXSki4pVZweBfiBMpJxAQA0CAoAoA40t/X6KX5nKx4l0HcG+JSA98jPUevvV8xv2U3tkjSfu3SzXuNRZW2UJJsKiwE0OAoAoH74UcFnKX5ssLkAcMc/Q3mdigA/xa9U/cotih8WBCAAFABAnWhu602Uh9T8b+VixYfs+5Rjoyh5uzJ5xfwZpRYBfp1rlLvSuWKSaLXiCxMBNAAKAKDOqAjwE/3+O4mi7/ke/iRO1+OZyrs0f6A/J6/muUv74zhaEsXR/YVFxdyo3Jo1AdQ7CgCgDqkIuHd6W6+vCejSrvmvVQRMjeL4siiKT1w+v2X37LPymda2dK2+vthDiHy9wVYVB1c0z+39abYIQL2jAADq26+VTyvnJFGyUdP/o8xWRpMvDPSRgWfSOQANgQIAqGPT23rXTm9b6vv3r1c64jh6UHnjiq6WDmWP9JPK91flIqXYEwoB1KnQBvY4TVmYNUvWqxyTNYHaok7/zCSJXqOmr+q/SsXAzc1tvY+kH9yJFV0z/KTBz2iz4IcEFSTL9ccvlAua25aO6RGA1vYF4zXxe2iJ4nj4Jx5mtyt6TIR79H77ejpn+zQFwrZEKW9MjCg6XfHIm0GgAMiPAgCjYlb7Aq9/TpM66iY10yNySfaM/n59oL+nc46vzs9t+fwWj9n/Y73u+SoArsyWDk2dv7+3H/Rzjt6HH/3rE/+b9ef8uKn/082fuHvMO1gVAHtq8nLlP1UADLqYMfGdDSoOst9PKkl8VOI6pV3Ln07iaOPiebNL+l2hYVAA5MQpAKAKWju6faHewcosxeP9f13xYXzHo/75vP4p6hRLPYzv0wL/qNyQzu2c97597UBrOpfx0YD/qkTnX+AjDHcoLkBOzpK8UdP/UDwQ0mB7K6/X+/uJpt5gf2RmR3doOzRAWTgCkB9HADAirR0LfBjbY/UfrVVtmqZTvbxgknb0vWfre/kf04o4QXu96ce13CP9PaRlf9b0zz2dc8Z0dL6VnTNi7UG70LhG7+F4vYO/qP3txMMPx/Gy6ecuqdqetX6HLkxeqrxMv0O9t+i1ykuUwXc69KtC+V2cRN9RrmhKonXXds32KRCEhSMAOVEA5EcBgKLUWXl8/oOUKVq11HElnj/EH9L8y6IkLQDcufoBPx5+1x39jZr+fEL/pGXXXPK/q9LRrpg/4/mauHP9gt6XRxa8WtMOZVPzJ5ZWau9/p1o7uqfrd+qjA29WVBTE+j0PkkTL9OenlBt7Omf/LV2GkFAA5MQpAGD0+Lz7vyu+V96H8n14er46KndYL1Tc+X9ReadysjrYt2va1TN/9r3V6vwLXqn8WO9HHWz0Nb3fTzSfu3RjLXX+1jNvti9I9AiI/6m4EN9enBZbHibZF0EC2AmOAOTHEQCkZnVcOilKYp/HPz+O4v2iONlLbc/vrVVrgj9Htir/T/mN9lB9G53H2n9ce6ibNa265Ze0HB0lyWvjJDpOs9dqi3Bzc9vSVdlHa1NrxwI/Cvk8/Y59zYJPo+y4HfN1BF9XwXBZNotAcAQgJwqA/CgA4CvWX6PdY/87OEx5jwqAvbU27XhEzeeh1ysfU65Vh7TaC2uJCoBpKgAOUgHgjvSO5rlLn8o+UttaO7q9of6g8g5lx+1Yv36my8dHG87+ZWcH1wKEgwIgJ04BADm1dnzZHc5b9Mf5cRyfrTy/SOdvSRIlW5U+pSY7ounn9q6c3rb0BnX8i8ey85/ZsWCS4gv6RkUcNy3W5BtKsd+r/y6evzWadGhr+5dH7XsCjYYCAMjPncqLFB+KHo7XL9/b/lnlDC8ImH9Xg++CKMv1F5/pYY992+BQ1ymcpDJBv/fYp2UAFMEpgPw4BRC47AhA0xVafXxF+rDrkPb83UH5ATv3xlGcPmtfC27X5AZ94e0982a7I6t7J8+9PE7ivl2S7EK8U5UZ+vm2jWGg34PbW+Mk8oV831H+1NM5p6wjDq0d3erk04stn7uXn40U6Ecbv0XfZ0QjIaLucQogJwqA/CgA4M7ng+rVfBX/KxSfAhjxoWYVAO6YbtXK5+mz9/gn6TP516rhB++403pSr7shiuMtPRdX5772We2XjdP7maTmLooH3zlA79uj9O2p95YdQcz2wb0tmaQC4MWa+l79w7XguU8lzEbw890RK/Rz/UYF0G/S5SUYtgDI3tW9ysn6Hg+nS9DoKAByogDIjwIAqdb27tdpcpZymDo+30u/56BOL/+6lXjo3egBNTx6322KOsnoCb2UD3VvUYbjDi9Nkvi8eDacsL5e76PwR3ZKwnF7RO9Pr+KO3+MZ+J77Q5Xj9IUeMvggvcLAnQ4jojfkOyJ8xMNj+G/V63xDnfOF/lgpRlAA3Ke4AHgoXYJGRwGQ04g2Ag2EAgCjRgWA94x9jn+CCoC3aPoOrVADQ+nmX7eStNNSJ5k+1tfFgJ/B36eXSjt2ZTg+QuCjCZvUaa/Xp/vug2eyTjqeqDfjztqduQsUj1Doq/53Sq/ln2OgcPBr+LX8c4/XR3L9jPoBHtfkFmWe8qC++FF1ziWfBthJAeDfh48AnMIRgGBQAOSUawVuABQAGBOzOrp96Hu6VigP+OPe7iX641VawzwojTreeEQdbhlcIPgUQp86bRcRPmLgAkIdd9yk9+UO3B2lO3G/F8+PkfTowwb9cY+m7vBv9VK9Dxc2HqFPG+r46cXzzipr8KPhrwGIntafvtbi3T2ds33aAY2PAiAnCoD8KACwU63t3QMFgM+HuwBoUofozndPLd+vUCjs68/Vx+p1PVSHnvhZBg8omqanKvwEwW0FQBIlt/xq3tmFAmD0tHYs8GODX698V9/3OcVVkiReTz0q4GWLO+esTRei0VEA5EQBkB8FAEoyK3sCoMezf61WPD/tzkPweg/dH3an5YajPfb00bfpHruWTnRbHxjDvXbz5QPpUQSfq9+ivWifhvB8v0qUwkWI6emIAY/ra7zRvUa5Ux97sGfe7HXpR8aYCgBffPkupU3fd8cCQD9H8t9JU99ctdf+6qKPV+UCSlQcBUBO2ZYnHBQAqBoVAF7fJql/2lUN3xbnc/FqZquhul938F62lwoAHx3wg4WOUgFwlKYH67PG8J72dK/df/juA1889ycVAHdr6gvonlAB8ISmA9cjDBi4XsGH2zWNt6gAqEhnqwLAnXuHvqd/T9kv8FkuAC5XATCHzj8oFAA57bjiNDoKANS0We0LfJpABULsowW++n5fFQDu5KZoZfVFfGMk7dddALgz98V6j2mRr9b34fONcVO0oefiOTXRmc5qT4+k/KuKknZNvQ3bbjumQuoKTb61uHPOL7MlCAQFQE4UAPlRAABVos7fR0neqHxUBcDfpQsL1PG7inGR8sEo6f+fxfPP8Z0QCAcFQE5jfE4RAEZHa0d3kzr9Kcqnn9P5Z4cwfL2Cj148QecP7BwFAFAls9oXxD7k72lhEYZ3uPJ5xbdc7sgFwJ8UPx3wJi8AMDxOAeTHKQDk1tqxYJK6KA+he7xWu2ateb4I8JGmpugbTU3xul9+4SwuVhvGrPbu/TQ5TXv+/6rp/srg6yG2qvf/tabfVL6/eN5s372A8HAKICcKgPwoADAirR3dHiXQw+c+Tzuok1UATFf7LVrtjtaa5yv671QB8IaJE8c9fvXnP0YBUETh6IiHIZ6p39s7VQC8J/1Axrcr+kFLS5Wv9cyb7ccDI1wUADlxCgAYA4Vb/nz7XqdypTqvK6M47lROKnT+1t/fl2ym8x+Wx0Bwwf2B7Tt/X/CXuPP/s9JB5w/kRwEAjCJ1/OOVI9T8N+XLivdIBh4QtD0P/JOwDg6ltb27WZMPK59RPKTyYH5g0mf1S/yYph5yGEBOnALIj1MAGJI6f5/bP0/5e61cR6YLh5IkfkiN91yfjOL4D8pv1V7bc3F9XA/Q2tF9qAoYX5jnjnoXbU2unzhu4u2Lvvjhssb4t9aOBTP12q/XJsrj/bfotf179e/FAw99X7883+N/a8+8Ocs1BYxTADlRAORHAYAhqVOcqokfUDNDGen65cF3rlP+n+IH1/iiNneiPsT9uF5kTc+82e74Kkp74Lvrffj8uzNJ78NPABx8xOIkddIDQxrvoY91a/ojxT/PfXrPuW/FUwHlJw0eHkfJOZq+Wb9CP2ZZkgf1hwqm+ElN5+q12evHjigAcuLwIzD6fHFanr14nyLwfe0uAK5VXED8RHGH+k7lRUo1vFR5v+JTGT9UvGH0exvIvyt+/LEfzOPx+M9Sfqp8S/FRgVxOOP8yF0x+SJJ/D+9VXEwN+LbiW/zeqvzBCwCUhyMA+XEEAENq7ej2UL7HKx9R3qL4ToC8fIWbH+frp+s9rJV0tabeqy6mP0kSFxs+YpDEUZwWHr5CLptEsb4+TvyhbH33vAv/QjTrpcUk0RS9gIch3kfZTZ82QZ+7s8ca+334aMVt+lrvpf9m8bzZ3/EHhqPf2xn6/Flq+sLJ4/W9dtMb+L3alylPKX9UVvXMm8MtfhgKRwByGmrVb1QUAKgIdWhv0OREdWouALx3/8K0Ax1d7uA9Aq47fccFQLZMf3iquMNXY7sCwNOBAsD/e3606FulxcsN+ua36JVvUgFQdIPa2pHe4ufiQnv18Wn6fD/hz+f6r9IH1uql/DAiH3l4Wh1/niMqCBMFQE6jueLXAwoAVNSsjm7fxtalHKduWXu1qQO05j1P/a4f92t1vB6mxYf3ylfrx/A5fz9G2EcuOjX9Tc/82b6m4Tla2xe8SD+1ry04RPmcMiGJYl/zcL9ylooGP4UQyIMCICfvBQAYI4VR6T6tvElp1e7xqZr+XPGY9Y3AnfYyxUP0+noFXxT4ZnX+v9DUpy6G4usHrlYuUDyC3z8q/t18UPHdEQDGGEcA8uMIAEr26nO74knjJhwbx/EBcRT72f+SHrBv1sTXDhym7B/F6eOAa2H9TFS0+JD+Y8pyvaE7NL1TUWHj0w2JL3j09Qn36Gd69PqLR3a3Qmv7ghP1M+6vr/dRA4/h/3DPvDk8wAfl4AhAThQA+VEAYNS1dlz64iiJj1XTQwe/oFAAbKNO2EfrfA3BFBUOvur+eYpPKeyaJIlvnfOphvH6uglaqX2h3uB129cE+OI8ddbqzJNoiz64SfPurNcnsTrwJH3u/xot36jX2O4+fn1vH8V4Qlmlj/fGE7Yuvf7CT3AxHmoNBUBOgzcSIaAAQF2aed6Xx6sn3iOOmppVAPgWO98a+AJlqgqAgYJgd3XevlrfBcHgq/X7VAC4w96g7vwZvc46fY6vrPc99X9TAfCQlq1Se7n26Z/omc+V9qhLFAA5UQDkRwGAqpjZ8eUmFQDaw499JMAXEDrjVAAUruhXYnl2vR6YpgPne6r/+/Vnvz4wcOfAVhUAW7XMh/m3qADoVwHgzwXqDQUAhuUCoLAhLDn+RwYAqC3eNhfbZueJ+4hgcBcAAAABogAAACBAFAAAAASIiwDz4yJAjKpZHd1+cuBxWhmzxwcn0Q/GR023/rLzzO1uxwMwLC4CzIkCID8KAJSttaN7miZ+2t64JIpe60VaGV/lj6kAOF9/fqunc/Yj6TyAkaAAyIkCID8KAJRFnb8H7fm44uFwfc/+juvh95QrlOtUDfj2vP6eeZW/NW9We/qwHp8m9CMD+1SQVPw9ADlQAOTENQBA5V2knKm4ECjG4+nrc5KrNPX4+gd6YRX4+/qRxmcnUXJUa3u3n9QHoEFwBCA/jgCgqJPbvjJOHeWuSZz4aX+PL+6cvd0Df2a1d3vs/4OUr2uX+oR04bASP2jnJuU+raoeijeTROu0K75a38MPzXlCK/HaJEmH812nPfUt4+Joy7WdZ217fO4J518Wx0k0blx/NDGOkl20yEMIe6hhjyA4VdlHr+FRBb182wiCSZLsrYlPVfiRvXfrtVdr6Y2TNvVfvfDSczgagFrDEYCcKADyowBANLO9e1+tPPtoDfLz/ser3a9O2MPsrtH8gVp+vwqAB9JPLlAB4M89QvmSCoDsfH8pkugx9b6r9D1UGEQP6Xs/qu/tAsHFgMf336SP+SE9KX2uj/R59EAXIO74/T72UtzpH6AcrK/z8MIuCPx5Q+lTVfBTTb+k11yn77Fq8bw5Hk4YqAUUADlpvQ8KBQDKNvP87iZ1r+/WyvMOrUHek5+s9iZ1wter/UXlbnX+fiZ+USoErlEB8PrCbH5JOrSv197CJJt64bYVuvAxG7x4MC304/zSZuETin7eIP7O/jbr9Zl3a/7fVABck30IqDoKgJx2tsI3GgoA5DKro9t7zH5E79u1shyuzs970e5e99f0CbVu0fR3+pgPy3svfIWybvG82dsOwe+otWOBH/v7Ub3MB7Il9UVVgG9P9COAl6mC8MbyG8r9PZ08RAhVRQGQEwVAfhQADezU8y6NtYs7Tj3cGVo9XqT4KXs+b3+SVpYXZ7ve6bn3m7X2/EbT3yt3qcMf0XPwTQWAz7O/Tnmj4gvrTtX38SH4OpFem/AH5W5VAzdo6qMAf1MBsO20A1AFFAA5UQDkRwHQgE4+r9sd/wHq3PbT7CT181/Q9JVxFPuiuYJktT7nXjX0byD+r8Wds+/Mlpfm1I5Lfb79+X1RfIFe79V6fZ+rd0Gg95AWHjUivRXxKXX2j+p9rY/ixI8S9kbypz3z5vj3AdQCCoCcuA0QyPh+fN+ad51ytaIOOV022JUT4uQMTT1Qz9J0SRmunXe2O9a/Kp9UfOvfm5S5yu1KLXGH/wvlI4rf59uUS5U/KwDqFEcA8uMIQANp7ej21fgdig/LeyjeQ5TnrBdJFH1ff37zgAkbF11xYXt2ImCUFU4N+Na7w/QWfOvdNkkSvViTU5WjNbd3HHsMgXh8+sHy9CdR4kP3PoXxkF5z4LTG48/+EpJN+uNh/RJW9HTOcTFQca3t3fq5oz16Omf/LlsCPAdHAHKiAMiPAqBBqPM/UZP3Kt6zHZZ6/LM0+fHiebP/li2prFnt3b5dz3ccvFTvZooKgAlafbfds18GFwC+qM+d/F/1mndo2quf07czVp06fg+WNMvR+1zfH0Xz1N706845Q15kiWBRAOREAZAfBUCdU8fvjtP3wPs8//uUna4HKgDerE7x54VZVEBrx4Jd9Yv3QERd+it6pQqAu/X38AnN3/urzjlD3maJYFEA5MQ1AAjRFOXzivcsR2r8zKxwQOV4Y/455RXKwCBKHmfhYAVAmSgAECJffX+U4vPsIz0Kdk6cRO+f2f6V3ZTQjpxVjIqsJmXyrI7uj2r2s/rbOUGZrKj4ijfEUXy/4tMVAMpEAYDg+Aq+QkbckesTfbTgfXHU/9446nvXrPZLm2fOvZQjAqNkVvuCKcrL9XvW7zd6vxb9s37rb1B8S6QLNv+V+foLn4Z59rkIAEoW2p4M1wDAo/v5ATidyslaAV6oaY71IL1g7pkkiT6j6S/0pes13aL5p381f+SDAYXulPO6m/qTbQ8lakqSxKMtvjOO4w9r6sJqx78TX5T40555s1UYAEVxDUBOHAFAiNyZ/IvSo3jPMg+vM+60fO++xwvwxuKrygknfuKrrE8jt6/yj8r3FY+98HXlXcpQR1W+onw6awIYDRwByI8jAA0ivQ0wSZ93/3fKi7U2eJz/XLTn7yMCPiR9m7JSK5QLCg/w84Be707tsS5WO1innPfl8fod7ZEkTW/V5ual+p14pENvdzw9VPH9/T4S8JziSb9IH/L3bYk36AsW6nfpda+oWe3pLZ0zlK8v7uRITKA4ApATBUB+FAANpLW9+6WavFs5RGuDLwycrpQ+DG+yrQBYodfzoDU/8+IdrFGn+IBWvwcWd55V9xe0qZDygEQep8CDFfn0yqDtSuLz95P1W3mvFs/QR3w1vz9eZNuTPmnQgxJ5dMQV+pS7NPXARNcsnjd7yMcO6/u/Wl/5DjVfpHxwceccP6gI4aEAyIkCID8KgAaljsTnn331+SHqjPzEPw9CMzGK49E+tL9UPd33tfp5dMHH4zgqNqiNO0PbqlafZvuampr6vVB7woUPjR797OkDhFW/eJvQpPfkQ/GOfvad/vzem3+z4ov3/KTDEf++9P38szgb9Y23qLFO7V8qX1s8b86wo/7Nal8wPo5jHz34vl7HD2xysfV5fZ2vy0B4KAByogDIjwKgQakT9G2B+6o/8gOAJqpbeqem7tT2VhEwmuvKenV7Pm3wuLJVr1ysQ+/XQg92c4f6SO0JJ/eqDvmL5jdp+RbNb9HyLYs7z/YpiFxO/uRlsfaYm5Kof7z6+3GxhxROIu/FT1RH6qGIvTc/Te/LR0RUDMU+Xz8cFwoeW+H5ysAh/hHR9/PRkkeVefqiG/Wz+efxcMOPqiMfck9+1txLd9ffiYuNC/VXc6hex9cS/B/lYX0dowSGiQIgJwqA/CgAAnDqeZeO6+uPXq5V5JWadWfjxe4ID1f89+9D3Ts+LGg0uQDw8/UfUEf/kKar1dG5aNiadZJJn3pPd5aJlmtRLv5h9EXp0webVAA06bXSPX4t8wWOk5Wp+pFdCKhTj33YfjT4dIc7e2+o71Ge0Pfzz6COPrlu8byzl6s9rFM6FkxU7/7PKqB86sana87Q+/yhpt/smTfHF2UiXBQAOVEA5EcBEKjWjm6fY/bDg1qV/ZVd1YGlnak6UBUE8VS13HnuoYXuXENbvyTpKxQu2ouPH9UvwOfuBy7K26A8qPjCyJt6RvhchZMv+FKcbBnvzt6H+X19xr/rtY9UEeAjJHfpl/8fKgJ+e/28OWs1j3BRAOREAZAfBQC2mXnel70OTYz7m07R6nSq1igflj5CC31u+llJWijoUzRJCuvd4D/rQ5Jepif+KdKWGrEPJmyTbNSMO/Zb9ZGf68f9Vc/Fs93p5zarvTuOmvrjuKl/YtQ37jN6vY9psU9R+Pv5rdyi6T9p+SOLO8/iyn9QAORUTxuf0UABgFHnIkAFgDqmeC+tUT5cvrtWrO3vZ08SnzLwHuzB+jw/4KZZn+tBiPz5I75orsqeUK/rztyH6lcqy/QzPKQCYNCedzJw6kLLYl/guEYFQO47HXx3hl7nFNUWb9PseP0+/XvzKQlfq+BrA76tAuC/NL1HyzerAOC8PygAcqIAyI8CALm1ti/woWtfJLevVjs/ifAFWvtcFPhIQdH1sHB6wXciTFLD1xtkdyUksae+UDG9WFEd5baP+QDDYPrYVv3hDtnxBXcb9DnaS0+yZdnHNunLvAe9KVIpo+lQnlYB4AsXfZue9vKTR1S6PL744rN9aL8ss85b4FsFj1AxcZxmd1f7IL33Fv1mfERl4MfyRZC+0v8x5bqeebN/64VAAQVATjtsLhoeBQDqxsyO9PTCrnHU5GsKfHW9ByraVQWAL9TzvIuK3dRRet6FxK5FCoBN+sMd9EDW6XPWqQDw+fMN6ceS5Gl9mW+/e6Znfv67CkrR2tHtCypdAPlnaNL78TUVrSoA/kFTH+b3nr4Wp+MC3Kc8ra3V71UKXKj24z0Xn+ViBhiMAiAnCoD8KABQUbM6Fgzu1+PswICm/k89vP5P53fs/C39WPYJhU/TV2efl7h31f/6L4kWzz974OMVoQLgQ5p48B7v4fv2w4E7EjxwkPld9uvdeW//vcptWrJeP+Vmdf4Vfa+oGxQAORXZZDQ0CgCgQmae/6Xxcd/4w9Sp+wE+ByqDh/z1qIE+p++9fW+H0m2RenaPAfAD5VYteFgLfIridmVNT+dszvNjOBQAOVEA5EcBgOc45ZPdu/X3p2Pbn6T4HvuHtGN9b9+mSX9sGre1/9dfOrOhOq9ZHd3xuKZoXF9/4usZ/CS/Q9TR+5qEbfQ78GH8g7Xcz1rwIEs+hbHtgkd19t7D94OZfqUN0WptjXwHgS/wu07tuxdfPNvXGwAjRQGQEwVAfhQAeA4VAFNVAHjj0a748ba3qzP7VZQ03RxHyYR0rJ5ix+gzm9VZblRnmJ6nV4e5VWum76fX/+ok9QLqDN0eNbM6FmTjFGQnBPyH530ofpKWqqOO3Vn76vttHfaAwhsZp4/5849Q28MAn6L3PTDO/2Dpp+v34XP56+I49rgA/jlVH6UFwCp9yUX62j/0dJ7pvX+gVBQAOe24sjY6CgCMCRUAsQoA7wH7gry4vy/eGjclHjVwtnKUetqp6mYHzm/v6H51pH9QZ3in2r3qDP+mNXOdOsjClfnR5qY42nL9RbPLvkDvhPMvjcf1R+ObkvS9DNxR4LsMfHj+YL0PP7HvSLU9CuK+Wr7dXr0VCoC0ctDn+3V8F4JeIysmlMHU97uvT8/lL1QB4MP7PqTv2wX15X4OQrzORY8KgMJLAyWhAMhpx5W10VEAoGJmze3eW12ix9P3OPm7aG1L96bV67mz9S1vHmbYYwLsomU+AuChfp/Q8g36XD8Yxx2+Tx30aUV151j2aQR9n4FO2u9lnGY9VX2RXnW/hz4+WR/1+/XIhrsUlg8vSfy+fBfBan3NMk39CN/leh3v6acVgCYeC+DBpjhedf282S4GgNFGAZCTNwQhoQBA1c08b8GucRK9VB39KzTri+F8Idz2zxVI0qvivXfuAYb88XSAIWVXrbU+PD9w7/9o61N/7VvsfPRhvb7X0/r+Pi+/VtWDz9c/raJm+1H3sgLAn6OOPV6hjYrXkVXX81x+VBYFQE4UAPlRAGDMnTJ3wQTtNk9Rjo7i+GgteoniK+k9gNB+mvoe+tF6SM9gG1UAeG/eRyMe1Pd6QJsJD8BznwqA+9RetbjzLPbgUYsoADAsFwA+HFlO/I8MAFBbvG0uts3OE/cRwXjOFb4AAKDxUQAAABAgCgAAAAJEAQAAQIAoAAAACBAFAAAAAaIAAAAgQBQAAAAEiAIAAIAAUQAAABAgCgAAAAJEAQAAQIAoAAAACBAFAAAAAaIAAAAgQBQAAAAEiAIAAIAAUQAAABAgCgAAAAJEAQAAQIAoAAAACFBoBcCWwrQcuxSmAIDaMRrb5tHoI+pGaAXAXwvTchyi7JY1AQA1wNtkb5vLNRp9RN0IrQB4qDAtxzjlmKwJAKgB3iZ721yu0egj6kZoBcAaZUPWLMurClMAQPWNxjbZfYP7CDSwZUpSZlYr+ygAgOryttjb5GLb6jxx3xCUEO8CWFWYlsP/4C7PmgCAKvK2eDR2yEajb0CN61CKVX+l5FNKrAAAKsvbXm+Di22bS4n7BjS4lyjF/vJLza+VZgUAUBne5nrbW2ybXGrcNwQl1L3Xe5QjsuaoeEb5iXKbcqvyR6VPAQCUz1f4H64cpxyrnKHsroyWPyhHZs1whFoA/IdyQdYEAATuQuXTWTMcIV4EaN9VfMgHABA29wXuE4ITagFwt/KdrAkACJj7AvcJwQn5CvZpyp+UiekcACA0m5XDlJXpXGBCPQJg/gv/StYEAATIfUCQnb+Ffg/785X7lL3SOQBAKJ5UDlUeS+cCFPIRAPNf/LsVbtkDgHB4m+9tf7Cdv43G05Pq3XLlKeW0dA4A0OjalOAvBKcAyNyivFB5eToHAGhUX1OCu+e/mNCvARhsgnKV8sZ0DgDQaK5W3qpsSecCxxGAZ/Ur31c8vORrvAAA0DDmKx9StqZz4AjAEN6v/F9lUjoHAKhXm5SPKN9K57ANBcDQjle+rRySzgEA6s0y5X3KzekcthP6bYDD8T8YPzHwHCXoW0UAoM54m+1tt7fhdP5D4BqA4fm6gN8rX1X8wAg/htIXCwIAas8GZZ7yD8qNirfhGAKnAPKZrHi8AD+L+nRligIAqJ41ykLlJ8oixeO6YAQoAEo3XjlJOVE5UDlg0HQfhd8tAIwOH4F9VHlYeWjQ1Hv5Nyhc2Z9bFP3/xiZ22EhlhHoAAAAASUVORK5CYII=;" vertex="1" parent="1">
          <mxGeometry x="317" y="220" width="80" height="80" as="geometry" />
        </mxCell>
        <mxCell id="Apy_nMzA6MKSCh_NEfZ--92" value="&lt;font size=&quot;1&quot; style=&quot;&quot;&gt;&lt;b style=&quot;font-size: 20px;&quot;&gt;Serveur de simulation&lt;/b&gt;&lt;/font&gt;" style="text;html=1;strokeColor=none;fillColor=none;align=center;verticalAlign=middle;whiteSpace=wrap;rounded=0;" vertex="1" parent="1">
          <mxGeometry x="232.5" y="190" width="251" height="30" as="geometry" />
        </mxCell>
        <mxCell id="Apy_nMzA6MKSCh_NEfZ--99" value="" style="group" vertex="1" connectable="0" parent="1">
          <mxGeometry x="511" y="733.5" width="251" height="152" as="geometry" />
        </mxCell>
        <mxCell id="Apy_nMzA6MKSCh_NEfZ--96" value="" style="shape=image;verticalLabelPosition=bottom;labelBackgroundColor=default;verticalAlign=top;aspect=fixed;imageAspect=0;image=https://cdn-icons-png.flaticon.com/512/969/969438.png;" vertex="1" parent="Apy_nMzA6MKSCh_NEfZ--99">
          <mxGeometry x="69.5" y="40" width="100" height="100" as="geometry" />
        </mxCell>
        <mxCell id="Apy_nMzA6MKSCh_NEfZ--98" value="&lt;font size=&quot;1&quot; style=&quot;&quot;&gt;&lt;b style=&quot;font-size: 20px;&quot;&gt;Broker MQTT&lt;/b&gt;&lt;/font&gt;" style="text;html=1;strokeColor=none;fillColor=default;align=center;verticalAlign=middle;whiteSpace=wrap;rounded=0;fillStyle=auto;gradientColor=none;" vertex="1" parent="Apy_nMzA6MKSCh_NEfZ--99">
          <mxGeometry width="251" height="30" as="geometry" />
        </mxCell>
        <mxCell id="Apy_nMzA6MKSCh_NEfZ--102" style="edgeStyle=orthogonalEdgeStyle;rounded=0;orthogonalLoop=1;jettySize=auto;html=1;" edge="1" parent="1" source="Apy_nMzA6MKSCh_NEfZ--48" target="Apy_nMzA6MKSCh_NEfZ--96">
          <mxGeometry relative="1" as="geometry" />
        </mxCell>
        <mxCell id="Apy_nMzA6MKSCh_NEfZ--109" style="edgeStyle=orthogonalEdgeStyle;rounded=0;orthogonalLoop=1;jettySize=auto;html=1;" edge="1" parent="1" source="Apy_nMzA6MKSCh_NEfZ--48" target="Apy_nMzA6MKSCh_NEfZ--111">
          <mxGeometry relative="1" as="geometry">
            <mxPoint x="85.46153846153857" y="950" as="targetPoint" />
          </mxGeometry>
        </mxCell>
        <mxCell id="Apy_nMzA6MKSCh_NEfZ--113" value="" style="group" vertex="1" connectable="0" parent="1">
          <mxGeometry x="-80" y="890" width="251" height="120" as="geometry" />
        </mxCell>
        <mxCell id="Apy_nMzA6MKSCh_NEfZ--110" value="" style="shape=image;verticalLabelPosition=bottom;labelBackgroundColor=default;verticalAlign=top;aspect=fixed;imageAspect=0;image=data:image/png,iVBORw0KGgoAAAANSUhEUgAAAgAAAAIACAYAAAD0eNT6AAAAAXNSR0IArs4c6QAAAARnQU1BAACxjwv8YQUAAAAJcEhZcwAADsMAAA7DAcdvqGQAAECJSURBVHhe7d0JYF11nff/c9KNTVqoIIsoTRFZG1RQVMA2gIKOoqOOOqOOPj4u0IKSJog4juP4DApNg39pEJ/RGZcH9xHcaBFIFVBBtqaACnaTVctWWuienP/nc85NSctNmnNvcrff+wWfnt85SW5u0p7z+57td+IIpRqvnKScqByoHDBouo/C7xYARkeiPKo8rDw0aHqjcoOyVUFOdFL5TFZOU85QTlemKACA6lmjLFR+oixSnlIwAhQAI7On8knlXGVXLwAA1JwNyiXKRcpaL8DQxhWmKG6CMlv5sfKGwjwAoDZ5G+3Tsh9WNip3Kv0KiuAIwNCOV76tHJLOAQDqzTLlfcrN6Ry2wxGA4t6v/I+ybzoHAKhHeysuAO5Xer0Az6IA2J5/H/OUixVf5Q8AqG/elr9NeZ5yveI7CiCcAniWzx1dpbwxnQMANJqrlbcqW9K5wHEE4FlfVd6VNQEADeglyv7Kz9K5wFEAZD6uXJA1AQAN7OWKxw64JZ0LGKcAouj1ig8LUQwBQBj6FJ/u/WU6F6jQC4DnK/cpe6VzAIBQPKkcqjyWzgUo9L3eC5WZWRMAEBCP6jpJ8fDBQQr5CMA05U/KxHQOABCazcphysp0LjBNhWmIPq/Q+QNAuNwHuC8IUqhHAI5SlipcBAkAYfPAQDOUu9O5gIR6BOA9Cp0/AMB9gfuE4ITaCd6jHJE1R8Uzip9FfZtyq/JHxbeZAADK5wvWD1eOU45VzlB2V0bLH5QjsyYamUeC8iGf0cqvlWYFAFAZ3uZ621tsm1xq3DegwXUoxf7yS8mnFE4lAEDledvrbXCxbXMpcd+ABnedUuwvP2/8uGAAQHV5W1xsG5037hvQ4JYpxf7y82S1so8CAKgub4u9TS62rc4T9w1ocOuVYn/5eXKuAgCoDd4mF9tW54n7hqCEdhvgFMXDP5Yr+KdIAUANGY1tsvsG9xFoUL7No1jllydbld0UAEBt8DbZ2+Zi2+w8CepWwNCOAOxXmJbD54mCO1QEADXM2+TROIc/Gn1E3QitAJhQmJZjY2EKAKgdo7FtHo0+om6E/DAgAACCRQEAAECAKAAAAAgQBQAAAAGiAAAAIEAUAAAABIgCAACAAIX2KNvTlIVZs2S9yjFZc1SNU1qV4wo5SgnqnlQADWmLcrdyayE9Sp8y2pYoLVmzZKcri7ImGo0LgGLDP+aJ/5GNtsOU3ynFvh8hhDRSvK3zNm+0edtc7PvlifuIYHAKoPrOVO5Ujk/nAKCxeVvnbZ63fagiCoDqeo2yQNklnQOAMHib522ft4GoEgqA6vHTq76p8HcAIETe9nkbyNNVq4TOp3rOUQ7JmgAQJG8DvS1EFVAAVA+HvgCAbWHVUABUzysKUwAIGdvCKqEAqI59lAOyJgAEzdtCbxNRYRQA1bF7YQoAYJtYFRQAAAAEiAIAAIAAUQAAABAgCgAAAAJEAQAAQIAoAAAACBAFAAAAAYoL01D4Wc8Ls2bJepVjsmbJDlZWZs2SPa2cmDUBoGpuVPbImiWbpqzKmiVborRkzZKdrizKmmg0LgCSMuN/ZOVyAVDstfNkjQIA1eZtUbFtVJ54m1gub5uLvXaeuI8IBqcAAAAIEAUAAAABogAAACBAFAAAAASIAgAAgABRAAAAECAKAAAAAkQBAABAgCgAAAAIEAUAAAABogAAACBAFAAAAASIAgAAgABRAAAAECAKAAAAAhQXpqHws54XZs2S9SrHZM2S+dnXK7NmyZ5SpmRNAA3gEOUVhRyuTFDKsVG5S7lduU15UBkLa5TJWbNk05RVWbNkS5SWrFmy05VFWRONxgVAUmb8j6xcLgCKvXaeeKUDUP+mKt9Tiq3no5V+5VJlN2W0eVtU7HvmibeJ5fK2udhr54n7iGBwCgAAqsd7nHcr70rnxo6P9s5RfATzOC8AKAAAoDpeqvyPsl86Vxk+zfBzZZ90DkGjAACAyhuvfEvZNZ2rrH2Vy7MmQkYBAACV91HllVmzKv5eeVPWRKgoAACg8mYWptVUC+8BVUQBAACV51v9qq0W3gOqiAIAACrL98z7vvdqK3c8E9Q5CgAAqKxnlE1Zs6qeLEwRKAoAAKisrcrSrFlVHiEQAaMAAIDKq4XOlwIgcBQAAFB531Q8PG+1+DTED7ImQkUBAACVd7PSmTWrokMp94FkqHMUAABQHf+qVONagGuUr2RNhIwCAACqw3cCnKB8VfGT6MaaLz78vPKWdA7BowAAgOpZp3xMOVXpUdYqo+0x5RfKqxQfddisAOkjIkPiZz0vzJol8+M0yx1Aw8++Lvf821PKlKwJoEF4m3yocpQywQvKsFHx9mqsz/WvUTy4UTk8MNKqrFmyJUpL1iyZH8+8KGui0bgA8KG2cuJ/ZOVyAVDstfPEKx0AVJu3RcW2UXnibWK5vG0u9tp54j4iGJwCAAAgQBQAAAAEiAIAAIAAUQAAABAgCgAAAAJEAQAAQIAoAAAACBAFAAAAAaIAAAAgQBQAAAAEiAIAAIAAUQAAABAgCgAAAAJEAQAAQIAoAAAACFBcmIbCz3pemDVL1qsckzVL5mdfr8yaJdus/HfWBICq+aAyMWuWbJqyKmuWbInSkjVLdrqyKGs2PgqA/GqlAACARkEBUAWcAgAAIEAUAAAABIgCAACAAFEAAAAQIAoAAAACRAEAAECAKAAAAAgQBQAAAAGiAAAAIEAUAAAABIgCAACAAFEAAAAQIAoAAAACRAEAAECAKAAAAAhQXJiG4jRlYdYsWa9yTNYs2cHKyqxZso3K57ImAFTNZ5VdsmbJpimrsmbJligtWbNkpyuLsiYajQuApMz4H1m5XAAUe+08WaMAQLV5W1RsG5Un3iaWy9vmYq+dJ+4jgsEpAAAAAkQBAABAgCgAAAAIEAUAAAABogAAACBAFAAAAASIAgAAgABRAAAAECAKAAAAAkQBAABAgCgAAAAIEAUAAAABogAAACBAFAAAAASIAgAAgADFhWko/KznhVmzZL3KMVmzZH729cqsWbKnlClZE0CDmKocqxylTPCCMmxUvL26XVnrBWNkjTI5a5ZsmrIqa5ZsidKSNUt2urIoa6LRuABIyoz/kZXLBUCx184Tr3QAGsP/UpYrxdb1ctOv3K28WRkL3hYV+7554m1iubxtLvbaeeI+IhicAgCA6nmh4qOSX1eavWAM+EjvkcpPlW8peykABQAAVIkPm/9WqeRe5/uUa5Xx6RyCRgEAANVxiXJQ1qyoVygXZE2EjAIAACrPF5t9MGtWxb8oR2dNhIoCAAAq752FabX4DoO3ZU2EigIAACrv5YVpNdXCe0AVUQAAQGXtoviq/GrztQAIGAUAAFTWOKUWtr0TC1MEigIAACrrGeW+rFlVdxSmCBQFAABUnofnrbZaeA+oIgoAAKi8XxSm1eJhb6/OmggVBQAAVN53lWoWAZcpHoUQAaMAAIDq+LDyRNasKD906JNZEyGjAACA6nhEOUW5J52rjJuU1yu+EBGBowAAgOq5U/H9+BcpW71gjKxX2pXXKSu8APBjIkPip2750Zvl6FWOyZol87OvV2bNkj2lTMmaABqABwhqUVwQHK54uN5ybFTuUny1v48ybFHGwhrFTzYsxzRlVdYs2RLFv79y+BkNi7ImGo0LAF/9Wk78j6xcLgCKvXaeeKUDgGrztqjYNipPvE0sl7fNxV47Tyr5aOaq4xQAAAABogAAACBAFAAAAASIAgAAgABRAAAAECAKAAAAAkQBAABAgCgAAAAIEAUAAAABogAAACBAFAAAAASIAgAAgABRAAAAECAKAAAAAkQBAABAgOLCNBR+1vPCrFmyXuWYrFkyP/t6ZdYs2XrlQ1kTAKrm68puWbNk05RVWbNkS5SWrFmy05VFWbPxUQDkVysFAAA0CgqAKuAUAAAAAaIAAAAgQBQAAAAEiAIAAIAAUQAAABAgCgAAAAJEAQAAQIAoAAAACBAFAAAAAaIAAAAgQBQAAAAEiAIAAIAAUQAAABAgCgAAAAJEAQAAQIDiwjQUpykLs2bJepVjsmbJDlZWZs2SbVWuz5oAUDUnK+OzZsmmKauyZsmWKC1Zs2SnK4uyJhqNC4CkzPgfWblcABR77TxZowBAtXlbVGwblSfeJpbL2+Zir50n7iOCwSkAAAACRAEAAECAKAAAAAgQBQAAAAGiAAAAIEAUAAAABIgCAACAAFEAAAAQIAoAAAACRAEAAECAKAAAAAgQBQAAAAGiAAAAIEAUAAAABIgCAACAAMWFaSj8rOeFWbNkvcoxWbNkfvb1yqxZsqeUKVkTQAOZpByiTEjnSrdRWaZsTefGzhplctYs2TRlVdYs2RKlJWuW7HRlUdZEo3EBkJQZ/yMrlwuAYq+dJ17pADSGw5WvKXcqm5Vi63wp2aDcrFyqHKiMBW+Lin3vPPE2sVzeNhd77TxxHxEMTgEAQPV4GzxXuUP5kOKji+Xu+Q+2i/IqZY5yt/I+BUhRAABAdfgU7M+UTsUd9VjzKcNvKV9J5xA8CgAAqI6PK2/MmhX1MeWtWRMhowAAgMo7TPlC1qyK/6vsmzURKgoAAKi8M5VKHPYfyj7KP2VNhIoCAAAq7+WFaTXVwntAFVEAAEBlebtb7lgio4ECIHAUAABQWb4af4+sWVUHFaYIFAUAAFTWE8rDWbOq7ipMESgKAACovNsL02qqhfeAKqIAAIDK+21hWk218B5QRRQAAFB5X1b8oJ5quUn5QdZEqCgAAKDy1iv/rPSnc5X1jPIBpRrfGzWEAgAAqsOH4P2QHj+2t1L85D4/EGh5OoegUQAAQPX4wTwvU/zI3rF2tXKUcmU6h+D5aVQh8bOeF2bNkvUq5Q7i4Wdfr8yaJXtK8f3EAOrfOKVVOa4Qd9TlPhbYRxa8vbpVcYHh8/5jwUcVJmfNkk1TVmXNki1RWrJmyU5XFmVNNBoXAEmZ8T+ycrkAKPbaeeKVDgCqzduiYtuoPPE2sVzeNhd77TxxHxEMTgEAABAgCgAAAAJEAQAAQIAoAAAACBAFAAAAAaIAAAAgQBQAAAAEiAIAAIAAUQAAABAgCgAAAAJEAQAAQIAoAAAACBAFAAAAAaIAAAAgQBQAAAAEKC5MQ+FnPS/MmiXrVY7JmiXzs69XZs2SrVVenDUBoGr+ouyZNUs2TVmVNUu2RGnJmiU7XVmUNRsfBUB+tVIAAECjoACoAk4BAAAQIAoAAAACRAEAAECAKAAAAAgQBQAAAAGiAAAAIEAUAAAABIgCoDo2FqYAALaJVUEBUB1/VR7LmgAQNG8LvU1EhVEAVM/thSkAhIxtYZVQAFTPrYUpAISMbWGVUABUz5cUDnsBCJm3gd4WogooAKrnceUjWRMAguRtoLeFqAIKgOr6mfJFJUnnACAM3uZ52+dtIKqEAqD6PqW8XnkgnQOAxuZtnbd53vahiigAasN1ylHK2co3lLuUrQoA1Dtvy7xN87bN2zhv67zNAyrqNMWHnsrJEgUAUFu8bS62zc4T9xHB4AgAAAABogAAACBAFAAAAASIAgAAgABRAAAAECAKAAAAAkQBAABAgCgAAAAIEAUAAAABogAAACBAFAAAAASIAgAAgABRAAAAECAKAAAAAkQBAABAgCgAAAAIEAUAAAABogAAACBAFAAAAASIAgAAgABRAAAAECAKAAAAAkQBAABAgCgAAAAIEAUAAAABogAAACBAFAAAAASIAgAAgABRAAAAECAKAAAAAkQBAABAgCgAAAAIEAUAAAABogAAACBAFAAAAASIAgAAgABRAAAAECAKAAAAAkQBAABAgCgAAAxr5SUtE5QDlF0KiwA0AAoAADvTp6zpT6L/tbyr5d3ZIgD1jgIAwLCmndvbr6xXc6byuj93tUxKPwCgrlEAABiRON1eJFPiKDloWdeM8YXFAOoUBQCAPFpVCFyk7FWYB1CnKAAAjJg6/qnKocqEwiIAdYoCAEAO8bgoiSYpu66Yf/S4wkIAdYgCAEBePv+/v7JbOgegLlEAAMhrT+VtURQ3Z7MA6hEFAICc4knKDGVqYQGAOkQBACAvTgEADYACAEA+ceSL/56nTEznAdQlCgAAw1o+v2Uf5aNJEk1PFyRq6Y8sAOoVBQCAndlbeYfyonROPb+yQfEzAgDUKQoAAMOK42h35VhlYPQ/d/xPKhvTOQB1iQIAQF5blAeUp9M5AHWJAgDAkFZ0zXhDFCWfUXzFf+xlSRQ9o1yvPOR5APWJAgDAkNTJH6bJKcqgsf/jjcqdyqOFBQDqEAUAgKKWd804UBMl3kNJ9/5NrS3Kw9Pn9q4vLAJQhygAAAzl35T3Z00AjYYCAMB2lne17Km8Wvv6h8c7DPebRNETyjLFFwICqGMUAAB2kOynvFcN3/fvYX8Hu0/5icLhf6DOUQAA2GZ51ww/6W+G8tE4ig5KFz4r0bLbp7f1/qfCLYBAnaMAADDYB5TOOIqLbRs2K1uzJoB6RwEAIFrR1TJe+bg6/n9UBob83V4SfUP5UWEOQJ2jAAACp45/X03OUD6kHKv4lr9tt/1JUsi1UdL0m3QJgLpHAQAETJ3/JE1eo3xDOULxo3531K+sVUmwpbn9ThcCABoABQAQtg8q/6rsqgy1PfCV/z5CcEM6B6AhUAAAAVreNWM35aNJlLxbswN7/oMP+6eSJLpb+aHy++a23jWFxQAaAAUAEJjCOX+P73+mcrzi0wBFJJuV29T4H8V3AABoIBQAQHhOiKP4m8qRyhCdf+rJOI7umz63d6nSV1gGoEFQAAAB8a1+mvyLsodS7IK/wb6gfCdrAmg0FABAAJZ3tUxWZqvpc/5HKx7i9znn/FNJcr9yYZREv2huW/qXwlIADYYCAGhgK7taxqnj31/NVuVTyquUHcf3f1YSPai6YGHcH322ee7SZYWlABoQBQDQ2PbQbv47Nb1CcSGwM99WPjmtYylD/gINrvghwMZ1mrIwa5asVzkmawK1aUXXjN00OVJ5t1Zz/7v3rX5DSrKr/D+nXBUn8Z+a5y7x4D8lWTG/ZaImb1U8wNBavfjnmtu5iBBjbonSkjVLdrqyKGs2Po4AAA1mRVfL4Zr8s/K/FXfEw3b+UZKsjJNkgRo/3DouvreUzn/5/JZYmaXvfY5mP6b4IsO/Kg8rjB4I1CCOAOTHEQDULHXAfpDPPylnKT7kP+yV/kkSPaI/r2pat9Ydd9+0f1s14s565fwZ4/TJU5IoLnyfpF1blDfEUbxc859oiscvOfjc2zelnwyMPY4A5MQRAKCx+DB+h+JOeSTr9+V9SdOn1fFvzdP5FzxP+XvleuVa5XXKz5Q3a9/iDjp/oLZxBCA/jgCg5izvmnGoJhdo7/tkTQ9Qhu381dOv08S3+l01fW7vn7KlO7d8/gwPHHSw8nFtPDyioNuHKAv0mvdoi3Lf9Lalt2seqDSOAOTEEQCgjq24pGWiOv/j1PyA8h7lhcrOOv8VmvyXckWezn9FV4v38H1tQfa94vitis/1f125Qt/0Sjp/oH5wBCA/jgCg6pZ1zXAnP0kr8MHa6z9bbY/rPxKPqQD4XjQu/vj0j+/8Yr/CHr87+T3iOO7S9I1Jkvgqf981sFrLvtPc1uvxBYBq4whAThwBAOrTnsorFXfK3vMfqfnK50fS+Rd4g/pJxRvFUxV3/j63/0flM4pfD0AdogAA6oz2yl8aJ9G7tPd/vmZ9+H9K+oGh+R78RxR//pXT23pXe+HOLO9q8ZGFTytnKC9RnhclySpNf6B8Ublee/+PaQqgDnEKID9OAaAqls9v8S19h0VR8gZN/y6O41npB4bnQ/Ue0tf/7i9Sh/2oFw5lWVfLrtoo+A6CYxXv+bdoPruVMInu1R89av1Yual57tKN6XKgNnAKICeOAAB1YEVXi8fvn6q8V3X7h3bW+SfaVVe2Kh6M50fq+Nt31vnre+yqyYsVDx70HXX8L3fnn0RRn/KMcmWUxP+pjv86On+g/lEAAPXBo/n5Hv93KNO8YCe85/+AcqFyuRcMR52/9/Lfrg7/3zU9d9tef8aH+X3XwFXKiO8aAFDbKACAGre8a8ZR2pN/U+xR9uLoIMV76kPS5z6uyc3KRco12vP3+f8hqfP3vfxzlPeq4z9R8a2EqSSJ1ukF/6T8MIqje5vbezcUPgSgzlEAADVqxSUzYmWymr7//u8U7/n7trzhuLP/nbru7ynfnt621BftDUmd/0GaePCgjygnKvspAxLlXuXnyq3T23rXeCGAxkABANSoJEkmaA/8SO2Rvz6OYj9ZbzjurP0I3xviqOkr09vuulxZn35kCCvmz2jSN/FFT354j08x+AmC2+gFN2qvf9H0ub2dCuf8gQZDAQDUoGWdR6tzjj3U7gXKa9OFw/MFfn7m/9eU33nBcNT5T9DERYWPLhzmZUV4gB+/HoAGRAEA1KA4jrMBeJLoeM356v+hJcnDyg3KtzV3R3PbkiezDwwtSeLdtYf/D2q+SvFIf89KkrXKzc70tt6/FJYCaDAUAECNWdHVcoAKgDcoc5ThO/8o8WF+3/98pfLr5rbeJ7x0OMvnt+wbxdFMFRZvUqUxvbB4MA8U9N04u54AQIOiAABqjx+x6+xE4vP+Dyq/UL7bPHeprwEYCR/2/34cD3E7YRw/pD8v0+vdny0A0IgoAIAak0SJH+3rDEedf+wO/0vam/+pOmsXAzuVPjkwTk5Q5+9rAIpItNefLNNrjvRZAQDqFAUAUCOWdx09WXm/mh7f37f/DUn7/quU+UkSX9PcttRHAUbKF/6dpMSF7OgOvfrV6XcA0NAoAIAaEUfxVKVNvfKw45mrZ16ryS3T5/Z+SvGz/XdKhUWseAChFn2P4Z5lcce4pv6FzW13UQAADY4CAKgdHn53b2WXdG5o2kuPrs2aI+ZD/ocoO3ty4OYXf+IeRvsDAkABANSAFZfMcMfsK/In+iq8dOFzea/cuT2Ko+vSJSMWT1Y+rMaMbH4oQ31rAI2GAgCoAUkSHaqe/QxlyHH+kyjpU5aodcf0tt5cV+jHUbyLRxNUDiwsAhA4CgCgJsRHK37U7/aD8mxvi3KlenPf95+XTy/spezs9AKAQFAAALXB5+g9Fv9wx+BdACxW/pzOAUAZKACAGqBe3yf+mzwtLNpREkexs2H6uUtdCABAWSgAgLqQXv+nP8b2/ny9+u7L57fs7E4BAA2AAgCoDx6Zb5MypgWAHKQcmTUBNDIKAKA+ePCfe5Wxfi7/qcqHl3e1sG0AGhwrOVAXfIlArPV1qEsERkkc7a28sDAHoIFRAAA1IImi9cpqpa+waDtJlExSpirjC4vy8qkDn0YY9iE/Ki/GK/soJ6/oavGohAAaFAUAUAuS6GHlNmVzYcn2kmgXZT9liKf4DU+FQ6I8pRR//e15yOD/T19xeDYLoBFRAAC14R7le8rT6dzoe1LpVu5M54Y3STlY2WP5RUewjQAaFCs3UAPiKHpM+aMyxD3++kh2HUA2m58f8NOjjGQIYY8a6CGJPxSNH39augRAw6EAAGpA89zezVGcrFGeiaJka2HxNmnXH+t/pbAol+ltS7cqf9GX+/HBq7Olw9M3e7viawF8RABAg6EAAGqHO/5HFBUBz1Ho+MseBuD3ym+UkbyQtw/PU16gIoBtBdBgWKmB2vFXpUP5XTr3HInX18krLplRzgN9blL8PAEbSRHwJuVzypBPKQRQnygAgBrR3LZ0Y1M87o4kiu9Xz+xz9jvyHQDvULf9smw2v+a23sf02jcqlyuPFRYP54AkiV6tnLR8fsvzC8sANAAKAKCGHHzunT4N8Aflj+mC7U1U3qMcm86VKvYdB8n8KEn+lt4duHNTFX/fF6VzABoCBQBQa+LoMv3p7MAjAUaTlbIOx08/t3dLlERPqbleec4Fh0W4AHi3QgEANBAKAKDGuIOOo8R76VcoawqLC9L7AY5a0dVyQmFBSfQiTylz1fx5tmRohbsPJug9nbhi/tGvKCwGUOcoAIDatEJ76T9S/qrsODaAO2E/tKdkzXOXblFuSuL4J0l2V8BIzFQ58KpCG0CdowAAalBz29LV6mxvVG6OouRvyuBz9UcoJ63oatlHKWlo4GfFHhzoR1l7J+L4ZQqPCgYaBAUAULueUM5VFik7Xqy3v/JPygvSudI9rKzMmgBCQgEA1Kjmub2JsiaKo69o9pJs6TYHKB9Q9kvnSjS9bUlfHCW9qi/mKjsrBEoahRBAbaIAAGpcc9vSO9T3XqHmN5VH04XZCH1HK29b0dXSki4pVZweBfiBMpJxAQA0CAoAoA40t/X6KX5nKx4l0HcG+JSA98jPUevvV8xv2U3tkjSfu3SzXuNRZW2UJJsKiwE0OAoAoH74UcFnKX5ssLkAcMc/Q3mdigA/xa9U/cotih8WBCAAFABAnWhu602Uh9T8b+VixYfs+5Rjoyh5uzJ5xfwZpRYBfp1rlLvSuWKSaLXiCxMBNAAKAKDOqAjwE/3+O4mi7/ke/iRO1+OZyrs0f6A/J6/muUv74zhaEsXR/YVFxdyo3Jo1AdQ7CgCgDqkIuHd6W6+vCejSrvmvVQRMjeL4siiKT1w+v2X37LPymda2dK2+vthDiHy9wVYVB1c0z+39abYIQL2jAADq26+VTyvnJFGyUdP/o8xWRpMvDPSRgWfSOQANgQIAqGPT23rXTm9b6vv3r1c64jh6UHnjiq6WDmWP9JPK91flIqXYEwoB1KnQBvY4TVmYNUvWqxyTNYHaok7/zCSJXqOmr+q/SsXAzc1tvY+kH9yJFV0z/KTBz2iz4IcEFSTL9ccvlAua25aO6RGA1vYF4zXxe2iJ4nj4Jx5mtyt6TIR79H77ejpn+zQFwrZEKW9MjCg6XfHIm0GgAMiPAgCjYlb7Aq9/TpM66iY10yNySfaM/n59oL+nc46vzs9t+fwWj9n/Y73u+SoArsyWDk2dv7+3H/Rzjt6HH/3rE/+b9ef8uKn/082fuHvMO1gVAHtq8nLlP1UADLqYMfGdDSoOst9PKkl8VOI6pV3Ln07iaOPiebNL+l2hYVAA5MQpAKAKWju6faHewcosxeP9f13xYXzHo/75vP4p6hRLPYzv0wL/qNyQzu2c97597UBrOpfx0YD/qkTnX+AjDHcoLkBOzpK8UdP/UDwQ0mB7K6/X+/uJpt5gf2RmR3doOzRAWTgCkB9HADAirR0LfBjbY/UfrVVtmqZTvbxgknb0vWfre/kf04o4QXu96ce13CP9PaRlf9b0zz2dc8Z0dL6VnTNi7UG70LhG7+F4vYO/qP3txMMPx/Gy6ecuqdqetX6HLkxeqrxMv0O9t+i1ykuUwXc69KtC+V2cRN9RrmhKonXXds32KRCEhSMAOVEA5EcBgKLUWXl8/oOUKVq11HElnj/EH9L8y6IkLQDcufoBPx5+1x39jZr+fEL/pGXXXPK/q9LRrpg/4/mauHP9gt6XRxa8WtMOZVPzJ5ZWau9/p1o7uqfrd+qjA29WVBTE+j0PkkTL9OenlBt7Omf/LV2GkFAA5MQpAGD0+Lz7vyu+V96H8n14er46KndYL1Tc+X9ReadysjrYt2va1TN/9r3V6vwLXqn8WO9HHWz0Nb3fTzSfu3RjLXX+1jNvti9I9AiI/6m4EN9enBZbHibZF0EC2AmOAOTHEQCkZnVcOilKYp/HPz+O4v2iONlLbc/vrVVrgj9Htir/T/mN9lB9G53H2n9ce6ibNa265Ze0HB0lyWvjJDpOs9dqi3Bzc9vSVdlHa1NrxwI/Cvk8/Y59zYJPo+y4HfN1BF9XwXBZNotAcAQgJwqA/CgA4CvWX6PdY/87OEx5jwqAvbU27XhEzeeh1ysfU65Vh7TaC2uJCoBpKgAOUgHgjvSO5rlLn8o+UttaO7q9of6g8g5lx+1Yv36my8dHG87+ZWcH1wKEgwIgJ04BADm1dnzZHc5b9Mf5cRyfrTy/SOdvSRIlW5U+pSY7ounn9q6c3rb0BnX8i8ey85/ZsWCS4gv6RkUcNy3W5BtKsd+r/y6evzWadGhr+5dH7XsCjYYCAMjPncqLFB+KHo7XL9/b/lnlDC8ImH9Xg++CKMv1F5/pYY992+BQ1ymcpDJBv/fYp2UAFMEpgPw4BRC47AhA0xVafXxF+rDrkPb83UH5ATv3xlGcPmtfC27X5AZ94e0982a7I6t7J8+9PE7ivl2S7EK8U5UZ+vm2jWGg34PbW+Mk8oV831H+1NM5p6wjDq0d3erk04stn7uXn40U6Ecbv0XfZ0QjIaLucQogJwqA/CgA4M7ng+rVfBX/KxSfAhjxoWYVAO6YbtXK5+mz9/gn6TP516rhB++403pSr7shiuMtPRdX5772We2XjdP7maTmLooH3zlA79uj9O2p95YdQcz2wb0tmaQC4MWa+l79w7XguU8lzEbw890RK/Rz/UYF0G/S5SUYtgDI3tW9ysn6Hg+nS9DoKAByogDIjwIAqdb27tdpcpZymDo+30u/56BOL/+6lXjo3egBNTx6322KOsnoCb2UD3VvUYbjDi9Nkvi8eDacsL5e76PwR3ZKwnF7RO9Pr+KO3+MZ+J77Q5Xj9IUeMvggvcLAnQ4jojfkOyJ8xMNj+G/V63xDnfOF/lgpRlAA3Ke4AHgoXYJGRwGQ04g2Ag2EAgCjRgWA94x9jn+CCoC3aPoOrVADQ+nmX7eStNNSJ5k+1tfFgJ/B36eXSjt2ZTg+QuCjCZvUaa/Xp/vug2eyTjqeqDfjztqduQsUj1Doq/53Sq/ln2OgcPBr+LX8c4/XR3L9jPoBHtfkFmWe8qC++FF1ziWfBthJAeDfh48AnMIRgGBQAOSUawVuABQAGBOzOrp96Hu6VigP+OPe7iX641VawzwojTreeEQdbhlcIPgUQp86bRcRPmLgAkIdd9yk9+UO3B2lO3G/F8+PkfTowwb9cY+m7vBv9VK9Dxc2HqFPG+r46cXzzipr8KPhrwGIntafvtbi3T2ds33aAY2PAiAnCoD8KACwU63t3QMFgM+HuwBoUofozndPLd+vUCjs68/Vx+p1PVSHnvhZBg8omqanKvwEwW0FQBIlt/xq3tmFAmD0tHYs8GODX698V9/3OcVVkiReTz0q4GWLO+esTRei0VEA5EQBkB8FAEoyK3sCoMezf61WPD/tzkPweg/dH3an5YajPfb00bfpHruWTnRbHxjDvXbz5QPpUQSfq9+ivWifhvB8v0qUwkWI6emIAY/ra7zRvUa5Ux97sGfe7HXpR8aYCgBffPkupU3fd8cCQD9H8t9JU99ctdf+6qKPV+UCSlQcBUBO2ZYnHBQAqBoVAF7fJql/2lUN3xbnc/FqZquhul938F62lwoAHx3wg4WOUgFwlKYH67PG8J72dK/df/juA1889ycVAHdr6gvonlAB8ISmA9cjDBi4XsGH2zWNt6gAqEhnqwLAnXuHvqd/T9kv8FkuAC5XATCHzj8oFAA57bjiNDoKANS0We0LfJpABULsowW++n5fFQDu5KZoZfVFfGMk7dddALgz98V6j2mRr9b34fONcVO0oefiOTXRmc5qT4+k/KuKknZNvQ3bbjumQuoKTb61uHPOL7MlCAQFQE4UAPlRAABVos7fR0neqHxUBcDfpQsL1PG7inGR8sEo6f+fxfPP8Z0QCAcFQE5jfE4RAEZHa0d3kzr9Kcqnn9P5Z4cwfL2Cj148QecP7BwFAFAls9oXxD7k72lhEYZ3uPJ5xbdc7sgFwJ8UPx3wJi8AMDxOAeTHKQDk1tqxYJK6KA+he7xWu2ateb4I8JGmpugbTU3xul9+4SwuVhvGrPbu/TQ5TXv+/6rp/srg6yG2qvf/tabfVL6/eN5s372A8HAKICcKgPwoADAirR3dHiXQw+c+Tzuok1UATFf7LVrtjtaa5yv671QB8IaJE8c9fvXnP0YBUETh6IiHIZ6p39s7VQC8J/1Axrcr+kFLS5Wv9cyb7ccDI1wUADlxCgAYA4Vb/nz7XqdypTqvK6M47lROKnT+1t/fl2ym8x+Wx0Bwwf2B7Tt/X/CXuPP/s9JB5w/kRwEAjCJ1/OOVI9T8N+XLivdIBh4QtD0P/JOwDg6ltb27WZMPK59RPKTyYH5g0mf1S/yYph5yGEBOnALIj1MAGJI6f5/bP0/5e61cR6YLh5IkfkiN91yfjOL4D8pv1V7bc3F9XA/Q2tF9qAoYX5jnjnoXbU2unzhu4u2Lvvjhssb4t9aOBTP12q/XJsrj/bfotf179e/FAw99X7883+N/a8+8Ocs1BYxTADlRAORHAYAhqVOcqokfUDNDGen65cF3rlP+n+IH1/iiNneiPsT9uF5kTc+82e74Kkp74Lvrffj8uzNJ78NPABx8xOIkddIDQxrvoY91a/ojxT/PfXrPuW/FUwHlJw0eHkfJOZq+Wb9CP2ZZkgf1hwqm+ElN5+q12evHjigAcuLwIzD6fHFanr14nyLwfe0uAK5VXED8RHGH+k7lRUo1vFR5v+JTGT9UvGH0exvIvyt+/LEfzOPx+M9Sfqp8S/FRgVxOOP8yF0x+SJJ/D+9VXEwN+LbiW/zeqvzBCwCUhyMA+XEEAENq7ej2UL7HKx9R3qL4ToC8fIWbH+frp+s9rJV0tabeqy6mP0kSFxs+YpDEUZwWHr5CLptEsb4+TvyhbH33vAv/QjTrpcUk0RS9gIch3kfZTZ82QZ+7s8ca+334aMVt+lrvpf9m8bzZ3/EHhqPf2xn6/Flq+sLJ4/W9dtMb+L3alylPKX9UVvXMm8MtfhgKRwByGmrVb1QUAKgIdWhv0OREdWouALx3/8K0Ax1d7uA9Aq47fccFQLZMf3iquMNXY7sCwNOBAsD/e3606FulxcsN+ua36JVvUgFQdIPa2pHe4ufiQnv18Wn6fD/hz+f6r9IH1uql/DAiH3l4Wh1/niMqCBMFQE6jueLXAwoAVNSsjm7fxtalHKduWXu1qQO05j1P/a4f92t1vB6mxYf3ylfrx/A5fz9G2EcuOjX9Tc/82b6m4Tla2xe8SD+1ry04RPmcMiGJYl/zcL9ylooGP4UQyIMCICfvBQAYI4VR6T6tvElp1e7xqZr+XPGY9Y3AnfYyxUP0+noFXxT4ZnX+v9DUpy6G4usHrlYuUDyC3z8q/t18UPHdEQDGGEcA8uMIAEr26nO74knjJhwbx/EBcRT72f+SHrBv1sTXDhym7B/F6eOAa2H9TFS0+JD+Y8pyvaE7NL1TUWHj0w2JL3j09Qn36Gd69PqLR3a3Qmv7ghP1M+6vr/dRA4/h/3DPvDk8wAfl4AhAThQA+VEAYNS1dlz64iiJj1XTQwe/oFAAbKNO2EfrfA3BFBUOvur+eYpPKeyaJIlvnfOphvH6uglaqX2h3uB129cE+OI8ddbqzJNoiz64SfPurNcnsTrwJH3u/xot36jX2O4+fn1vH8V4Qlmlj/fGE7Yuvf7CT3AxHmoNBUBOgzcSIaAAQF2aed6Xx6sn3iOOmppVAPgWO98a+AJlqgqAgYJgd3XevlrfBcHgq/X7VAC4w96g7vwZvc46fY6vrPc99X9TAfCQlq1Se7n26Z/omc+V9qhLFAA5UQDkRwGAqpjZ8eUmFQDaw499JMAXEDrjVAAUruhXYnl2vR6YpgPne6r/+/Vnvz4wcOfAVhUAW7XMh/m3qADoVwHgzwXqDQUAhuUCoLAhLDn+RwYAqC3eNhfbZueJ+4hgcBcAAAABogAAACBAFAAAAASIiwDz4yJAjKpZHd1+cuBxWhmzxwcn0Q/GR023/rLzzO1uxwMwLC4CzIkCID8KAJSttaN7miZ+2t64JIpe60VaGV/lj6kAOF9/fqunc/Yj6TyAkaAAyIkCID8KAJRFnb8H7fm44uFwfc/+juvh95QrlOtUDfj2vP6eeZW/NW9We/qwHp8m9CMD+1SQVPw9ADlQAOTENQBA5V2knKm4ECjG4+nrc5KrNPX4+gd6YRX4+/qRxmcnUXJUa3u3n9QHoEFwBCA/jgCgqJPbvjJOHeWuSZz4aX+PL+6cvd0Df2a1d3vs/4OUr2uX+oR04bASP2jnJuU+raoeijeTROu0K75a38MPzXlCK/HaJEmH812nPfUt4+Joy7WdZ217fO4J518Wx0k0blx/NDGOkl20yEMIe6hhjyA4VdlHr+FRBb182wiCSZLsrYlPVfiRvXfrtVdr6Y2TNvVfvfDSczgagFrDEYCcKADyowBANLO9e1+tPPtoDfLz/ser3a9O2MPsrtH8gVp+vwqAB9JPLlAB4M89QvmSCoDsfH8pkugx9b6r9D1UGEQP6Xs/qu/tAsHFgMf336SP+SE9KX2uj/R59EAXIO74/T72UtzpH6AcrK/z8MIuCPx5Q+lTVfBTTb+k11yn77Fq8bw5Hk4YqAUUADlpvQ8KBQDKNvP87iZ1r+/WyvMOrUHek5+s9iZ1wter/UXlbnX+fiZ+USoErlEB8PrCbH5JOrSv197CJJt64bYVuvAxG7x4MC304/zSZuETin7eIP7O/jbr9Zl3a/7fVABck30IqDoKgJx2tsI3GgoA5DKro9t7zH5E79u1shyuzs970e5e99f0CbVu0fR3+pgPy3svfIWybvG82dsOwe+otWOBH/v7Ub3MB7Il9UVVgG9P9COAl6mC8MbyG8r9PZ08RAhVRQGQEwVAfhQADezU8y6NtYs7Tj3cGVo9XqT4KXs+b3+SVpYXZ7ve6bn3m7X2/EbT3yt3qcMf0XPwTQWAz7O/Tnmj4gvrTtX38SH4OpFem/AH5W5VAzdo6qMAf1MBsO20A1AFFAA5UQDkRwHQgE4+r9sd/wHq3PbT7CT181/Q9JVxFPuiuYJktT7nXjX0byD+r8Wds+/Mlpfm1I5Lfb79+X1RfIFe79V6fZ+rd0Gg95AWHjUivRXxKXX2j+p9rY/ixI8S9kbypz3z5vj3AdQCCoCcuA0QyPh+fN+ad51ytaIOOV022JUT4uQMTT1Qz9J0SRmunXe2O9a/Kp9UfOvfm5S5yu1KLXGH/wvlI4rf59uUS5U/KwDqFEcA8uMIQANp7ej21fgdig/LeyjeQ5TnrBdJFH1ff37zgAkbF11xYXt2ImCUFU4N+Na7w/QWfOvdNkkSvViTU5WjNbd3HHsMgXh8+sHy9CdR4kP3PoXxkF5z4LTG48/+EpJN+uNh/RJW9HTOcTFQca3t3fq5oz16Omf/LlsCPAdHAHKiAMiPAqBBqPM/UZP3Kt6zHZZ6/LM0+fHiebP/li2prFnt3b5dz3ccvFTvZooKgAlafbfds18GFwC+qM+d/F/1mndo2quf07czVp06fg+WNMvR+1zfH0Xz1N706845Q15kiWBRAOREAZAfBUCdU8fvjtP3wPs8//uUna4HKgDerE7x54VZVEBrx4Jd9Yv3QERd+it6pQqAu/X38AnN3/urzjlD3maJYFEA5MQ1AAjRFOXzivcsR2r8zKxwQOV4Y/455RXKwCBKHmfhYAVAmSgAECJffX+U4vPsIz0Kdk6cRO+f2f6V3ZTQjpxVjIqsJmXyrI7uj2r2s/rbOUGZrKj4ijfEUXy/4tMVAMpEAYDg+Aq+QkbckesTfbTgfXHU/9446nvXrPZLm2fOvZQjAqNkVvuCKcrL9XvW7zd6vxb9s37rb1B8S6QLNv+V+foLn4Z59rkIAEoW2p4M1wDAo/v5ATidyslaAV6oaY71IL1g7pkkiT6j6S/0pes13aL5p381f+SDAYXulPO6m/qTbQ8lakqSxKMtvjOO4w9r6sJqx78TX5T40555s1UYAEVxDUBOHAFAiNyZ/IvSo3jPMg+vM+60fO++xwvwxuKrygknfuKrrE8jt6/yj8r3FY+98HXlXcpQR1W+onw6awIYDRwByI8jAA0ivQ0wSZ93/3fKi7U2eJz/XLTn7yMCPiR9m7JSK5QLCg/w84Be707tsS5WO1innPfl8fod7ZEkTW/V5ual+p14pENvdzw9VPH9/T4S8JziSb9IH/L3bYk36AsW6nfpda+oWe3pLZ0zlK8v7uRITKA4ApATBUB+FAANpLW9+6WavFs5RGuDLwycrpQ+DG+yrQBYodfzoDU/8+IdrFGn+IBWvwcWd55V9xe0qZDygEQep8CDFfn0yqDtSuLz95P1W3mvFs/QR3w1vz9eZNuTPmnQgxJ5dMQV+pS7NPXARNcsnjd7yMcO6/u/Wl/5DjVfpHxwceccP6gI4aEAyIkCID8KgAaljsTnn331+SHqjPzEPw9CMzGK49E+tL9UPd33tfp5dMHH4zgqNqiNO0PbqlafZvuampr6vVB7woUPjR797OkDhFW/eJvQpPfkQ/GOfvad/vzem3+z4ov3/KTDEf++9P38szgb9Y23qLFO7V8qX1s8b86wo/7Nal8wPo5jHz34vl7HD2xysfV5fZ2vy0B4KAByogDIjwKgQakT9G2B+6o/8gOAJqpbeqem7tT2VhEwmuvKenV7Pm3wuLJVr1ysQ+/XQg92c4f6SO0JJ/eqDvmL5jdp+RbNb9HyLYs7z/YpiFxO/uRlsfaYm5Kof7z6+3GxhxROIu/FT1RH6qGIvTc/Te/LR0RUDMU+Xz8cFwoeW+H5ysAh/hHR9/PRkkeVefqiG/Wz+efxcMOPqiMfck9+1txLd9ffiYuNC/VXc6hex9cS/B/lYX0dowSGiQIgJwqA/CgAAnDqeZeO6+uPXq5V5JWadWfjxe4ID1f89+9D3Ts+LGg0uQDw8/UfUEf/kKar1dG5aNiadZJJn3pPd5aJlmtRLv5h9EXp0webVAA06bXSPX4t8wWOk5Wp+pFdCKhTj33YfjT4dIc7e2+o71Ge0Pfzz6COPrlu8byzl6s9rFM6FkxU7/7PKqB86sana87Q+/yhpt/smTfHF2UiXBQAOVEA5EcBEKjWjm6fY/bDg1qV/ZVd1YGlnak6UBUE8VS13HnuoYXuXENbvyTpKxQu2ouPH9UvwOfuBy7K26A8qPjCyJt6RvhchZMv+FKcbBnvzt6H+X19xr/rtY9UEeAjJHfpl/8fKgJ+e/28OWs1j3BRAOREAZAfBQC2mXnel70OTYz7m07R6nSq1igflj5CC31u+llJWijoUzRJCuvd4D/rQ5Jepif+KdKWGrEPJmyTbNSMO/Zb9ZGf68f9Vc/Fs93p5zarvTuOmvrjuKl/YtQ37jN6vY9psU9R+Pv5rdyi6T9p+SOLO8/iyn9QAORUTxuf0UABgFHnIkAFgDqmeC+tUT5cvrtWrO3vZ08SnzLwHuzB+jw/4KZZn+tBiPz5I75orsqeUK/rztyH6lcqy/QzPKQCYNCedzJw6kLLYl/guEYFQO47HXx3hl7nFNUWb9PseP0+/XvzKQlfq+BrA76tAuC/NL1HyzerAOC8PygAcqIAyI8CALm1ti/woWtfJLevVjs/ifAFWvtcFPhIQdH1sHB6wXciTFLD1xtkdyUksae+UDG9WFEd5baP+QDDYPrYVv3hDtnxBXcb9DnaS0+yZdnHNunLvAe9KVIpo+lQnlYB4AsXfZue9vKTR1S6PL744rN9aL8ss85b4FsFj1AxcZxmd1f7IL33Fv1mfERl4MfyRZC+0v8x5bqeebN/64VAAQVATjtsLhoeBQDqxsyO9PTCrnHU5GsKfHW9ByraVQWAL9TzvIuK3dRRet6FxK5FCoBN+sMd9EDW6XPWqQDw+fMN6ceS5Gl9mW+/e6Znfv67CkrR2tHtCypdAPlnaNL78TUVrSoA/kFTH+b3nr4Wp+MC3Kc8ra3V71UKXKj24z0Xn+ViBhiMAiAnCoD8KABQUbM6Fgzu1+PswICm/k89vP5P53fs/C39WPYJhU/TV2efl7h31f/6L4kWzz974OMVoQLgQ5p48B7v4fv2w4E7EjxwkPld9uvdeW//vcptWrJeP+Vmdf4Vfa+oGxQAORXZZDQ0CgCgQmae/6Xxcd/4w9Sp+wE+ByqDh/z1qIE+p++9fW+H0m2RenaPAfAD5VYteFgLfIridmVNT+dszvNjOBQAOVEA5EcBgOc45ZPdu/X3p2Pbn6T4HvuHtGN9b9+mSX9sGre1/9dfOrOhOq9ZHd3xuKZoXF9/4usZ/CS/Q9TR+5qEbfQ78GH8g7Xcz1rwIEs+hbHtgkd19t7D94OZfqUN0WptjXwHgS/wu07tuxdfPNvXGwAjRQGQEwVAfhQAeA4VAFNVAHjj0a748ba3qzP7VZQ03RxHyYR0rJ5ix+gzm9VZblRnmJ6nV4e5VWum76fX/+ok9QLqDN0eNbM6FmTjFGQnBPyH530ofpKWqqOO3Vn76vttHfaAwhsZp4/5849Q28MAn6L3PTDO/2Dpp+v34XP56+I49rgA/jlVH6UFwCp9yUX62j/0dJ7pvX+gVBQAOe24sjY6CgCMCRUAsQoA7wH7gry4vy/eGjclHjVwtnKUetqp6mYHzm/v6H51pH9QZ3in2r3qDP+mNXOdOsjClfnR5qY42nL9RbPLvkDvhPMvjcf1R+ObkvS9DNxR4LsMfHj+YL0PP7HvSLU9CuK+Wr7dXr0VCoC0ctDn+3V8F4JeIysmlMHU97uvT8/lL1QB4MP7PqTv2wX15X4OQrzORY8KgMJLAyWhAMhpx5W10VEAoGJmze3eW12ix9P3OPm7aG1L96bV67mz9S1vHmbYYwLsomU+AuChfp/Q8g36XD8Yxx2+Tx30aUV151j2aQR9n4FO2u9lnGY9VX2RXnW/hz4+WR/1+/XIhrsUlg8vSfy+fBfBan3NMk39CN/leh3v6acVgCYeC+DBpjhedf282S4GgNFGAZCTNwQhoQBA1c08b8GucRK9VB39KzTri+F8Idz2zxVI0qvivXfuAYb88XSAIWVXrbU+PD9w7/9o61N/7VvsfPRhvb7X0/r+Pi+/VtWDz9c/raJm+1H3sgLAn6OOPV6hjYrXkVXX81x+VBYFQE4UAPlRAGDMnTJ3wQTtNk9Rjo7i+GgteoniK+k9gNB+mvoe+tF6SM9gG1UAeG/eRyMe1Pd6QJsJD8BznwqA+9RetbjzLPbgUYsoADAsFwA+HFlO/I8MAFBbvG0uts3OE/cRwXjOFb4AAKDxUQAAABAgCgAAAAJEAQAAQIAoAAAACBAFAAAAAaIAAAAgQBQAAAAEiAIAAIAAUQAAABAgCgAAAAJEAQAAQIAoAAAACBAFAAAAAaIAAAAgQBQAAAAEiAIAAIAAUQAAABAgCgAAAAJEAQAAQIAoAAAACFBoBcCWwrQcuxSmAIDaMRrb5tHoI+pGaAXAXwvTchyi7JY1AQA1wNtkb5vLNRp9RN0IrQB4qDAtxzjlmKwJAKgB3iZ721yu0egj6kZoBcAaZUPWLMurClMAQPWNxjbZfYP7CDSwZUpSZlYr+ygAgOryttjb5GLb6jxx3xCUEO8CWFWYlsP/4C7PmgCAKvK2eDR2yEajb0CN61CKVX+l5FNKrAAAKsvbXm+Di22bS4n7BjS4lyjF/vJLza+VZgUAUBne5nrbW2ybXGrcNwQl1L3Xe5QjsuaoeEb5iXKbcqvyR6VPAQCUz1f4H64cpxyrnKHsroyWPyhHZs1whFoA/IdyQdYEAATuQuXTWTMcIV4EaN9VfMgHABA29wXuE4ITagFwt/KdrAkACJj7AvcJwQn5CvZpyp+UiekcACA0m5XDlJXpXGBCPQJg/gv/StYEAATIfUCQnb+Ffg/785X7lL3SOQBAKJ5UDlUeS+cCFPIRAPNf/LsVbtkDgHB4m+9tf7Cdv43G05Pq3XLlKeW0dA4A0OjalOAvBKcAyNyivFB5eToHAGhUX1OCu+e/mNCvARhsgnKV8sZ0DgDQaK5W3qpsSecCxxGAZ/Ur31c8vORrvAAA0DDmKx9StqZz4AjAEN6v/F9lUjoHAKhXm5SPKN9K57ANBcDQjle+rRySzgEA6s0y5X3KzekcthP6bYDD8T8YPzHwHCXoW0UAoM54m+1tt7fhdP5D4BqA4fm6gN8rX1X8wAg/htIXCwIAas8GZZ7yD8qNirfhGAKnAPKZrHi8AD+L+nRligIAqJ41ykLlJ8oixeO6YAQoAEo3XjlJOVE5UDlg0HQfhd8tAIwOH4F9VHlYeWjQ1Hv5Nyhc2Z9bFP3/xiZ22EhlhHoAAAAASUVORK5CYII=;" vertex="1" parent="Apy_nMzA6MKSCh_NEfZ--113">
          <mxGeometry x="85.5" y="40" width="80" height="80" as="geometry" />
        </mxCell>
        <mxCell id="Apy_nMzA6MKSCh_NEfZ--111" value="&lt;font size=&quot;1&quot; style=&quot;&quot;&gt;&lt;b style=&quot;font-size: 20px;&quot;&gt;Serveur Récepteur&lt;/b&gt;&lt;/font&gt;" style="text;html=1;strokeColor=none;fillColor=default;align=center;verticalAlign=middle;whiteSpace=wrap;rounded=0;fillStyle=auto;gradientColor=none;" vertex="1" parent="Apy_nMzA6MKSCh_NEfZ--113">
          <mxGeometry width="251" height="30" as="geometry" />
        </mxCell>
        <mxCell id="Apy_nMzA6MKSCh_NEfZ--114" value="&lt;i&gt;Requêtes HTTP&lt;br&gt;&lt;/i&gt;" style="text;html=1;strokeColor=none;fillColor=none;align=center;verticalAlign=middle;whiteSpace=wrap;rounded=0;" vertex="1" parent="1">
          <mxGeometry x="70" y="792.5" width="60" height="30" as="geometry" />
        </mxCell>
        <mxCell id="Apy_nMzA6MKSCh_NEfZ--115" value="" style="group" vertex="1" connectable="0" parent="1">
          <mxGeometry x="180" y="1102" width="251" height="116" as="geometry" />
        </mxCell>
        <mxCell id="Apy_nMzA6MKSCh_NEfZ--116" value="" style="sketch=0;outlineConnect=0;fontColor=#232F3E;gradientColor=none;fillColor=#232F3D;strokeColor=none;dashed=0;verticalLabelPosition=bottom;verticalAlign=top;align=center;html=1;fontSize=12;fontStyle=0;aspect=fixed;pointerEvents=1;shape=mxgraph.aws4.client;" vertex="1" parent="Apy_nMzA6MKSCh_NEfZ--115">
          <mxGeometry x="85.5" y="40" width="78" height="76" as="geometry" />
        </mxCell>
        <mxCell id="Apy_nMzA6MKSCh_NEfZ--120" value="&lt;i&gt;Requêtes SQL&lt;br&gt;&lt;/i&gt;" style="text;html=1;strokeColor=none;fillColor=none;align=center;verticalAlign=middle;whiteSpace=wrap;rounded=0;" vertex="1" parent="1">
          <mxGeometry x="-120" y="930" width="60" height="30" as="geometry" />
        </mxCell>
        <mxCell id="Apy_nMzA6MKSCh_NEfZ--125" value="" style="group" vertex="1" connectable="0" parent="1">
          <mxGeometry x="-270" y="465" width="251" height="149" as="geometry" />
        </mxCell>
        <mxCell id="Apy_nMzA6MKSCh_NEfZ--169" value="" style="group" vertex="1" connectable="0" parent="Apy_nMzA6MKSCh_NEfZ--125">
          <mxGeometry width="251" height="120" as="geometry" />
        </mxCell>
        <mxCell id="Apy_nMzA6MKSCh_NEfZ--122" value="" style="shape=cylinder3;whiteSpace=wrap;html=1;boundedLbl=1;backgroundOutline=1;size=15;" vertex="1" parent="Apy_nMzA6MKSCh_NEfZ--169">
          <mxGeometry x="95.5" y="40" width="60" height="80" as="geometry" />
        </mxCell>
        <mxCell id="Apy_nMzA6MKSCh_NEfZ--124" value="&lt;span style=&quot;font-size: 20px;&quot;&gt;&lt;b&gt;PostgreSQL&lt;br&gt;&lt;/b&gt;&lt;/span&gt;" style="text;html=1;strokeColor=none;fillColor=default;align=center;verticalAlign=middle;whiteSpace=wrap;rounded=0;fillStyle=auto;gradientColor=none;" vertex="1" parent="Apy_nMzA6MKSCh_NEfZ--169">
          <mxGeometry width="251" height="30" as="geometry" />
        </mxCell>
        <mxCell id="Apy_nMzA6MKSCh_NEfZ--152" value="" style="shape=image;verticalLabelPosition=bottom;labelBackgroundColor=default;verticalAlign=top;aspect=fixed;imageAspect=0;image=https://upload.wikimedia.org/wikipedia/commons/thumb/2/29/Postgresql_elephant.svg/1200px-Postgresql_elephant.svg.png;" vertex="1" parent="Apy_nMzA6MKSCh_NEfZ--169">
          <mxGeometry x="110.48" y="80" width="30.04" height="31" as="geometry" />
        </mxCell>
        <mxCell id="Apy_nMzA6MKSCh_NEfZ--126" style="edgeStyle=orthogonalEdgeStyle;rounded=0;orthogonalLoop=1;jettySize=auto;html=1;startArrow=classic;startFill=1;" edge="1" parent="1" source="Apy_nMzA6MKSCh_NEfZ--110" target="Apy_nMzA6MKSCh_NEfZ--122">
          <mxGeometry relative="1" as="geometry">
            <mxPoint x="-230" y="860" as="targetPoint" />
          </mxGeometry>
        </mxCell>
        <mxCell id="Apy_nMzA6MKSCh_NEfZ--133" value="" style="group" vertex="1" connectable="0" parent="1">
          <mxGeometry x="771" y="723" width="251" height="152" as="geometry" />
        </mxCell>
        <mxCell id="Apy_nMzA6MKSCh_NEfZ--134" value="" style="shape=image;verticalLabelPosition=bottom;labelBackgroundColor=default;verticalAlign=top;aspect=fixed;imageAspect=0;image=https://cdn-icons-png.flaticon.com/512/969/969438.png;" vertex="1" parent="Apy_nMzA6MKSCh_NEfZ--133">
          <mxGeometry x="69.5" y="50" width="102" height="102" as="geometry" />
        </mxCell>
        <mxCell id="Apy_nMzA6MKSCh_NEfZ--135" value="&lt;font size=&quot;1&quot; style=&quot;&quot;&gt;&lt;b style=&quot;font-size: 20px;&quot;&gt;Telegraf&lt;/b&gt;&lt;/font&gt;" style="text;html=1;strokeColor=none;fillColor=default;align=center;verticalAlign=middle;whiteSpace=wrap;rounded=0;fillStyle=auto;gradientColor=none;" vertex="1" parent="Apy_nMzA6MKSCh_NEfZ--133">
          <mxGeometry width="251" height="30" as="geometry" />
        </mxCell>
        <mxCell id="Apy_nMzA6MKSCh_NEfZ--136" value="" style="group" vertex="1" connectable="0" parent="1">
          <mxGeometry x="766" y="951" width="251" height="154" as="geometry" />
        </mxCell>
        <mxCell id="Apy_nMzA6MKSCh_NEfZ--137" value="" style="shape=cylinder3;whiteSpace=wrap;html=1;boundedLbl=1;backgroundOutline=1;size=15;" vertex="1" parent="Apy_nMzA6MKSCh_NEfZ--136">
          <mxGeometry x="95.5" y="40" width="60" height="80" as="geometry" />
        </mxCell>
        <mxCell id="Apy_nMzA6MKSCh_NEfZ--138" value="&lt;font size=&quot;1&quot; style=&quot;&quot;&gt;&lt;b style=&quot;font-size: 20px;&quot;&gt;InfluxDB&lt;/b&gt;&lt;/font&gt;" style="text;html=1;strokeColor=none;fillColor=default;align=center;verticalAlign=middle;whiteSpace=wrap;rounded=0;fillStyle=auto;gradientColor=none;" vertex="1" parent="Apy_nMzA6MKSCh_NEfZ--136">
          <mxGeometry width="251" height="30" as="geometry" />
        </mxCell>
        <mxCell id="Apy_nMzA6MKSCh_NEfZ--151" value="" style="shape=image;verticalLabelPosition=bottom;labelBackgroundColor=default;verticalAlign=top;aspect=fixed;imageAspect=0;image=https://upload.wikimedia.org/wikipedia/commons/thumb/c/c6/Influxdb_logo.svg/1200px-Influxdb_logo.svg.png;clipPath=inset(24.77% 61.33% 30.18% 22%);" vertex="1" parent="Apy_nMzA6MKSCh_NEfZ--136">
          <mxGeometry x="104" y="70" width="43" height="43" as="geometry" />
        </mxCell>
        <mxCell id="Apy_nMzA6MKSCh_NEfZ--139" style="edgeStyle=orthogonalEdgeStyle;rounded=0;orthogonalLoop=1;jettySize=auto;html=1;" edge="1" parent="1" source="Apy_nMzA6MKSCh_NEfZ--96" target="Apy_nMzA6MKSCh_NEfZ--134">
          <mxGeometry relative="1" as="geometry" />
        </mxCell>
        <mxCell id="Apy_nMzA6MKSCh_NEfZ--140" style="edgeStyle=orthogonalEdgeStyle;rounded=0;orthogonalLoop=1;jettySize=auto;html=1;" edge="1" parent="1" source="Apy_nMzA6MKSCh_NEfZ--134" target="Apy_nMzA6MKSCh_NEfZ--138">
          <mxGeometry relative="1" as="geometry" />
        </mxCell>
        <mxCell id="Apy_nMzA6MKSCh_NEfZ--142" value="" style="group" vertex="1" connectable="0" parent="1">
          <mxGeometry x="510" y="945" width="251" height="152" as="geometry" />
        </mxCell>
        <mxCell id="Apy_nMzA6MKSCh_NEfZ--144" value="&lt;font size=&quot;1&quot; style=&quot;&quot;&gt;&lt;b style=&quot;font-size: 20px;&quot;&gt;Serveur Grafana&lt;/b&gt;&lt;/font&gt;" style="text;html=1;strokeColor=none;fillColor=default;align=center;verticalAlign=middle;whiteSpace=wrap;rounded=0;fillStyle=auto;gradientColor=none;" vertex="1" parent="Apy_nMzA6MKSCh_NEfZ--142">
          <mxGeometry width="251" height="30" as="geometry" />
        </mxCell>
        <mxCell id="Apy_nMzA6MKSCh_NEfZ--158" value="" style="shape=image;verticalLabelPosition=bottom;labelBackgroundColor=default;verticalAlign=top;aspect=fixed;imageAspect=0;image=data:image/png,iVBORw0KGgoAAAANSUhEUgAAAgAAAAIACAYAAAD0eNT6AAAAAXNSR0IArs4c6QAAAARnQU1BAACxjwv8YQUAAAAJcEhZcwAADsMAAA7DAcdvqGQAADxpSURBVHhe7d0JnBxlnf/xenpyTm45ZAFdA7km4CYCIoso6IoSd1XgbxJIABURQRBQ9I+y/nd1eYkXyqWgIChgAknkWnZN8EBdb4ElWSAJOVkPFoSFmUkm50zX//t0PUBmpmamq7q7qrufz1u/U8/TZLqqe2ae59fV1VUmQFrDlDcrb1IOUPbfY7mPwnMLANURKs8qTyl/3mP5C+U/lG4FCTFJJTNBOUF5jzJHmagAAPLTrixX7lVWKB0KykABUJ7xyiXKx5TR9gYAQN3ZrlypfEnptDdgYC1uiXjDlfOUu5R3uD4AoD7ZMdq+LfshZYfyiFJUEIM9AAM7SrlNmVLqAQAazQbldOW3pR56YQ9AvDOUO5V9Sz0AQCN6hWILgD8oq+wNeBkFQG/2+fiK8mXFHuUPAGhsdiw/SRmn/ESxnyiA8BbAy+x7R/co7yz1AADN5gfKicruUs9z7AF42beU+VETANCEpip/pdxX6nmOAiByoXJp1AQANLHDFHvugN+Veh7jLYAgeLtidwtRDAGAH3oU+3bvD0s9T/leAOytrFMmlXoAAF+8oExTniv1POT7q97LleOiJgDAI/asriMVe/pgL/m8B2CyslYZUeoBAHyzS5mhbC71PFNwSx9dpjD5A4C/7Bxg5wIv+boH4FDlvxQOggQAv9kTA/2N8lip5xFf9wCcqjD5AwDsXGDnBO/4Ogk+rsyMmlXRpdhrUT+kPKisUezHTAAAlbMHrLcpr1eOUN6jjFGqZbVySNREM7NngrK7fKqVnysHKQCAbNgx1469cWNy2ti5AU3uk0rcDz9NPq3wVgIAZM+OvXYMjhub08TODWhyP1bifvhJYy8XDADIlx2L48bopLFzA5rcBiXuh58kf1H2UQAA+bJjsR2T48bqJLFzA5rcNiXuh58kH1MAAPXBjslxY3WS2LnBK759DHCiYk//WCnvryIFAHWkGmOynRvsHIEmZT/mEVf5JUm30qoAAOqDHZPt2Bw3ZieJVx8F9G0PwH5uWQn7PpF3u4oAoI7ZMbka7+FXY45oGL4VAMPdshI73BIAUD+qMTZXY45oGD5fDAgAAG9RAAAA4CEKAAAAPEQBAACAhygAAADwEAUAAAAeogAAAMBDvl3K9gRledRMbZUyO2pWVYvyVuX1LocqXn0mFUBT2q08pjzo8oDSo1TbSmVW1ExtjrIiaqLZ2AIg7vSPSWJ/yapthvIbJW59hBDSTLFjnR3zqs2OzXHrSxI7R3iDtwDyd67yiHJUqQcAzc2OdXbMs2MfckQBkK+jla8ro0o9APCDHfPs2GfHQOSEAiA/9upVtyj8DAD4yI59dgzk6qo5YfLJzwXKlKgJAF6yY6AdC5EDCoD8sOsLABgLc0MBkJ/D3RIAfMZYmBMKgHzso+wfNQHAa3YstGMiMkYBkI8xbgkAYEzMBQUAAAAeogAAAMBDFAAAAHiIAgAAAA9RAAAA4CEKAAAAPEQBAACAh4xb+sJe63l51ExtlTI7aqb2GmVz1Extq/KmqAkAufmFMjZqpjZZeTJqprZSmRU1U5ujrIiaaDa2AAgrjP0lq5QtAOLuO0naFQDImx2L4saoJLFjYqXs2Bx330li5whv8BYAAAAeogAAAMBDFAAAAHiIAgAAAA9RAAAA4CEKAAAAPEQBAACAhygAAADwEAUAAAAeogAAAMBDFAAAAHiIAgAAAA9RAAAA4CEKAAAAPEQBAACAh4xb+sJe63l51ExtlTI7aqZmr329OWqm1qFMjJoAmsAU5XCXNmW4UokdyqPKw8pDyp+UWmhXJkTN1CYrT0bN1FYqs6JmanOUFVETzcYWAGGFsb9klbIFQNx9J4n9owPQ+PZS7lDi/s6rlaJyrdKqVJsdi+LWmSR2TKyUHZvj7jtJ7BzhDd4CAID82FecjynzS73asXt7z1fsHszX2xsACgAAyMd05U5lv1IvG/Zthn9T9in14DUKAADI3jDlVmV0qZetfZVvRk34jAIAALL3YeXIqJmLk5W/j5rwFQUAAGTvOLfMUz1sA3JEAQAA2bMf9ctbPWwDckQBAADZsp+Zt597z1ul5zNBg6MAAIBsdSk7o2auXnBLeIoCAACy1a38V9TMlT1DIDxGAQAA2auHyZcCwHMUAACQvVsUe3revNi3IZZGTfiKAgAAsvdb5YqomYtPKpVekAwNjgIAAPLxT0oexwLcr1wfNeEzCgAAyIf9JMAxyrcUeyW6WrMHH16mvLvUg/coAAAgP1uUc5TjlQeUTqXanlP+XXmDYvc67FKA0iUifWKv9bw8aqZmL6dZ6Qk07LWvK33/rUOZGDUBNAk7Jk9TDlWG2xsqsEOx41Wt3+tvV+zJjSphT4z0ZNRMbaUyK2qmZi/PvCJqotnYAsDuaqsk9pesUrYAiLvvJLF/dACQNzsWxY1RSWLHxErZsTnuvpPEzhHe4C0AAAA8RAEAAICHKAAAAPAQBQAAAB6iAAAAwEMUAAAAeIgCAAAAD1EAAADgIQoAAAA8RAEAAICHKAAAAPAQBQAAAB6iAAAAwEMUAAAAeIgCAAAADxm39IW91vPyqJnaKmV21EzNXvt6c9RMbZfynagJALn5gDIiaqY2WXkyaqa2UpkVNVObo6yIms2PAiC5eikAAKBZUADkgLcAAADwEAUAAAAeogAAAMBDFAAAAHiIAgAAAA9RAAAA4CEKAAAAPEQBAACAhygAAADwEAUAAAAeogAAAMBDFAAAAHiIAgAAAA9RAAAA4CEKAAAAPGTc0hcnKMujZmqrlNlRM7XXKJujZmo7lM9FTQDIzT8ro6JmapOVJ6NmaiuVWVEztTnKiqiJZmMLgLDC2F+yStkCIO6+k6RdAYC82bEoboxKEjsmVsqOzXH3nSR2jvAGbwEAAOAhCgAAADxEAQAAgIcoAAAA8BAFAAAAHqIAAADAQxQAAAB4iAIAAAAPUQAAAOAhCgAAADxEAQAAgIcoAAAA8BAFAAAAHqIAAADAQxQAAAB4yLilL+y1npdHzdRWKbOjZmr22tebo2ZqHcrEqAmgSeylHKEcqgy3N1Rgh2LHq4eVTntDjbQrE6JmapOVJ6NmaiuVWVEztTnKiqiJZmMLgLDC2F+yStkCIO6+k8T+0QFoDmcqG5W4v/VKU1QeU96l1IIdi+LWmyR2TKyUHZvj7jtJ7BzhDd4CAID8HKjYvZI3KQfZG2rA7uk9RPlX5VZlkgJQAABATuxu818rWb7qPF35kTKs1IPXKAAAIB9XKq+Kmpk6XLk0asJnFAAAkD17sNkHomYuPqO8NmrCVxQAAJC9uW6ZF/sJg5OiJnxFAQAA2TvMLfNUD9uAHFEAAEC2Rin2qPy82WMB4DEKAADIVotSD2PvCLeEpygAACBbXcq6qJmr/3RLeIoCAACyZ0/Pm7d62AbkiAIAALL3726ZF3va2x9ETfiKAgAAsne7kmcRcJ1iz0IIj1EAAEA+PqQ8HzUzZS86dEnUhM8oAAAgH/+jvE15vNTLxi+Vtyv2QER4jgIAAPLziGI/j/8lpdveUCPblE8oxyqb7A2AvUykT+xVt+ylNyuxSpkdNVOz177eHDVT61AmRk0ATcCeIGiWYguCNsWerrcSO5RHFXu0v93LsFuphXbFXtmwEpOVJ6NmaisV+/xVwl6jYUXURLOxBYA9+rWS2F+yStkCIO6+k8T+0QFA3uxYFDdGJYkdEytlx+a4+06SLC/NnDveAgAAwEMUAAAAeIgCAAAAD1EAAADgIQoAAAA8RAEAAICHKAAAAPAQBQAAAB6iAAAAwEMUAAAAeIgCAAAAD1EAAADgIQoAAAA8RAEAAICHKAAAAPCQcUtf2Gs9L4+aqa1SZkfN1Oy1rzdHzdS2KR+MmgCQm5uU1qiZ2mTlyaiZ2kplVtRMbY6yImo2PwqA5OqlAACAZkEBkAPeAgAAwEMUAAAAeIgCAAAAD1EAAADgIQoAAAA8RAEAAICHKAAAAPAQBQAAAB6iAAAAwEMUAAAAeIgCAAAAD1EAAADgIQoAAAA8RAEAAICHKAAAAPCQcUtfnKAsj5qprVJmR83UXqNsjpqpdSs/iZoAkJu/U4ZFzdQmK09GzdRWKrOiZmpzlBVRE83GFgBhhbG/ZJWyBUDcfSdJuwIAebNjUdwYlSR2TKyUHZvj7jtJ7BzhDd4CAADAQxQAAAB4iAIAAAAPUQAAAOAhCgAAADxEAQAAgIcoAAAA8BAFAAAAHqIAAADAQxQAAAB4iAIAAAAPUQAAAOAhCgAAADxEAQAAgIcoAAAA8JBxS1/Yaz0vj5qprVJmR83U7LWvN0fN1DqUiVETQBMZqUxRhpd66e1QNijdpV7ttCsTomZqk5Uno2ZqK5VZUTO1OcqKqIlmYwuAsMLYX7JK2QIg7r6TxP7RAWgObcq3lUeUXUrc33yabFd+q1yrHKDUgh2L4tadJHZMrJQdm+PuO0nsHOEN3gIAgPzYMfhi5T+VDyp272Klr/z3NEp5g3K+8phyugKUUAAAQD7sW7D3KVcodqKuNfuW4a3K9aUevEcBAAD5uFB5Z9TM1DnKiVETPqMAAIDszVC+EDVzcYOyb9SErygAACB75ypZ7PYfyD7KwqgJX1EAAED2DnPLPNXDNiBHFAAAkC077lZ6LpFqoADwHAUAAGTLHo0/Nmrm6lVuCU9RAABAtp5XnoqauXrULeEpCgAAyN7DbpmnetgG5IgCAACy92u3zFM9bANyRAEAANm7RrEX6snLL5WlURO+ogAAgOxtU96nFEu9bHUp71fyWDfqCAUAAOTD7oK3F+mxl+3Nir1yn70g0MZSD16jAACA/NgL87xOsZfsrbUfKIcqd5d68J69GpVP7LWel0fN1FYplZ7Ew177enPUTK1DsZ8nBtD4WpS3Kq93sRN1pZcFtnsW7Hj1oGILDPu+fy3YvQoTomZqk5Uno2ZqK5VZUTO1OcqKqIlmYwuAsMLYX7JK2QIg7r6TxP7RAUDe7FgUN0YliR0TK2XH5rj7ThI7R3iDtwAAAPAQBQAAAB6iAAAAwEMUAAAAeIgCAAAAD1EAAADgIQoAAAA8RAEAAICHKAAAAPAQBQAAAB6iAAAAwEMUAAAAeIgCAAAAD1EAAADgIQoAAAA8ZNzSF/Zaz8ujZmqrlNlRMzV77evNUTO1TuWvoyYA5Oa/lfFRM7XJypNRM7WVyqyomdocZUXUbH4UAMnVSwEAAM2CAiAHvAUAAICHKAAAAPAQBQAAAB6iAAAAwEMUAAAAeIgCAAAAD1EAAADgIQqAfOxwSwAAY2IuKADy8bTyXNQEAK/ZsdCOicgYBUB+HnZLAPAZY2FOKADy86BbAoDPGAtzQgGQn6sUdnsB8JkdA+1YiBxQAOTnf5WzoyYAeMmOgXYsRA4oAPJ1n/JFJSz1AMAPdsyzY58dA5ETCoD8fVp5u/LHUg8Ampsd6+yYZ8c+5IgCoD78WDlU+ajyXeVRpVsBgEZnxzI7ptmxzY5xdqyzYx6QqRMUu+upkqxUAAD1xY7NcWN2ktg5whvsAQAAwEMUAAAAeIgCAAAAD1EAAADgIQoAAAA8RAEAAICHKAAAAPAQBQAAAB6iAAAAwEMUAAAAeIgCAAAAD1EAAADgIQoAAAA8RAEA4CUdC9ve2LFwZtixYOYCdxOAJkUBAKCkfUHbQ0FgflnqmGCRCoHuzlNfyxgBNCn+uAHolf/MbmPM4a77opaw0NPTvnDmXNcH0EQoAACPtc8/dKzd5a9mS3RLfyYIlnYsmPkL1wXQJCgAAE/plf0hZlhxi+sOzgTHdCxoe8H1ADQBCgDAQ+0LDzlYr+wfc93yGDOxY+HM7a4HoMFRAACeaV8wY5IJwg2um9SojoVtHa4NoIFRAACeMabwvGumZMZ3LJz5iOsAaFAUAIBHNHH3uGalZnec1na8awNoQBQAgCc6FrQ9rkX1/uZD80PXAtCAKAAAD7xw2iGzAmNmum7VdCyY2eWaABoMBQDggUIYrnTN6jJBa8fCmUe5HoAGQgEANLmOBW3fc81a+Y1bAmggFABAszNmoWvVTMfCtne5JoAGQQEANDFNzNHFfWrO3OsaABoEBQDQ1MwbXaPWzPNzDzKuDaABUAAATap9Qds7XTMThREjl7efcuhw1wVQ53yr2E9QlkfN1FYps6MmUL/cVf5yo5U/rcVZQdhy/8TFj3ZHt6bTeeprC8VCz7EasP5F3WOiW3sr9oSTJt2xpt114R/7SZdZUTO1OcqKqNn82AMAoCY0We+n/JsxPbttMaJ0dCxse4v7z0PaumDyMH3P7fZ7w0JPj+7rAd0cO/lbpsU865oAysAegOTYA4C61Hnaa0eHYfe1+rP+oLupzoXvmLBoTb+zCXacPmNiUCz8Rc3EbyeYQtg6/rY1XLHQT+wBSIg9AECDa1/Q9na9Si6GYc+2xpn8LXO/2zPwyNaFbWPtLR0L2/6kyf8FNVMdSxAWg5+5JoAhUAAADap9YduNdgI1xtyvbiPvzZvdE5gt9rHoYRzgbkvJHOkaAIZAAQA0mPYFM+8qTfyBOcvdhD10Lpz5KtcEMAgKAKBBtLsD4owJTnI3IUYxDD7nmgAGwUGAyXEQIPrpWNB2bGDM3wVB+LowMAfoD2uibh4ehsFuY8JO/an9Wf01QRj+aMLiNXaXfdk6FrZdou//ouuiDBMWrfZtbAMHASZGAZAcBYDn9Cr8Y0EYfER/PVPcTampQFilP8JLJixe3a8o6Dx15t5hIXhGTfbUJUQB4CUKgIQoAJKjAPBM5xkzhoXd5od6hV/2Z9jTCXeZ0Jw/fvHqGzsWzPyF/joH/Mw7BkcB4CUKgIR4ZQEMoF2v9O177mFPYXftJ3/LjAhNcEPpaHgmfwA1RgEAxOhY2PYrvYT8muuiwXTOaxvmmgAGQAEAxDJ/4xpoQOOXrqno2gOADygAgHilM9MBQLOiAAAAwEMUAAAAeIiPASbHxwA9UDoS33N6Aq7tNoX/t/f3HutwNyXWsbDt74PQ3KKRZi93UxbaJyxaPcm14Q8+BpgQBUByFAAe0MS1UX8eB7luswvDMPjDxMWrX+P6NdV5atubQhP8ODBmhLupFn6rIuBvXRt+oABIiLcAgFjmYddoVjvCsPhWe8IcpZDV5G+Nv33NLyYsXjPSrdsEYWBPk1xtR3UsmPkN1wYQgwIAiBMGic7X3yCKgQkudhPv6ImL1/7U3Z6rCYtXH2i3qVAYtpee9y53c+VM8JGOhTPf53oA+qAAAOIUwt+6VhMIO4JdZowm2ZYJ31tdtyc3Gnfbfz2vYmCsLQbCoGp7Bb6rImCqawPYAwUAEKMYFmqxWzpj4ebo1f6aiROWPb7N3dgQJi6K9gqEYbjR3VSJdR2nHjzctQE4FABAjEmLHm93zUb0vJv4G/4gxomL10zZucuOU+Fz7qZ0CiN3uRYAhwIAaB5hMTSHaPLP8iN3NbfvstWhipl9ikGxol35HQtn7nRNAEIBAAyskc4F0KWJvzBp8eOrXb/pTFq0doPds6EfS9qPaY3oWDDj/7g24D0KAGAAYRD+i2vWtTAMHtbE6M21CyYsWjNHj/kA103GFL7vWoD3KACAgdX/58jD8OyJi1cf4Xre0GN+KtobEDwT3VK+9gVtPa4JeI0CABjAxEVrnnXN+hQGUycsXnOj63lJRcB+eiK+47plMcYUOhbOfIvrAt6iAAAGt9st60oYhgdNWLx6g+t6bcKiNWdq8Q9Rr2wPuCXgLQoAYBBh8oml9sLgiImL12x2PciERav/XU/Mu123LB0LZ/7KNQEvUQAAg5i4aPUPXbM+hOFH9cq/2a9TkMqERWvuM0FxiuuW42i3BLxEAQAMrV7OovfrCYvXfN21EWP8orUbTbGl1XWH1L5g5h9dE/AOBQAwhDAID3PNXE1YtPqNrolBjL/90e2mGP616w7KmOBA1wS8QwEADGHiojVPBPYDZznGtBQ5l30C429f84eiCQ6Jey77pv20Ng6mhJcoAIBymPD9cZNHNglPHn/r2m61kMCk761eHQRD/9yMMQerBXiHAgAow4Tb1twSN3lkkJ1a991qIYUJ31tzS2jCVTHPa690nNG2WC3AKxQAQLkKwTlxk0ctY4b1jFYLFZh465rZgQl3xj2/L8ecoq+AV+yvvk9OUJZHzdRWKbOjJnzT8YGZWV4g6GsTvrP6YteuWy+8f3aLCXaf57oRE7YHYbi1YIJN47+zZqW7NVdD/eyKYXHfSd9dW99nf8Rg7O/ZrKiZ2hwl7cWmGg4FQHIUAB7rOLNtmhZPRL3amnDzmrr8++w8s+0JzaT20rzpti8MekwQPrh7V/cb91q0oehurbld7z+4dXthRJfrxvmznnM+FdC4KAASogBIjgLAc50fbLNn4XtN1KuVcN74m9Yuc51cdXywzZgw2KHRYoS7qQYKh42/6fFHXKdmOs+a0RGEZrzr9jP+pvosulAWCoCEKACSowCAJpI2+8q1Vn8/4fhvr8n9+JxtZ06d1F0Y9rzrZmWXCc2YcTetrtmnHvSzG/itgDA4QUXA/a6HxkIBkBAHAQIphCZ8pDT91yKF8CR9zY0myHGdH2oLu1s0+cdtX20zIiyEu7X+YsdZbRN0S9XtKhYnxqw3SiG4SV8BL1AAACkYYw6LnUCqkPE3rL1XrVx0nN32J40KnXHblXGMKQTtnWe3dW/50IyqfhJi75uf6AhM2B2zTpsD9BXwAgUAkJAmpZpN/vLF0teMdXyobZ/OD7eFxk6AcduVX1rCgtnW8eEZv1SvalTAjYxZVylPnX24bQFNjwIASKoQ3BU3cVQj429Y82m1MtV5Ttu5piX4S9z21Es0Yb9R2xlu+fCMV+qWio371pqi7vd/+q7HZqzp+ke1gKZHAQAkZYK/7jtpVCVB+Gf7NUsd57TdqXVf129b6jRhwTzdce6ML6hXse7izti9HVrHWWoBTY8CAEig8/yZe8dNGtWIJh77KZXMdHyk7WemEJwcty31HGPMpzo/0lZxsfSKGzaFur91/e9fBR7gAQoAIImw+Pm+E0a1MuG6NY+plYnO82bcrYnu2LjtaJDs33le6aOYFRl/3ZrpMfcNeIECAEjCmLNjJ4wKE5pgo1qZ0OT/KT2OE+O2o8FiOs8f5DP95eu3FwDwAQUAkETfiaJK0f8zed+586NtbUHBfKHv+hs5ekwVFQGqI2b1u8/z246x/w1oZhQAQJnaL2gb13eiqFbGf33Nz9SqPROs7rvuCtITmPB+zb7Xq31+aILTlTOCILw2NOFjff5tTdN5Qfq3A8Z9Y7U9zXHv+yyEc/UVaGr2V90nnAoYqW25YMb7NcF9x3WrqTj+6rUtrl0znRfOeEGLiVEvpTD4xtYdYy7a/4aHyz5Vb8cFM2YYE9yg5puiW2pmq57Hca6diH62x+tn+0PXtY/zV+OvWctegMbCqYATYg8AUK5CcJEmMnuUeFWjV9F3RyuonS0XzjhW65rYd91lJwj+RpOr0aR4fpLJ35pwzdq1+t432+83QfgGfdnd676rl7GdF834uVttIuOuWfujXvdVCOxVH4GmRgEAlMvo1YUmh2rH7O4+Q63aKgQ/i1v30An/z7ir1ppxV699VL2Kjbv6id/r/kbovv9K6em9rsqjyfvNnRdNt6/iklN1ssd97VW6DWhiFABAufaYaKqZcd/YuE2tmtny8ennxa13iPS0DO8ujLvyibvUq7pxV659WhmmAmNezLoriimYH2z5xMGJ31IJTfDWPe6HsRFNj19yoFx7TDJVTa0Z8/XY9Q6cleO+tnZY65c3VOMjdoMa97UnlmldRuu0p+aN25Z0CYfv1NdExn9tbe+9JECTowAAytD5iWkH9pocqpfn9LVmtnxi+iEx6xws/zXuq2tfp1amtM4WvQKv5vUIWjovnn6mWsnseR9Ak6MAAMpggsIbek0OVYomvcfVqh1jVsWtd4B0jbtibaVHUac2/oq19kI/P4rZrlQxBZPm2v6Xv3QfQJOjAACG0HnJtElhIbh9z8mlWtH/F6tVO3olvOf6Bsu4r6wdq1auVIC8Xdvy477bljZbPjnjt2qVLWwJ/sl9b+K3EIBGQwEADGLLJTO26dX/88YEw/ecWKqV4cPH1uK8AiVbLpn22rh1xqUY1s9R7+O+vPZ4bdP/9t3GVCkEb9DXso3/0toerd8oo9xNQNOiAABiaOJftOVTM+zHwkb3m1SqmFGXP7Rbrdowhd/HrTMmj0z4ytrn1aob4760tmpXXez81IzfqAWgDwoAoI8tn9bEXwgWxE0mVU8tmWBUv/XFZNwX1x6mVt0JE7x9MViMCY5SC0AfFACAs+Xiaa/YcmnpVX+/SaRmqaW49fVJaMJsrkGQwvgvrC2GQfCPcdudNB2XTvsHtQDsgQIAkK2XTntfMLrwv6W/iCxTI1s+M2NS7Pr6ZNyIscerVbdUBFwet91JUygU7lMLwB7snwfgtS2fmX570GK+a4xe/Gec2inuE7e+fvlssvP658L0HBO77QnT+c/TGO+APfAHAa9t/adp95hCcErcbuNMUisFMyd2fb1zh77WvXGXrf9VzLYnTqFovqoWAIcCAN7a8s/TP6+Xhu+JmywyS62YYEq/dfVNEHyt9LURGG1r3GNIkkJwkb4CcCgA4KWtn53+FmOCS2MniixTK3Hr6pOx//LEg2o1hJ2m55NxjyFxALyEAgDeab9siv1s/wP9Joc8Uitx6+qbBrLXZzdU5WJBWz83nTEPcPhjgHeGhS3b4iaHXFIjxoRDX2u/0ZjgO/0eQ9IE4SftVwAUAPDM1sumPRM7MeSVGglN4ebY9e2ZBhOa8IuxjyNJCuaL+gpAKADgjS2XTT9OL433jZ0YcsqOyw8Zo1YNFP8ct75eaTDj/t+6dbGPI2kAlFAAwBumEPw0dkLIMd1hd02OTNdkOfTFdBpR3ONIGgAlFADwwpbLpz8UOxnknNAEp6tVGzHr65VGFPc4kgZACQUAml64NDDGBIfHTgY5R9s1Xa3aMMFzfde3Z7Z8cfoMtRpLzONIHAAlFABoel2bpj8bOxHUS2okNMWjYtfnYsIGOhHQi2IeR+IAKKEAQFMLP3v4MA36e/WbBOooW7404x1qVd24T63fGLe+l1II5uhrY4l7HEkDoIQCAE2tq3XLxr4Xham/FG92m1t1uv+f9F/fy+n68tQ3uX/aEOIeQ9IAiFAAoKkZE7w69lVgHUXbuL9atdFSfHvcOl+O+Q99bRyxjyFhAJRQAKBpbb1i2jdiJ4A6zNYrphynVtWNuXhDMTTBw3HrfDFbr5h6pVqNIWb7EwdACQUAmpZeWX8kdgKow5igcLdaNTH2E+uO6Lu+PWOMuajrq1NfqV79i9n+xAFQQgGApqVXvkfHTgD1mEIwUV9rqHhC7HpfinlaX+vatmsOHhm/7QkDoIQCAE1r7MfX/UaLc2MngTrM1iun3qFWTYy5eMP9Wscf+65zz3RdOa2uj5ALe1qOidvuxAFQQgGApjbm4+u+qcVnYieCOosxZr5aNTPmY+uGPCCy66pp4Y4rp45Ur/6Y4PK+25smW6+aerFagPcoAND0NPF9PiiE58VNBvWWrVdOu0atmhlz0Tqj9YR917tnegpmR9fV076iXn0xwZF9tzVNVGhdoce3Uj3AaxQA8MKYC9ZfVwzMrLgJoZ5iWoKPqlVTYy5cV9C69HSoM3A+0XXNtHDLVdMPVS+xrVdP+7S+/37XrdjOL7/ObnPcdqbNrK3XTP25WoC37J+CT05QlkfN1FYps6MmGlHXtdOKWtTt734YBL8Z+9F1R7tuzeh5eFaLvaPekLYqB4/56Lq/RN3+tl09Zb+wUFij5p4HNPboe4a5dmpbr532Gf3ALnPdqikWgxPGXbiuaoUKcmX36syKmqnZs2OuiJrNjwIgOQqAJqDJb6d++0e4bt3Z3RJOmnju+nbXrZmur089U8PATa5bdWEY/nHsR9e/2nVT6/p67Q5Q7N41vGXCxx+3RSEaGwVAQrwFAC/pVenI0ITLSyVwHWZ40bygVs2NOX/9zWPOX6c1hk/GbUeF2ViNyb/z2qljY+67ahk2cvcOtQDvUADAW2PPW//O1mdL74fHTgx5p+u6qbeolQkVApPHnLfOhCZ4Im5bEqa7YIL9dX9T1KtYS4sZ/KJGlWd41zemna4W4BX76+8T3gJArG3XT71Ri7OiXv0ohuH+Yz+y4X9cNzNd10+1z8WVGiDGRrcMLQyCh8acu/71rlsVW6+f0qIKrdt1a6r13PW+jYfNhrcAEqIASI4CoIlt++aUh/Rncbjr1oXWc/KfmLqun/JOY8yxmuX3DQrBM+7mICwGT2nSr9lHF7u+OfVpPfiMTlNsLmo9Z93VroPGQwGQEAVAchQAHuj61pRfm8D8revmbVvrh9ePcW1vdN140DhTbOl03UzoeWYvQOOiAEiIYwCAGGM+vOFoOxmEJvyqe584z7Ruu2GKPa2xV0yoyT/++ahZtt188Ci1AC9QAACDGHP2hk+0nr3emJ5wXGiCn8RNGtnEHNV149RFanlh241Tfhj/PNQ2YY/5kVqAFygAgDKMPnfD1jEfWv+21g+tNza66Sy9RH08bhKpVYwJFnTdNPUq9Zpa140HT9aDPT7uOah1jDHHqAV4gQIASEFFwE2tZ204tPUsFQSKioGb4iaUakf/v3DbTVNuU69pmUJhU9/HnWkAT1AAAFXQ+sENZ8VOJjWJOW3bzc15TMC2m6cOeqGiLNJ105Q3qAU0PQoAoEqKQViVq9WVF3PUtu9MzeRsgVnR4xnqAkXZpGAu0Veg6VEAAFUy9swND2oCeabfhFK7TNz23anhjlumNvzfsR5Htx6P/V/c48wyD435wPqT1QKaHgUAUEWt71+/X8ykUtMUg6Bn261TG/ZV67ZbpvbocbT0fVxZxxSCI/Tzq+qZDIF6RgEAVFsheGPcBFPTBMEXu26d2lFqNYjttxy0lwoX+55/rtdjCE2wrvV9683oM9Y/rFsAb1AAAFXWevr6XweF8OnSX1eG0SvY8du+NzVUrtMtda3rtim3hy0tz8U9jgzzjH5Ow8ecsX66eoB3bA3sE04FjMxsXzTFXmM+n7+x0F6bJ3jL6NM2/Dy6oX7oedmtxbColz0TmLeNWrj+J66L5sGpgBOiAEiOAgBl2XLrwWbYMGOLgDyFqgTmty7YsMz1c7Nt8ZR1GnCmum4t2eLnHi12q/FTDXN3mSBsH71g467oP6NJUQAkRAGQHAUAyrZ90UFtQaGw2nVzpclwXeupGzLf3b399oMf1FBzhOvW3OhTN/g2riFCAZCQfScMQI2MXrhpjRYPlErtnGNMMG37HVNCm213HHy/bq2ZHXdMmfDiurTiI+K2pyYJwswKDaDRlf5kPMIeAORi+5Ipz2sxKerVoTD4R40GV4yevyH1bvJtiyYfaIa1/LeaubywCIPwwdb5G490XfiHPQAJUQAkRwGAVLYvnbJNi9FRr1GE/xqE5raiCdvdDUEhNBM1chym5pnKK0s35q84et6GFteGnygAEqIASI4CAKnsWDp1bGjCLa6LKho9l/f9QQGQFMcAABkJC2GWpwn2J0EwrfQVQCIUAEBWTNDab/IiFSUMgrP06n+9egASogAAshIzgZGK8o3W9264SS0AKVAAABnYcdfkA2MmMJI2QXDH6JM3nF9qAUiFAgDIQFhoWRE7kZHECU3wHU3+p6oHoAIUAEAWTHBI34mMJI8m/4+1nrjBfvwQQIUoAIAMGGNPiEcqSlg8oPU9G65yTymAClEAAFmIeTVLyote9e8a9e6NZtSJm57SLQCqhAIAyELMxEaGjib/5aPftXGkegCqjAIAyELM5EYGTxiEXxj9DxvfqR6AGqAAALIQM8GRwWOM+aNaAGqEAgDIQswERwaPaTG/VwtAjVAAAFmImeDI4Bl5woaH1QJQIxQAQBZiJjgyRADUFAUAkIW4CY4MHgA1RQEAZMEExX4TXI0SmuCBuNsbK2G7vgKoIQoAIAsmOLP/JFf9aPJ/xejjN/7dqOM3GhtNpPvq9uf6/rsGyBv1FUANUQAAWTDmtphJrppZO+ptG83ot218Qb2XjHrbpmd1+z72v9mYYnGS/u2P+3xv3UXbvVotADVk/9x8coKyPGqmtkqZHTWB8u144ODQNatq1Fv1Sr8COx44yJ5pv6A7eZc28GQt5+jmvaP/mr3QhNtHv2VTq+sC5VqpzIqaqdnf/RVRs/lRACRHAYBUdv7soOoVAGGwe+RbNo1wvUzpcRS1qNnYMfK4Tb6NS6gOCoCEeAsAyM6HX9zFnTL2knhftxNkXpO/pfUXYratWqnJXhIA/VEAABnRxHlDzIQ3VHYr1488VpP+sZsKI4/d/FHdmrti0DOsz3ZWJSN2dI1RC0AGKACALJVexZeWcdkRmmBzaMILR75ZE36UEcpH9F/ryuhj/7unZ9iwahcBoXnHM9vVApAB+2fnE44BAKps5y8P2qlFxW9JmDBoGfGmTfb4AiANjgFIiD0AACoy8phNI4MgvKfPq/mECX/E5A9kiwIAQMVGHrP5pKCl0KrJfEf/yX3ojHzj5rerBSBDFAAAqmLkURu2jzx60+ggCI/QpF72qY8LhWC4WgAyRgEAoKpGHr354ZF/u6klNEV7GuI/9Z3w94z+zSHDj9rUrR6AjFEAAKiJUUc9+ezIoza9SrFT/bt109o+BcAl+jec8hdAJuynAOyJRiqJPdIUQAV2/P6gg1wTqBY7NseN2Uli5whvsAcAQOZGHblpk2sCyAkFAAAAHqIAAADAQxQAAAB4yB6L6xNOBdzg5s2b97YwDD9hjJmm7r7KSGW7bvuTlr/u7u6++O677+5QG4BfOBVwQhQAyVEAZEyT/r9r8c6oV7bnVCQcuWTJks2uD6C5UQAkRAGQHAVARubOnfsnTeIHuG5qYRi+Y9myZT90XQDNiQIgIQqA5CgAakyv+O0f4DuiXtXsViEwWoVAj+t7T8/zWXpOrlORNeSpeJcuXerbWIHGQwGQEAcBoq5oUrKnha325G8N10TXPXfu3E+5vrf0HB+o2JOe3FjO5C83uSWAJkIBgLpw3HHHFTQp2cvBtkS3lK3dLcuiCe8LWs//uq533vve9/69Fn+MeuXRq/+zXBNAE+EtgOR4C6DKzj777Jb29vZyLgjzOU3gn1uyZIl99RpLk/vwMAyf0r/b2900kE9qYrvCtb0wd+7cSXpennfdcu3S82Q/aQHUO94CSIgCIDkKgCpzu6MHtH379tb77rtvu+uWTff7Sy3eGPV68XJSG+p5jqNiqnXZsmWJn3sgBxQACVEAJEcBUEWDTUqafP6iyeeVrpua1mH3Lrz41kKoyd+7t770HLxKiz9EvX5ereck0dsCQB2iAEiIYwCQm7lz5/7UNeN8uBqTv6XJbZgWd9n29u3bkx5j0CxiD+RTkTWMyR/wE3sAkmMPQBXMnz9/hCafna7bi25fqMl/seuiCgbY0/IfmvyPdW2g0bEHICH2ACAXmuRjj8TX7b9h8s+GnuvPuSYAD1EAIHN69W8PwBsb9XrT5H+0a6LGCoXCC64JwEO8BZAcbwFUaN68eb/V4g1R72V6RbqfCoBnXLcuaFt/7povenLp0qXvc2373w/Rdr/bGPO36k6Ibu2tnN3sc+fOtfexTM0R0S292IP3Ttb9PBx1Xxazff+qf/dV135J3FsA2u5/Uv7bdWN9//vfv9U1B6X7twcZflOJvWaD1vPpYrF4xZ133tnr4576Pvv32Br1IgM9X30f657/Ts/fPu756/e9Wvf1Wlyk361d0S3Voe2ZrIU9tuItpRt602rDj2mdV7v+S/o+Dquc3xEMibcAEqIASI4CoEIaAOPej67Lo/NjtnW1tvMQ3b5R7YOimwamSeBdmgT+zXV70aQ1TJPWk2qWfb0D3d9XdH//13Xjtu9b2r5zXPslAzznQ9J9DTpG6H5P1SLJWzbdesx7L1mypHTFRn2/XY637RcNtM6+j8H+Oz2HE3V/9twGZY1lO3fuHH7vvfeWc86JAWk77PNri4py7dA2vkKPufRxyrifxVDPM8pCAZAQbwEgUxqwx7lmL5rYGmXX/zg3gA85+VuDTP6f16SwW81EFzvS93zSrl/fby+FnJuTTjpphHsekh6vMUw/63Zt/92un5ru40N6PuzbGGVPniNHjtyt7zvfdRPR901yjznJ5G+N0mPepu+9xfWBukABgKzFnotfE6V9W6AR2F3dZdGgH/seuyaCrZq4LnXdVPT9z2hCOtF1M6X1Hjl8+PDYT3CUS9t/op4HWwClpvu4wTUT0fddq3Xf6bpl0b8/Ud+X9CyKfZ2h+3nOtYHcUQAgUxpE7S5jXxzoli/RBGCvRjgm6lVGz2XFr6KT0uR/hNb7O9etlD0/Q6/d/xk6WT+L01x7UPp387Wo1nO9l1sCufPtfSeOAciZBtN+73/K2qVLl7a59pA0Cf2VJqHTXbeqtB1fds2SAbZ3IOuVlw40030d6pol2u4N2u6DXXcwK8IwXKflvvr379ay10FyQyj7GADd92FLlix5xHXLUubzYf9GfqPHYA9ofJPWM7V0a5kGej+8zHU/qtgD757S+o/Wuj+t9oAnfxpoXS/Sz+wA3cefXHcw/6n1/V7/1n7C5TjFHiBYtqG2A2XhGICEKACSowCoQNwgroHzy8uWLbvEdYdkd0FroK3Wq9Be+g7EZUw6P9X3vNW1B6RtPljbvMF1+9Fz8GM9B8e7bj/6/rP0/Te67mBqVgAM9lxo+3e0tLS86o477ojdxT1//vxX699sUnPIMzEONBkO8bP4o77v1a7di5671+ixbnbdvp7S9w14HMYQ69yh7K3v74q6vel7beFjC7khDfSYkQgFQEK8BYDcaXAe6Bz19W6hBu4hJ39rsMlf/+01g03+lv77t90kUdF772lpEo09dsO5Rts3eqDJ31Kh8Qdtvz0AcIm7qZoe1X3HTv6Wts1+dHOgCXZ/t+xHj/lrrhnnUt3naCV28rf039bb9eoxezOhoLFQAKAe9HuvvAH8WIN7WUfAayI50jX7KRQKEzU5DvpZ/D1pnaO0qOjguTRUpFzumr1ocrtG23Sh6w5Jk/Ep+p5EB+ANRev/G9cclB7DdNfsRT8f+zZLP/r3H3PNXrT9F2udX3DdIekx21eVP4l6QP2gAEDuNKDWy0cAh9rd/xJNAIO+Yu9joE84fEqvmkufh09C6447WVDNLFiwwB6DEPcKepsmt7In/xfpe96rRVX2ZOh359uuOSQVWnZ3fNzP+Cq3fImKgriT+1id2v7B9gzE0s/sba4J1A0KAGSt3y5TvdJ6s2uWRa+aH9Pi9RUmzja3rCo9vtjdz5oUvuSaiWnis8eiZKK7uzv2/fNdu3alPoJf21+to+H/2S3LVXTLPfV7G0A/su+5Zl/7uGVieszTXBOoCxQAyJQGwftcMzW9ktumyfOhSuLuqq8B36fvwx5sVKl73TIVvQrN8kDUuEkvvOeee+xHGlPR9g/43nkSup+nXLMs+v3rtzdGk709cr+v2GMD9LuT+nTC2lb7KRGgblAAIGtfd8te5s2b9wrXrDmt61zX7GXYsGFlHdAnZe++njt3buy58UeOHHmSazaCfnswNJH+2TUrMdCR+TWjyT71aYD1mG9zzUqkLpqAaqMAQKb0KuhXrtmLBtfYU+bWyDVu2cvixYsrPdNbP5pwjnLNXm677bayjzeoU9U4kO/3btkQ9LOsxoF8d7klkDsKANQFDa72ano199nPfta+mrVnoOurVkfWV2VX9wByKyL08xry8/xlyOUjjRUY6KOESTTaY0YTowBA5vRq/wOu2cvcuXN/45o1s3r1anvyln60Ta91zWqr5Su+akxIqej5qsZ1CGL3jtSxct8iGsy73BLIHQUAMrds2bLvumYvdnf5vHnzYq8WWA267/O0iP0InbbpCdesqqVLl8Ye+DV//vzMz+Oflib7fntH9LNKdBXDASQ6RXAdKOvaAUOY4JZA7igAkAtNKgN9lrrTLatKk7/9XY89AFHbYi/2kqlKX0Hr8WR2YplCofCwa+6pGnsfctuDUYa457ei7Z07d+4rXROoCxQAyIVecV+sRex72JrcqvretgZe+57/gEdfa1uWumatxK5bj7OSTwJUY3d0WZYsWRJ7fIa2P/Zyx+XQz6QmhV61qEA7yzV70Xan/vSDMeZp1wTqAgUAcqNBdtCLsJx88skVH2h2yimn7K+Bd7AD/KpxMNugli5dGnfQoXXX/PnzE69fz03qz6JXIK4om6gJ8QLXLpu+5zL9TGr2Vk81qCh80jV70Xbvr+1PXLjpe77qmkDdoABAbjTI/o8W90S9/oYNG9atgTPxqWZfpInyF8VicbBXbOdpco47M1xmVATZxzjGdYekx2Q/VTA86mVH2xl7eVtNiFdrm97nukPSv71A3/MZ161389yyF23/XfqZ2SuLlkWP+VJ9z8ddF6gbFADIlSZg+2rKFgKxNHBepQE01IBb1iRjX1Hr399sv0fdY6JbY9kzAl7n2jWnCXTAV/p6jFv1+L7hurH0eGa6x2TPy585FWv2gkUDFUvf1bZtOeWUU+yFimKdeuqpw/UY7VsG9lr9DUG/H8v0c4vd26Kf2XI95g5lwGLs5JNPHq7/bp+zz0e3APWlng/CqQVbtS+PmqnZc7BneRpWL2igfFaLvaPekH6vgflbGoSf0HK4lofrtvOV15T+69Ds5D/Q9QB60XbF7fr+nb4/8UfYdF/2IET7SYRB6TF9TY/pp1q+Ukv7718X/ZeyfEvbdo5rvyTucei+D1uyZMkjrluWAZ6Pvuzpnm9R7LEP9mNvZypl0/bHjktx6x7o3w5E9/EzLY6Nei8b7H7KfMxL9fOyV4fU02psUXtG6dYyJX0ciGVP0T0raqZmr9zozeWb2QOAuqAB0J5v/ndRb0hHapC9SctfavlTLa9Qypr8NUhfqXWVNflXm9Z7vtZvL2Q0KD0mu7v4Pi3tle6STP5ZGOh4hj3ZSf/7iv2oY6LJvx7p5/Aq1xzMPP27exT7mBNN/kBeKABQNzRBHqUJ8mTXrbqenp59ly1blut7sVq/PeHQj6JeZfRcJbqKYjXoZ2Rf1cddPCcxbb+9FHJdfxrAWrJkyZ+02C/qVWzAt7uArFEAoK5ogrxbk4zdHRr32fNUNNF8197nnXfead9myJ225e3apsGOTyhHq56rX7h2prT9u9zP6JnollRu1PZPdO26p8f7jHvMlVwv4iu6j9irDAJ5oABAXdJAeYQbcFOfMU+TrB1wjSaa2FMP50nb9Cu7bdpGu5u/bPr3F9vvU7a7m3KjbdhP22M/HZDkCnsbdu/ePUzfe7brNxRt915a2Ldlyn7Meo4edz+z/+tuAuqCbweecBBggzrttNNG7Ny581+MMe9XN/aMahpo7el8v6nJ9arolsrNmzcv7lz+6zWYX+LaVTF37tyDtLAH/70nuuUl9gC0O4vF4vnf//73+73ijtm+H2rbvunaL4l7HLaY0HNVtUvy6jHYj7tdpKY9nmNPdh2f13bZ4zZ60XYt0mJ01Ivo38W+DRT3GAb6twPRfVymxSFR72VJ7+dFesyf0+JCPe6+p/hdr+f3Mj2//S4hXI3HgVgcBIhB2QLADqiVxP6SAQDqix2b48bsJCn7/A7NgLcAAADwEAUAAAAeogAAAMBDFAAAAHiIAgAAAA9RAAAA4CEKAAAAPEQBAACAhygAAADwEAUAAAAeogAAAMBDFAAAAHiIAgAAAA/5VgDsdstKjHJLAED9qMbYXI05omH4VgA87ZaVmKK0Rk0AQB2wY7IdmytVjTmiYfhWAPzZLSvRosyOmgCAOmDHZDs2V6oac0TD8K0AaFe2R82KvMEtAQD5q8aYbOcGO0egiW1QwgrzF2UfBQCQLzsW2zE5bqxOEjs3eMXHTwE86ZaVsL9w34yaAIAc2bG4Gi/IqjE3oM59Uomr/tLk04pRAADZsmOvHYPjxuY0sXMDmtxUJe6HnzY/Vw5SAADZsGOuHXvjxuS0sXODV3x99fq4MjNqVkWXcq/ykPKgskbpUQAAlbNH+Lcpr1eOUN6jjFGqZbVySNT0h68FwOeVS6MmAMBzlyv/GDX94eNBgNbtit3lAwDwm50L7JzgHV8LgMeUxVETAOAxOxfYOcE7Ph/BPllZq4wo9QAAvtmlzFA2l3qe8XUPgGV/4NdHTQCAh+wc4OXkb/n+Gfa9lXXKpFIPAOCLF5RpynOlnod83gNg2R/8KQof2QMAf9gx34793k7+VjWuntToNiodygmlHgCg2X1c8f5AcAqAyO+UA5XDSj0AQLP6tuLdZ/7j+H4MwJ6GK/co7yz1AADN5gfKicruUs9z7AF4WVFZotjTSx5tbwAANI2vKh9Uuks9sAdgAGcoNygjSz0AQKPaqZyt3Frq4SUUAAM7SrlNmVLqAQAazQbldOW3pR568f1jgIOxvzD2ioEXKF5/VAQAGowds+3YbcdwJv8BcAzA4OxxAb9XvqXYC0bYy1DagwUBAPVnu/IVZZ7yC8WO4RgAbwEkM0Gx5wuw16Keo0xUAAD5aVeWK/cqKxR7XheUgQIgvWHKm5U3KQco+++x3EfhuQWA6rB7YJ9VnlL+vMfSvsr/D4Uj+xMLgv8PpvUnmmVSAdAAAAAASUVORK5CYII=;" vertex="1" parent="Apy_nMzA6MKSCh_NEfZ--142">
          <mxGeometry x="75.5" y="36" width="100" height="100" as="geometry" />
        </mxCell>
        <mxCell id="Apy_nMzA6MKSCh_NEfZ--145" style="edgeStyle=orthogonalEdgeStyle;rounded=0;orthogonalLoop=1;jettySize=auto;html=1;" edge="1" parent="1" source="Apy_nMzA6MKSCh_NEfZ--158" target="Apy_nMzA6MKSCh_NEfZ--137">
          <mxGeometry relative="1" as="geometry">
            <mxPoint x="678.5" y="1031.0000000000002" as="sourcePoint" />
          </mxGeometry>
        </mxCell>
        <mxCell id="Apy_nMzA6MKSCh_NEfZ--156" value="&lt;i&gt;Requêtes HTTP&lt;br&gt;&lt;/i&gt;" style="text;html=1;strokeColor=none;fillColor=none;align=center;verticalAlign=middle;whiteSpace=wrap;rounded=0;" vertex="1" parent="1">
          <mxGeometry x="50" y="1057" width="60" height="30" as="geometry" />
        </mxCell>
        <mxCell id="Apy_nMzA6MKSCh_NEfZ--157" value="&lt;i&gt;Requêtes SQL&lt;br&gt;&lt;/i&gt;" style="text;html=1;strokeColor=none;fillColor=none;align=center;verticalAlign=middle;whiteSpace=wrap;rounded=0;" vertex="1" parent="1">
          <mxGeometry x="-220" y="270" width="60" height="30" as="geometry" />
        </mxCell>
        <mxCell id="Apy_nMzA6MKSCh_NEfZ--154" style="edgeStyle=orthogonalEdgeStyle;rounded=0;orthogonalLoop=1;jettySize=auto;html=1;" edge="1" parent="1" source="Apy_nMzA6MKSCh_NEfZ--124" target="Apy_nMzA6MKSCh_NEfZ--91">
          <mxGeometry relative="1" as="geometry">
            <Array as="points">
              <mxPoint x="-145" y="260" />
            </Array>
          </mxGeometry>
        </mxCell>
        <mxCell id="Apy_nMzA6MKSCh_NEfZ--163" style="edgeStyle=orthogonalEdgeStyle;rounded=0;orthogonalLoop=1;jettySize=auto;html=1;" edge="1" parent="1" source="Apy_nMzA6MKSCh_NEfZ--116">
          <mxGeometry relative="1" as="geometry">
            <mxPoint x="304.5999999999999" y="1072" as="targetPoint" />
          </mxGeometry>
        </mxCell>
        <mxCell id="Apy_nMzA6MKSCh_NEfZ--164" style="edgeStyle=orthogonalEdgeStyle;rounded=0;orthogonalLoop=1;jettySize=auto;html=1;" edge="1" parent="1" source="Apy_nMzA6MKSCh_NEfZ--116" target="Apy_nMzA6MKSCh_NEfZ--110">
          <mxGeometry relative="1" as="geometry" />
        </mxCell>
        <mxCell id="Apy_nMzA6MKSCh_NEfZ--117" value="&lt;font size=&quot;1&quot; style=&quot;&quot;&gt;&lt;b style=&quot;font-size: 20px;&quot;&gt;Client Vue d&#39;urgence&lt;/b&gt;&lt;/font&gt;" style="text;html=1;strokeColor=none;fillColor=none;align=center;verticalAlign=middle;whiteSpace=wrap;rounded=0;" vertex="1" parent="1">
          <mxGeometry x="-410" y="1139" width="251" height="30" as="geometry" />
        </mxCell>
        <mxCell id="Apy_nMzA6MKSCh_NEfZ--170" value="" style="group" vertex="1" connectable="0" parent="1">
          <mxGeometry x="180" y="920" width="251" height="152" as="geometry" />
        </mxCell>
        <mxCell id="Apy_nMzA6MKSCh_NEfZ--161" value="&lt;font size=&quot;1&quot; style=&quot;&quot;&gt;&lt;b style=&quot;font-size: 20px;&quot;&gt;Serveur hébergeur du site en Vue.js&lt;/b&gt;&lt;/font&gt;" style="text;html=1;strokeColor=none;fillColor=default;align=center;verticalAlign=middle;whiteSpace=wrap;rounded=0;fillStyle=auto;gradientColor=none;" vertex="1" parent="Apy_nMzA6MKSCh_NEfZ--170">
          <mxGeometry width="251" height="30" as="geometry" />
        </mxCell>
        <mxCell id="Apy_nMzA6MKSCh_NEfZ--167" value="" style="shape=image;verticalLabelPosition=bottom;labelBackgroundColor=default;verticalAlign=top;aspect=fixed;imageAspect=0;image=data:image/png,iVBORw0KGgoAAAANSUhEUgAAAgAAAAIACAYAAAD0eNT6AAAAAXNSR0IArs4c6QAAAARnQU1BAACxjwv8YQUAAAAJcEhZcwAADsMAAA7DAcdvqGQAACm9SURBVHhe7d0J9CVleefxbrobGmg2FQZcacS9sXsUcImaaFz6jzEucTSZuKEHjCtxouNopMEQs6iJnjgTlzFHxSwmHqOGCd3jQrsvg2i3oEkQ7VajcUFpQKCF7v7P77nvAzbN/f/71va+VfV8P+c8533qD31vVd2q932qbt2qpUtQ13LFIxQPV9xJcce92qMVrFsAaMe84seK7yu+t1f7acWnFLsUqIhBqpojFOsVT1TMKY5UAADK2aHYqPiwYpPiagVmQAEwm8MVr1S8THGw/QEA0Ds3KN6k+FPFNfYHLGyZt5huheJFin9UPM6nAQD9ZH20fS17hmKn4iuKPQpMwRmAhT1Y8V7FiZMpAMDQXKF4puILkyncCmcApnuW4gOKYyZTAIAhup3CCoDvKLbaH/ALFAC3ZuvjDYrXK+wqfwDAsFlf/mTFYYqPK+wXBRC+AvgF++7oQ4rTJlMAgLG5UPEkxU2TqeA4A/ALb1c8PaUAgBG6h+I4xQWTqeAoAJKzFK9OKQBgxB6gsHsHfHEyFRhfASxZ8liFnRaiGAKAGHYr7Ovej0ymgopeANxBcbniqMkUACCKqxT3VFw5mQoo+lHvHyl+JaUAgEDsrq4HKez2wSFFPgOwWvGvigMnUwCAaG5U3FuxbTIVzAHeRnSegsEfAOKyMcDGgpCingFYo/iqgosgASA2uzHQ/RWXTaYCiXoG4LcUDP4AABsLbEwIJ+og+DXFfVPaiusU9izqLykuVvyLwn5mAgBozi5Yv4/iFMXJiicqDlW05euK+6UUY2Z3grJTPm3FJxUnKAAAeVifa33vtD65btjYgJF7hWLah18nXqXgqwQAyM/6XuuDp/XNdcLGBozcxxTTPvyqYY8LBgCUZX3xtD66atjYgJG7QjHtw68SP1IcrQAAlGV9sfXJ0/rqKmFjA0buesW0D79KvEwBAOgH65On9dVVwsaGUKL9DPBIhd3+sanwT5ECgB5po0+2scHGCIyU/cxjWuVXJXYpDlEAAPrB+mTrm6f12VUi1E8Bo50BONbbJux7onCnigCgx6xPbuM7/DbGiMGIVgCs8LaJnd4CAPqjjb65jTFiMCI/DAgAgLAoAAAACIgCAACAgCgAAAAIiAIAAICAKAAAAAiIAgAAgICiPcp2vWJjSmvbqliX0lYtUzxKcYrHGkWo36QCGKWbFJcpLva4SLFb0bYtirUprW1OsSmlGBsrAKbd/rFK2EbWtnsrPq+Y9n4EQRBjCuvrrM9rm/XN096vStgYEQZfAZT3AsVXFA+eTAHAuFlfZ32e9X0oiAKgrIcq/qdi5WQKAGKwPs/6PusDUQgFQDn29Kr3KPgMAERkfZ/1gTxdtRAGn3JeqjgxpQAQkvWB1heiAAqAcjj1BQD0hcVQAJTzQG8BIDL6wkIoAMo4WnHHlAJAaNYXWp+IzCgAyjjUWwAAfWIRFAAAAAREAQAAQEAUAAAABEQBAABAQBQAAAAERAEAAEBAFAAAAAS01Nso7FnPG1Na21bFupTWdrxiW0pr+5ni4SkFgGI+rViV0tpWK7antLYtirUprW1OsSmlGBsrAOYbhm1kTVkBMO21q8QOBQCUZn3RtD6qSlif2JT1zdNeu0rYGBEGXwEAABAQBQAAAAFRAAAAEBAFAAAAAVEAAAAQEAUAAAABUQAAABAQBQAAAAFRAAAAEBAFAAAAAVEAAAAQEAUAAAABUQAAABAQBQAAAAFRAAAAENBSb6OwZz1vTGltWxXrUlqbPft6W0pru1pxZEoBjMCJigd63EexQtHETsWliksUX1L8u6ILOxRHpLS21YrtKa1ti2JtSmubU2xKKcbGCoD5hmEbWVNWAEx77SphOx2A4bu94n2Kaft5W7FH8RbFIYq2WV807T2rhPWJTVnfPO21q4SNEWHwFQAAlGNHnJcpnj6Z6o6d7X2xws5gnmJ/ACgAAKCMeyk+oDh2MpWHfc3wfxRHT6YQGgUAAOS3XHG+4uDJVF7HKN6WUkRGAQAA+T1fcWpKi3iK4vEpRVQUAACQ3694W1If5gEFUQAAQH72U7/S+jAPKIgCAADyst/M2+/eS2t6PxMMHAUAAOR1neLnKS3qKm8RFAUAAOS1S/HVlBZldwhEYBQAAJBfHwZfCoDgKAAAIL/3KOz2vKXY1xD/kFJERQEAAPl9QfHGlBbxCkXTB5Jh4CgAAKCMDYoS1wL8X8VbU4rIKAAAoAz7JcDDFG9X2JPoumYXH56n+PXJFMKjAACAcq5V/I7iMYqLFNco2nal4p8VD1LYWYcbFcDkEZGR2LOeN6a0NnucZtMbaNizr5t+/3a14siUAhgJ65PvqVijWGF/aGCnwvqrrr/r36Gwmxs1YTdG2p7S2rYo1qa0Nns886aUYmysALBTbU3CNrKmrACY9tpVwnY6ACjN+qJpfVSVsD6xKeubp712lbAxIgy+AgAAICAKAAAAAqIAAAAgIAoAAAACogAAACAgCgAAAAKiAAAAICAKAAAAAqIAAAAgIAoAAAACogAAACAgCgAAAAKiAAAAICAKAAAAAqIAAAAgoKXeRmHPet6Y0tq2KtaltDZ79vW2lNZ2o+JdKQWAYk5XHJjS2lYrtqe0ti2KtSmtbU6xKaXjRwFQXV8KAAAYCwqAAvgKAACAgCgAAAAIiAIAAICAKAAAAAiIAgAAgIAoAAAACIgCAACAgCgAAAAIiAIAAICAKAAAAAiIAgAAgIAoAAAACIgCAACAgCgAAAAIiAIAAICAlnobxXrFxpTWtlWxLqW1Ha/YltLadipem1IAKOYcxcqU1rZasT2ltW1RrE1pbXOKTSnF2FgBMN8wbCNrygqAaa9dJXYoAKA064um9VFVwvrEpqxvnvbaVcLGiDD4CgAAgIAoAAAACIgCAACAgCgAAAAIiAIAAICAKAAAAAiIAgAAgIAoAAAACIgCAACAgCgAAAAIiAIAAICAKAAAAAiIAgAAgIAoAAAACIgCAACAgJZ6G4U963ljSmvbqliX0trs2dfbUlrb1YojUwpgJG6vOFmxRrHC/tDAToX1V5corrE/dGSH4oiU1rZasT2ltW1RrE1pbXOKTSnF2FgBMN8wbCNrygqAaa9dJWynAzAOz1V8UzFtX28aexSXKZ6g6IL1RdPet0pYn9iU9c3TXrtK2BgRBl8BAEA5d1bYWcm/Upxgf+iAnem9n+KfFOcrjlIAFAAAUIidNv+cIudR5zMVH1Usn0whNAoAACjjTYq7pDSrBypenVJERgEAAPnZxWanp7SI1yhOSimiogAAgPz+i7el2C8MnpxSREUBAAD5PcDbkvowDyiIAgAA8lqpsKvyS7NrARAYBQAA5LVM0Ye+90BvERQFAADkdZ3i8pQW9WVvERQFAADkZ7fnLa0P84CCKAAAIL9/9rYUu+3thSlFVBQAAJDf3ylKFgF/qbC7ECIwCgAAKOMMxU9TmpU9dOiVKUVkFAAAUMZ/KB6t+NpkKo/PKB6rsAsRERwFAACU8xWF/R7/TxW77A8duV7xcsUvK75lfwDsMZGR2FO37NGbTWxVrEtpbfbs620pre1qxZEpBTACdoOgtQorCO6jsNv1NrFTcanCrva3sww3KbqwQ2FPNmxitWJ7SmvborD114Q9o2FTSjE2VgDY1a9NwjaypqwAmPbaVcJ2OgAozfqiaX1UlbA+sSnrm6e9dpXI+Wjm4vgKAACAgCgAAAAIiAIAAICAKAAAAAiIAgAAgIAoAAAACIgCAACAgCgAAAAIiAIAAICAKAAAAAiIAgAAgIAoAAAACIgCAACAgCgAAAAIiAIAAICAlnobhT3reWNKa9uqWJfS2uzZ19tSWtv1iuelFACK+SvFISmtbbVie0pr26JYm9La5hSbUjp+FADV9aUAAICxoAAogK8AAAAIiAIAAICAKAAAAAiIAgAAgIAoAAAACIgCAACAgCgAAAAIiAIAAICAKAAAAAiIAgAAgIAoAAAACIgCAACAgCgAAAAIiAIAAICAKAAAAAhoqbdRrFdsTGltWxXrUlrb8YptKa1tl+LjKQWAYn5VsTylta1WbE9pbVsUa1Na25xiU0oxNlYAzDcM28iasgJg2mtXiR0KACjN+qJpfVSVsD6xKeubp712lbAxIgy+AgAAICAKAAAAAqIAAAAgIAoAAAACogAAACAgCgAAAAKiAAAAICAKAAAAAqIAAAAgIAoAAAACogAAACAgCgAAAAKiAAAAICAKAAAAAqIAAAAgoKXeRmHPet6Y0tq2KtaltDZ79vW2lNZ2teLIlAIYkYMUJypWTKbq26m4QrFrMtWdHYojUlrbasX2lNa2RbE2pbXNKTalFGNjBcB8w7CNrCkrAKa9dpWwnQ7AONxH8U7FVxQ3Kqbt83XiBsUXFG9R3EnRBeuLpr13lbA+sSnrm6e9dpWwMSIMvgIAgHKsD/49xZcVz1PY2cWmR/57W6l4kOLFissUz1QAExQAAFCGfQV7geKNChuou2ZfGZ6veOtkCuFRAABAGWcpTktpVr+jeFJKERkFAADkd2/FH6e0iHcojkkpoqIAAID8XqDIcdp/IUcrfjuliIoCAADye4C3JfVhHlAQBQAA5GX9btN7ibSBAiA4CgAAyMuuxl+V0qLu4i2CogAAgLx+qvh+Sou61FsERQEAAPld4m1JfZgHFEQBAAD5fc7bkvowDyiIAgAA8vsLhT2op5TPKP4hpYiKAgAA8rte8WzFnslUXtcpnqMo8d7oEQoAACjDTsHbQ3rssb252JP77IFA35xMITQKAAAoxx7M858V9sjerl2oWKP44GQK4dnTqCKxZz1vTGltWxVNb+Jhz77eltLarlbY74kBDN8yxaMUp3jYQN30scB2ZsH6q4sVVmDY9/5dsLMKR6S0ttWK7SmtbYtibUprm1NsSinGxgqA+YZhG1lTVgBMe+0qYTsdAJRmfdG0PqpKWJ/YlPXN0167StgYEQZfAQAAEBAFAAAAAVEAAAAQEAUAAAABUQAAABAQBQAAAAFRAAAAEBAFAAAAAVEAAAAQEAUAAAABUQAAABAQBQAAAAFRAAAAEBAFAAAAAVEAAAAQ0FJvo7BnPW9MaW1bFetSWps9+3pbSmu7RnG3lAJAMd9WHJ7S2lYrtqe0ti2KtSmtbU6xKaXjRwFQXV8KAAAYCwqAAvgKAACAgCgAAAAIiAIAAICAKAAAAAiIAgAAgIAoAAAACIgCAACAgCgAytjpLQCAPrEICoAyfqC4MqUAEJr1hdYnIjMKgHIu8RYAIqMvLIQCoJyLvQWAyOgLC6EAKOfNCk57AYjM+kDrC1EABUA5P1GcmVIACMn6QOsLUQAFQFkXKP5EMT+ZAoAYrM+zvs/6QBRCAVDeqxSPVXx3MgUA42Z9nfV51vehIAqAfviYYo3iJYp3Ky5V7FIAwNBZX2Z9mvVt1sdZX2d9HpDVeoWdemoSWxQAgH6xvnlan10lbIwIgzMAAAAERAEAAEBAFAAAAAREAQAAQEAUAAAABEQBAABAQBQAAAAERAEAAEBAFAAAAAREAQAAQEAUAAAABEQBAABAQBQAAAAERAEAAEBAFAAAAAREAQAAQEAUAAAABEQBAABAQBQAAAAERAEAAEBAFAAAAAREAQAAQEAUAABucdhbn3DgzeF/AjBSS72NYr1iY0pr26pYl9LuqAN+orXXvuCCD0/+MHA3L49cpWX6lOfoCX0+857ehj6vaP1Er+y174ymPzAdLNcWxdqU1jan2JTS8aMAqK6TAkA7w33VfC1NLei92lGe5XnvLTaouOu1PId63qkZ5qUPDtb62Ol5Flovv6zmE2lqYZqvRn2F3uftas5MU7fxDr3+8z0fBC3PXdR8J03dVgvr665qvp2mpmv6HiVouW5SszxNTfViLdf/8rwqCoCKKACqa70A0E5RdXB6hXaSN3reS1WWqeuOrMb6LSZ3p57jc6rwHk/Ve3zA897qep3p9XepWZam9muX3mOF572lZfqJmtulqf2rua1RAFSUtbPpgV4VANopzlVzTpqqrm6H3LUqHeTNuloWzctRan6apgbh01oXj/C8UzU+p9do3l7n+UxqvMfD9B6f9bxX6mzXN5t1+9Z7WAH0lDRVyeF6j2s975W6623WdbYXCoCKuAiwEO0Uq9TUHvxNkw6pK5qnbZ5W0uGyDGnwNw/3to/+0NuZ1PxMP+NtrzTdPiv8+zqDv7lG7/EKz3ujw/0aLaAAKKeVal072H942hfHe1uc1s2xng5K9E5Ty/95T3tB82OnrxvT6yza37bwub9er/HHnhfXdHlaWB/YDwqA4TtWO8ozPMet9a04mpk+02hfz+3twd4Wp8/h5Wpm/u56P3Z726X/oXn+Xc+LYfAeBgqAcXivdrjFrqwNR+vjEk+Hao+3ndD6udRTLEDryL6me0OaGpQ3ad6L/apC783gPxAUAAVoB7GLVdpmP6/BLzzA28HSdvJ6T1FGLy+qm9HbtP38gefZMPgPCwXAiLDzJVoPV3s6dH28qOsOno7aSPals7Ucr/G8c/Q/w0MBMDLshBOHezt4fJ75jWydn6fleZ7nnWE7HSYKgBHSzvjnnoYzxo5Iy3Sip+hY4e3nN7xt2zu1XL/neevGuM9FQQEwTi/zFuPwDW/RIQ1kF3laxLUvuOAfPe3CG7V8r/W8NV0O/jVuBISKKABGKmJVPuZljvh55qT1e5CaR6aporq8mHeDlvMMzxtjmxw+CoARYwcFZpb1IUwL0VFv149hfof6hdM9r63rvoWj/zyireRePAtAO08b96yeWc6dqUnH0GQ+2+iQul5PmsdPqml0n/+25lHzYvcBWJOmKjla83Cl54sqtS1U1ca2M6tZlyvDPG3QvJzneSUZ5u09mrfneF4FzwKoiDMAAeTs4ErQ8t3yXPEG2rrb24LUqdmjd9EjY983FvEHWvbKFwbmWF81B3/UQAEQhHbcCz0dow95W5s6nas87ZTep9GRbeABq3V9Xpe+nXR9K2u7MPC/er5fmQb/bGd+QAEQyZx24Ad6PhpaJnukciND63S0zCXvEHi9t4OmdVj0iv9ZaLu8o5rvpanO/I3WxVmeL0j/D4P/CFEAxPIlb8ek0SOVS2ihoyt2h0DN++ALAA1mdu1DH6743y+t7zt72qU3a5282vPbYPAfLwqAYHLszLloWT7laW0FO55Gt2gd0+dYwKAehOTb6A1pqjOv0zZ1m6eKZtjO9jD4l0MBENCIBo+Hezs46vRe5ykyGuq2r+3lEDXfSVOdsaeK3lIE5FhXWq5lnqIACoCgtHMP+nGwmv/GX2eUPvJo+v5DHcxKGfr60vZyNzVd36/AioD5HOuq9P4HCoChsueUN7VGO/kveT5ETS9o3ObtoOkzzPpdtt5vkE8DbGtA60HReLCng8bg3w8UAAOknec6Ne9JU418xttBaaMz1zo8wdOiWugIe381e2ljGfxv5vPxgzQ1PH1Zj6AAGCztRK3cLKOtznFg/tLbvnimt7XoM7zRU+xD6+ZZnjbSt0FL83Ocmh+lqeFg8O8XCoABa2tnGlIR0Ma8ar29yNNe0Pz8tZqHNojKdxjUe56kZtprLRr6dzPdBrhH2jhTdqS3vaLP4j95OgiaXwb/non2gYziWQD77khtDeBt7KBN5mV/76/XXqmm6c+hXqT36dsZgFHqcluYRUv7xZ9oXl7l+UTp5dqX5sfuzdDnawPsp345rvbnWQAVcQZgBNrqVFrqMLvU+LfQWlcM/gG0tC1fs+/g30eaR/uJYNd3DKwt0+CPGigARqLFIuC1nvaK5uvXPK2trXWEfmurkNX2coSnvad5zXHHwMrY5/qNAgD72uBt31zgLbAgDf6t3Kp4iANX3+aZwb//KABGpK0drq0jqLa0MT90RuOn7eRlahp/Fz7kbcXn/Ydpqhz2t2GgABiZsRYBfaH1cvb+wv9XZKT1btv9n6epRp7t7WCpDzhWTZbHW0/D4D8c0T6oUf4KYBq9RxsD+E16rwM9n0mT9522XHo968ga/QyrSYfU0nrMbn/LrOX6GzUzPwv+ZlXWZdvbwmLa+pxmed+cy9VEiW035/JNwa8AKuIMwEi1tCOuUCfyt56X0vQ32O/0thLrPEt0oG2Y8bO/v7eVaJ307lbAbX1OhQev1vnyZHt889jWXwQUAOP2aG+b+C11sHf1fHDUKZ3h6cyGOvBHxOC/Xyd727Wne4sBoQAYMXVqH1fz5TTVyLe9za5px6wB4hueRjGKh8XMgsF/cVo/d1Tz9TTVub/X+73YcwwEBcDIqXNr+tS8ibY62wJO9HYmA17OCX3eXT8uthf0OX3R00bGOvi73DcHeos+F84EDAgFQABtdXKlBsem8z/0QX1WIx/MbqHP076SOjVNNXJPb0dF6+duBbf59+m9H+M5eo4CIIihFwFNab65Hel4tPGV1Me0T4zu6yFt5/dQsz1NFfMRzUfla2+QHwVALMd724h27q96mk0LBcwub0cp0NF/KwWo1tdYj1Iv97a0d+izep7n6CkKgEDU6dmRUxsXBZ6knbvEI1L/zNtaNM+HeTo2jR+SNAQtDv6jK5Zs225r/bTonZqnR3qOHqIACEadXysXBUr2O41p3l/uaV3XeLuY3j5VbSFaL/Y0uFFj8F+Y1o1dyzDLtl3CRZq/p3qOnqEACKitTrDEEUfTedc8/66nU+n1e/lUtUX8obejpc/s8542MtLB327M9G9pqrfer/k803P0CAVAUEMuAhp6k7cLGtJAoXkd9bMHtH0do+bBaaqRQ70dmx9723dv12f5BM/RExQAgQ21CGg637PMr79HK0eeHXqpt2PWxpPt7Ir/bLfEzUHb8F1z73ct+CfN8yM8Rw9QAOC13jaiHfsZno6GBo2HWiHgxYAdaXcRtWm+3uLpKLU1wGk9jeqKf62Xu6kpdnfOhj6p+T/dcxQ2mFOdLQnzNMAqWuxolzZ5rarL1XC+d+r9it42V/P/OTUPSVPVNN0G9N6XqlmTpio5Wu99peeLamu7aqLpepom5zY+TR/WawueoXVhT6RsE08DrIgzAGitkyzQMX3a2zpWeltSrcG/sMEMPl0M/iVp/zo8xz7m6+26NNWZv9ayDHH7HxUKAEwMsbPUPDf6PrHkkVST9y75Wem9f+Jprw1xe16MtpcT1Fydprpz83pTu0rNDss79Dkt11M8RwEUALjFQDvNRt8nqgM6ydNs9J6t3JERC3qht6Og7cUG42+mqe7su/9r+ihPu/QBLd+zPUdmFADY16Duma9O6t2e1pX9tsayzdvKBlqkZaV19FZPx+Jabzuz0HaVaXt7t4qAR3uOjCgAcCva4feoeW6aGoxGnYc6n4d62jm9V5PfbWe/++LQjKlA0rZyF0Wu7/wX5P/9p2mqMx/NuR8ioQDAbWiHf5ea76ap/tP8ftzTuj7rbQ5257ZatJy38xRT7G8gG6DveNuZWdeZ/r/be9qlz6oIGN3PifuMAgBTaYe3Z64PRtPOXx3PhzztTI6juajGNvj34ch/X5nW8Xu9RQYUAFjQADtV+/qirid62wl16E/ytJaxDXBtYvCvru4683/X6V0VKZTzoQDAoobUuWpeG13A2HHH80Fv6+Ae6gv7bW9HQdvgL3namab7tP69PVfhZ2mqGxQBeYyqcp4BdwKsKccO2cZyjbHj6OLz1nqqdSfAKvOS4bP4gebnOM+zabJc+1t/Xa+zNrelHs4rdwKsiDMAmJX9Frn32uzgeqIPdyzspRKDf5c0oHb6NVTb+0bX+5rWhx1soUMUAJiJdna7NWiJ38zXcZ63g6f1/nNPsZeuB59COrsQtav15a/b1R0D7+8tOkIBgJlpZ296ei0LzecGTwdtpINcY6yXarpeX3r9HHcMRAcoAFDJgDrfe3mL6Z7q7aAw+FeTa33xuQwTBQAqG8LOrnm83NNB6nod6/X/zdMh4XqICnLvp/5+nf5EEO2iAEBdte9ol9GR3mL4PqYBhushZpR78L+Z3td+IrgzTaHvKAAK0E7S6GeEfaBlsMfC3j1N9ZPmsfPHp3ahVOfdYx/XOnmM59iP0tuP3v9gT9FzFADD05udSzv6t9Q0va/CRFedVunOsIaczyXoWhv9i/3Wv29Piqu7D+7vRlXLva2tL9t7S/MxlF8dDRYFQDnHeFuJdqxenV7T/JzWws7+NW+70uQJfFlpXT7M085V/dxq/P92o5inpKnq7P0Uvfutv+bJ9sFL0tTMLtO/W/RW1frvuz2t41JbX573gs/P/05T1enfD+JXR0NGAVCINm4blCp9FdC3HXxvDebtYv3bynekq0KvX6vYKqDEzxdnvUVxrWcZaN1/sMa28coG21MWmr+T1bwyTe2XLc9Jni+q5nI/Tv+ul7+Z13ydqcauC6ik5npARdFWci9uBbyvGW6peX/tEHbr1kGY9RahOXdyzZMVGb1eh6U6Pa2bT6p5RJqa6iTN22WeN6L3soFwoVO7R+l9urqpTGcWWaba+20f96GmtEwfUbPfazkaLBO3Aq6IAqC61gsAoA/UQX9XzZ3T1MRr1Bm/znMUMOUz+Z4+k72nB2nKcv27lusuntdFAYBFWQFglXWTsI0MANAv1jdP67OrhI0RYXANAAAAAVEAAAAQEAUAAAABUQAAABAQBQAAAAFRAAAAEBAFAAAAAVEAAAAQEAUAAAABUQAAABAQBQAAAAFRAAAAEBAFAAAAAVEAAAAQEAUAAAABUQAAABAQBQAAAAFRAAAAENBSb6NYr9iY0tq2KtalFEP2yE3nzXvaqeve950le374c5/qxpc2np99Xz557lmdrr9ldztkySFPupNPdWvz+rOj9YVjtEWxNqW1zSk2pXT8OAOAsHJ1+of+5l09QxUM/kC3KAAQ3W5vO3XYWffwrBtdH43vq+v363p97aXbUzNAj1EAIDQd/S33FAHp81/pKRAOBQDCu8M198qyH4zlLMBYjv459Y/oKAAQ3vuf9rSsp8+7dOrTn3upp5045TdO/6anAAaOAgCQXEeDXR/d7rlm1xpPOzF//e4TPO0ER/9APhQAQGYr7n+EZ93o6hR916f+Dzz1dp4ByIECAHC5jgpXPvIYz7C3gx5ye8+6xdE/kFAAALf2M287NbQLAsdy4d+S+SU7PAPCowAA9qKjw8M8xQhtnjv7KE+B8CgAgH2M5YLAto7ax3L0z6l/4NYoAIARO/kpp//Q01pOfvJzrvUUwMhQAABTjOUswJIbdje74nDnnlWedYKjf6AcCgCgsIN/7TjPulH3FH7Xp/4PedqdPQNQAgUAsIBcR43L797pQXZvLTvuYM+6xdE/MB0FALCY+SVXeNapvl0QOJYL//QBXuwJgH1QAACL2Dx3dq6RqnOPes1LZnry4UNe/aKDPB28zes3nOopgH1QAAD7MZYLAq+55OqbPF3UTV+5dqenneDCP6AfKACAQPZ3ar/rU/8A+oMCAJjBWM4ClMbRP9AfFABAzxx6xmrPurHQUX7XR/+rnt/pk4QBVEQBAMwo11HlAYfMdK3e4CxducyzbnH0D8yGAgCo5i+87VTXp8r3Pdrv+ug/31cb8+d6AmA/KACACnR0eZang/egl7xwpbWnvvSs0dyJaPP6Da/1FMB+UAAAFY3lgsDdV/zsBmv3fOOqTh/4w4V/QD9RAACB8bM/IC4KAKCGsZwF6BpH/0B/UQAAPbfqRXf3bFhWveREzwD0EQUAUFOuo86ly4e5my49IM9BOUf/QD0UAEAje57rSaeG9lVAtvmd3/N4zwBURAEANLB5/Tnv8hQFbJ4750JPAVREAQA0xAWBt8aFf8AwUAAAQ7Ki52PeSroUYCjYW4EWZDsL8MJ+X1l/2PPz/GKBo3+gOQoAoD1ZbqrT168CMs4XNy8CWkABALRER6XsTxmwnoF2sCMBLVp10+6DPe1U384CcOEfMDwUAECLLnjCuTs9BYBeowAAWpbtgsCenAXg6B8YJgoAYMCWHrLMszKWHr7CMwBDQwEAdCDX0eqqM07wrIxVpx/vWbc4+gfaRwEADFyprwL6diEigGooAICOcNTaDtYj0A0KAKBDS5ccsMrTTuU+Gs/1fssP2H2gpwBaRgEAdOii9b9/naeo4aOPPfcmTwG0jAIA6FiuU9i5jspzvQ+n/oFuUQAAI7L8nt1+43DgyUd5BmDoKACADHIdzR48d5xn3Tjol+7gWbc4+ge6RwEA5LPL2051dYo+44WG3E4ZyIACAMhER7XcNm8GWk9ZHqgEREcBAGSU69R220frXPgHjA8FAAAAAVEAAJkN7SwAR//AOFEAACN20K8e41k9K0871jMAY0MBABSQ62j3wDVHeFbPinsc5lm3OPoH8qMAAEqZX/ItzzpV9xR+rlP/WhGXeQIgIwoAoJDNc2ff3dPQNq/fcJKnADKiAAAK6usFgVz4B4wfBQAAAAFRAACF9e0sAEf/QAwUAEAghz7neM+mW3XmCZ4BGDsKAKAHch0NH3DE4o8jWHrwMs+6xdE/UB4FANAfn/W2Uwud4s916l/O9xZAQRQAQE/oqPhhno6alvPZngIoiAIA6JFcp8b3Pdrnwj8gHgoAAAACogAAeib3WQCO/oGYKACAwDJe+AegZygAgB4a29EyR/9A/1AAAL01P5ar5X/dWwA9QgEA9NTm9RtG8Xt5Hf1f4CmAHqEAAHps6KfOOfUP9BcFAAAAAVEAAD031KNojv6BfqMAAAAgIAoAYACGdjTN0T/QfxQAwEAsXbLnVE97bv5engDoMQoAYCAuWn/OxZ722ub1Gy73FECPUQAAA9L3U+uc+geGgwIAAICAKACAgenrUTZH/8CwUAAAaMO8twAGggIAGKC+HW1rfuhLgIFhpwUGan7J7pWeFjV/0O7lngIYEAoAYKA+sf7cn3ta1Cceee5uTwEMCAUAMGClvwrgwj9guCgAAAAIiAIAGLhSR+Ec/QPDRgEAAEBAFADACOQ+GufoHxg+CgBgJJbu3pPn53h75uk3gBFgRwZG4qLHn5Pl53ibT9vAXf+AEaAAAEak61PznPoHxoMCAACAgCgAgJHp6iido39gXCgAgHG60tuWzH/LEwAjQQEAjJCO1o/2tBWb12+4u6cARoICABiptk7Zc+ofGCcKAAAAAqIAAEas6dE7R//AeFEAAAAQEAUAMHJ1j+I5+gfGjQIACGB+fv4jns5E///7PQUwUhQAQACfmNvwOE9nov//aZ4CGCkKACCIWU/pc+ofiIECAACAgCgAgED2d3TP0T8QBwUAAAABUQAAwSx0lM/RPxALBQAQ0PyS+Td4OqGR/2WeAgiCAgAI6BPrN/x3TycuWn/2mz0FEAQFABDUzaf8OfUPxEQBAABAQBQAQGAc/QNxUQAAABAQBQAAAAFFKwBu8raJld4CAPqjjb65jTFiMKIVAD/wtokTFYekFADQA9YnW9/cVBtjxGBEKwC+520TyxTrUgoA6AHrk61vbqqNMWIwohUAOxQ3pLSRB3kLACivjT7ZxgYbIzBiVyjmG8aPFEcrAABlWV9sffK0vrpK2NgQSsRfAWz3tgnb4N6WUgBAQdYXt3FA1sbYgJ57hWJa9VcnXqXgRioAkJ/1vdYHT+ub64SNDRi5eyimffh145OKExQAgDysz7W+d1qfXDdsbAgl6tHr1xT3TWkrrlN8WPElxcWKf1HsVgAAmrMr/O+jOEVxsuKJikMVbfm64n4pjSNqAfA6xatTCgAI7o8Uv5/SOCJeBGj+TmGnfAAAsdlYYGNCOFELgMsUf5tSAEBgNhbYmBBO5CvYVyv+VXHgZAoAEM2Ninsrtk2mgol6BsDYB/7WlAIAArIxIOTgb6L/hv0OissVR02mAABRXKW4p+LKyVRAkc8AGPvgf1PBT/YAIA7r863vDzv4mzaenjR031RcrVg/mQIAjN1/U4S/EJwCIPmi4s6KB0ymAABj9U5FuN/8TxP9GoC9rVB8SHHaZAoAMDYXKp6kuGkyFRxnAH5hj+LvFXZ7yYfaHwAAo/Fniucpdk2mwBmABTxL8Q7FQZMpAMBQ/VxxpuL8yRRuQQGwsAcr3qs4cTIFABiaKxTPVHxhMoVbif4zwMXYBmNPDHypIvRPRQBgYKzPtr7b+nAG/wVwDcDi7LqA/6d4u8IeGGGPobSLBQEA/XOD4g2Kpyk+rbA+HAvgK4BqjlDY/QLsWdRziiMVAIBydig2Kj6s2KSw+7pgBhQA9S1XPELxcMWdFHfcqz1awboFgHbYGdgfK76v+N5erR3lf0rBlf2VLVny/wG6JWrXsvjPtAAAAABJRU5ErkJggg==;" vertex="1" parent="Apy_nMzA6MKSCh_NEfZ--170">
          <mxGeometry x="75.5" y="52" width="100" height="100" as="geometry" />
        </mxCell>
        <mxCell id="Apy_nMzA6MKSCh_NEfZ--171" value="" style="group" vertex="1" connectable="0" parent="1">
          <mxGeometry x="500" y="20" width="251" height="152" as="geometry" />
        </mxCell>
        <mxCell id="Apy_nMzA6MKSCh_NEfZ--172" value="&lt;font size=&quot;1&quot; style=&quot;&quot;&gt;&lt;b style=&quot;font-size: 20px;&quot;&gt;Serveur hébergeur du site en Vue.js&lt;/b&gt;&lt;/font&gt;" style="text;html=1;strokeColor=none;fillColor=default;align=center;verticalAlign=middle;whiteSpace=wrap;rounded=0;fillStyle=auto;gradientColor=none;" vertex="1" parent="Apy_nMzA6MKSCh_NEfZ--171">
          <mxGeometry width="251" height="30" as="geometry" />
        </mxCell>
        <mxCell id="Apy_nMzA6MKSCh_NEfZ--173" value="" style="shape=image;verticalLabelPosition=bottom;labelBackgroundColor=default;verticalAlign=top;aspect=fixed;imageAspect=0;image=data:image/png,iVBORw0KGgoAAAANSUhEUgAAAgAAAAIACAYAAAD0eNT6AAAAAXNSR0IArs4c6QAAAARnQU1BAACxjwv8YQUAAAAJcEhZcwAADsMAAA7DAcdvqGQAACm9SURBVHhe7d0J9CVleefxbrobGmg2FQZcacS9sXsUcImaaFz6jzEucTSZuKEHjCtxouNopMEQs6iJnjgTlzFHxSwmHqOGCd3jQrsvg2i3oEkQ7VajcUFpQKCF7v7P77nvAzbN/f/71va+VfV8P+c8533qD31vVd2q932qbt2qpUtQ13LFIxQPV9xJcce92qMVrFsAaMe84seK7yu+t1f7acWnFLsUqIhBqpojFOsVT1TMKY5UAADK2aHYqPiwYpPiagVmQAEwm8MVr1S8THGw/QEA0Ds3KN6k+FPFNfYHLGyZt5huheJFin9UPM6nAQD9ZH20fS17hmKn4iuKPQpMwRmAhT1Y8V7FiZMpAMDQXKF4puILkyncCmcApnuW4gOKYyZTAIAhup3CCoDvKLbaH/ALFAC3ZuvjDYrXK+wqfwDAsFlf/mTFYYqPK+wXBRC+AvgF++7oQ4rTJlMAgLG5UPEkxU2TqeA4A/ALb1c8PaUAgBG6h+I4xQWTqeAoAJKzFK9OKQBgxB6gsHsHfHEyFRhfASxZ8liFnRaiGAKAGHYr7Ovej0ymgopeANxBcbniqMkUACCKqxT3VFw5mQoo+lHvHyl+JaUAgEDsrq4HKez2wSFFPgOwWvGvigMnUwCAaG5U3FuxbTIVzAHeRnSegsEfAOKyMcDGgpCingFYo/iqgosgASA2uzHQ/RWXTaYCiXoG4LcUDP4AABsLbEwIJ+og+DXFfVPaiusU9izqLykuVvyLwn5mAgBozi5Yv4/iFMXJiicqDlW05euK+6UUY2Z3grJTPm3FJxUnKAAAeVifa33vtD65btjYgJF7hWLah18nXqXgqwQAyM/6XuuDp/XNdcLGBozcxxTTPvyqYY8LBgCUZX3xtD66atjYgJG7QjHtw68SP1IcrQAAlGV9sfXJ0/rqKmFjA0buesW0D79KvEwBAOgH65On9dVVwsaGUKL9DPBIhd3+sanwT5ECgB5po0+2scHGCIyU/cxjWuVXJXYpDlEAAPrB+mTrm6f12VUi1E8Bo50BONbbJux7onCnigCgx6xPbuM7/DbGiMGIVgCs8LaJnd4CAPqjjb65jTFiMCI/DAgAgLAoAAAACIgCAACAgCgAAAAIiAIAAICAKAAAAAiIAgAAgICiPcp2vWJjSmvbqliX0lYtUzxKcYrHGkWo36QCGKWbFJcpLva4SLFb0bYtirUprW1OsSmlGBsrAKbd/rFK2EbWtnsrPq+Y9n4EQRBjCuvrrM9rm/XN096vStgYEQZfAZT3AsVXFA+eTAHAuFlfZ32e9X0oiAKgrIcq/qdi5WQKAGKwPs/6PusDUQgFQDn29Kr3KPgMAERkfZ/1gTxdtRAGn3JeqjgxpQAQkvWB1heiAAqAcjj1BQD0hcVQAJTzQG8BIDL6wkIoAMo4WnHHlAJAaNYXWp+IzCgAyjjUWwAAfWIRFAAAAAREAQAAQEAUAAAABEQBAABAQBQAAAAERAEAAEBAFAAAAAS01Nso7FnPG1Na21bFupTWdrxiW0pr+5ni4SkFgGI+rViV0tpWK7antLYtirUprW1OsSmlGBsrAOYbhm1kTVkBMO21q8QOBQCUZn3RtD6qSlif2JT1zdNeu0rYGBEGXwEAABAQBQAAAAFRAAAAEBAFAAAAAVEAAAAQEAUAAAABUQAAABAQBQAAAAFRAAAAEBAFAAAAAVEAAAAQEAUAAAABUQAAABAQBQAAAAFRAAAAENBSb6OwZz1vTGltWxXrUlqbPft6W0pru1pxZEoBjMCJigd63EexQtHETsWliksUX1L8u6ILOxRHpLS21YrtKa1ti2JtSmubU2xKKcbGCoD5hmEbWVNWAEx77SphOx2A4bu94n2Kaft5W7FH8RbFIYq2WV807T2rhPWJTVnfPO21q4SNEWHwFQAAlGNHnJcpnj6Z6o6d7X2xws5gnmJ/ACgAAKCMeyk+oDh2MpWHfc3wfxRHT6YQGgUAAOS3XHG+4uDJVF7HKN6WUkRGAQAA+T1fcWpKi3iK4vEpRVQUAACQ3694W1If5gEFUQAAQH72U7/S+jAPKIgCAADyst/M2+/eS2t6PxMMHAUAAOR1neLnKS3qKm8RFAUAAOS1S/HVlBZldwhEYBQAAJBfHwZfCoDgKAAAIL/3KOz2vKXY1xD/kFJERQEAAPl9QfHGlBbxCkXTB5Jh4CgAAKCMDYoS1wL8X8VbU4rIKAAAoAz7JcDDFG9X2JPoumYXH56n+PXJFMKjAACAcq5V/I7iMYqLFNco2nal4p8VD1LYWYcbFcDkEZGR2LOeN6a0NnucZtMbaNizr5t+/3a14siUAhgJ65PvqVijWGF/aGCnwvqrrr/r36Gwmxs1YTdG2p7S2rYo1qa0Nns886aUYmysALBTbU3CNrKmrACY9tpVwnY6ACjN+qJpfVSVsD6xKeubp712lbAxIgy+AgAAICAKAAAAAqIAAAAgIAoAAAACogAAACAgCgAAAAKiAAAAICAKAAAAAqIAAAAgIAoAAAACogAAACAgCgAAAAKiAAAAICAKAAAAAqIAAAAgoKXeRmHPet6Y0tq2KtaltDZ79vW2lNZ2o+JdKQWAYk5XHJjS2lYrtqe0ti2KtSmtbU6xKaXjRwFQXV8KAAAYCwqAAvgKAACAgCgAAAAIiAIAAICAKAAAAAiIAgAAgIAoAAAACIgCAACAgCgAAAAIiAIAAICAKAAAAAiIAgAAgIAoAAAACIgCAACAgCgAAAAIiAIAAICAlnobxXrFxpTWtlWxLqW1Ha/YltLadipem1IAKOYcxcqU1rZasT2ltW1RrE1pbXOKTSnF2FgBMN8wbCNrygqAaa9dJXYoAKA064um9VFVwvrEpqxvnvbaVcLGiDD4CgAAgIAoAAAACIgCAACAgCgAAAAIiAIAAICAKAAAAAiIAgAAgIAoAAAACIgCAACAgCgAAAAIiAIAAICAKAAAAAiIAgAAgIAoAAAACIgCAACAgJZ6G4U963ljSmvbqliX0trs2dfbUlrb1YojUwpgJG6vOFmxRrHC/tDAToX1V5corrE/dGSH4oiU1rZasT2ltW1RrE1pbXOKTSnF2FgBMN8wbCNrygqAaa9dJWynAzAOz1V8UzFtX28aexSXKZ6g6IL1RdPet0pYn9iU9c3TXrtK2BgRBl8BAEA5d1bYWcm/Upxgf+iAnem9n+KfFOcrjlIAFAAAUIidNv+cIudR5zMVH1Usn0whNAoAACjjTYq7pDSrBypenVJERgEAAPnZxWanp7SI1yhOSimiogAAgPz+i7el2C8MnpxSREUBAAD5PcDbkvowDyiIAgAA8lqpsKvyS7NrARAYBQAA5LVM0Ye+90BvERQFAADkdZ3i8pQW9WVvERQFAADkZ7fnLa0P84CCKAAAIL9/9rYUu+3thSlFVBQAAJDf3ylKFgF/qbC7ECIwCgAAKOMMxU9TmpU9dOiVKUVkFAAAUMZ/KB6t+NpkKo/PKB6rsAsRERwFAACU8xWF/R7/TxW77A8duV7xcsUvK75lfwDsMZGR2FO37NGbTWxVrEtpbfbs620pre1qxZEpBTACdoOgtQorCO6jsNv1NrFTcanCrva3sww3KbqwQ2FPNmxitWJ7SmvborD114Q9o2FTSjE2VgDY1a9NwjaypqwAmPbaVcJ2OgAozfqiaX1UlbA+sSnrm6e9dpXI+Wjm4vgKAACAgCgAAAAIiAIAAICAKAAAAAiIAgAAgIAoAAAACIgCAACAgCgAAAAIiAIAAICAKAAAAAiIAgAAgIAoAAAACIgCAACAgCgAAAAIiAIAAICAlnobhT3reWNKa9uqWJfS2uzZ19tSWtv1iuelFACK+SvFISmtbbVie0pr26JYm9La5hSbUjp+FADV9aUAAICxoAAogK8AAAAIiAIAAICAKAAAAAiIAgAAgIAoAAAACIgCAACAgCgAAAAIiAIAAICAKAAAAAiIAgAAgIAoAAAACIgCAACAgCgAAAAIiAIAAICAKAAAAAhoqbdRrFdsTGltWxXrUlrb8YptKa1tl+LjKQWAYn5VsTylta1WbE9pbVsUa1Na25xiU0oxNlYAzDcM28iasgJg2mtXiR0KACjN+qJpfVSVsD6xKeubp712lbAxIgy+AgAAICAKAAAAAqIAAAAgIAoAAAACogAAACAgCgAAAAKiAAAAICAKAAAAAqIAAAAgIAoAAAACogAAACAgCgAAAAKiAAAAICAKAAAAAqIAAAAgoKXeRmHPet6Y0tq2KtaltDZ79vW2lNZ2teLIlAIYkYMUJypWTKbq26m4QrFrMtWdHYojUlrbasX2lNa2RbE2pbXNKTalFGNjBcB8w7CNrCkrAKa9dpWwnQ7AONxH8U7FVxQ3Kqbt83XiBsUXFG9R3EnRBeuLpr13lbA+sSnrm6e9dpWwMSIMvgIAgHKsD/49xZcVz1PY2cWmR/57W6l4kOLFissUz1QAExQAAFCGfQV7geKNChuou2ZfGZ6veOtkCuFRAABAGWcpTktpVr+jeFJKERkFAADkd2/FH6e0iHcojkkpoqIAAID8XqDIcdp/IUcrfjuliIoCAADye4C3JfVhHlAQBQAA5GX9btN7ibSBAiA4CgAAyMuuxl+V0qLu4i2CogAAgLx+qvh+Sou61FsERQEAAPld4m1JfZgHFEQBAAD5fc7bkvowDyiIAgAA8vsLhT2op5TPKP4hpYiKAgAA8rte8WzFnslUXtcpnqMo8d7oEQoAACjDTsHbQ3rssb252JP77IFA35xMITQKAAAoxx7M858V9sjerl2oWKP44GQK4dnTqCKxZz1vTGltWxVNb+Jhz77eltLarlbY74kBDN8yxaMUp3jYQN30scB2ZsH6q4sVVmDY9/5dsLMKR6S0ttWK7SmtbYtibUprm1NsSinGxgqA+YZhG1lTVgBMe+0qYTsdAJRmfdG0PqpKWJ/YlPXN0167StgYEQZfAQAAEBAFAAAAAVEAAAAQEAUAAAABUQAAABAQBQAAAAFRAAAAEBAFAAAAAVEAAAAQEAUAAAABUQAAABAQBQAAAAFRAAAAEBAFAAAAAVEAAAAQ0FJvo7BnPW9MaW1bFetSWps9+3pbSmu7RnG3lAJAMd9WHJ7S2lYrtqe0ti2KtSmtbU6xKaXjRwFQXV8KAAAYCwqAAvgKAACAgCgAAAAIiAIAAICAKAAAAAiIAgAAgIAoAAAACIgCAACAgCgAytjpLQCAPrEICoAyfqC4MqUAEJr1hdYnIjMKgHIu8RYAIqMvLIQCoJyLvQWAyOgLC6EAKOfNCk57AYjM+kDrC1EABUA5P1GcmVIACMn6QOsLUQAFQFkXKP5EMT+ZAoAYrM+zvs/6QBRCAVDeqxSPVXx3MgUA42Z9nfV51vehIAqAfviYYo3iJYp3Ky5V7FIAwNBZX2Z9mvVt1sdZX2d9HpDVeoWdemoSWxQAgH6xvnlan10lbIwIgzMAAAAERAEAAEBAFAAAAAREAQAAQEAUAAAABEQBAABAQBQAAAAERAEAAEBAFAAAAAREAQAAQEAUAAAABEQBAABAQBQAAAAERAEAAEBAFAAAAAREAQAAQEAUAAAABEQBAABAQBQAAAAERAEAAEBAFAAAAAREAQAAQEAUAABucdhbn3DgzeF/AjBSS72NYr1iY0pr26pYl9LuqAN+orXXvuCCD0/+MHA3L49cpWX6lOfoCX0+857ehj6vaP1Er+y174ymPzAdLNcWxdqU1jan2JTS8aMAqK6TAkA7w33VfC1NLei92lGe5XnvLTaouOu1PId63qkZ5qUPDtb62Ol5Flovv6zmE2lqYZqvRn2F3uftas5MU7fxDr3+8z0fBC3PXdR8J03dVgvr665qvp2mpmv6HiVouW5SszxNTfViLdf/8rwqCoCKKACqa70A0E5RdXB6hXaSN3reS1WWqeuOrMb6LSZ3p57jc6rwHk/Ve3zA897qep3p9XepWZam9muX3mOF572lZfqJmtulqf2rua1RAFSUtbPpgV4VANopzlVzTpqqrm6H3LUqHeTNuloWzctRan6apgbh01oXj/C8UzU+p9do3l7n+UxqvMfD9B6f9bxX6mzXN5t1+9Z7WAH0lDRVyeF6j2s975W6623WdbYXCoCKuAiwEO0Uq9TUHvxNkw6pK5qnbZ5W0uGyDGnwNw/3to/+0NuZ1PxMP+NtrzTdPiv8+zqDv7lG7/EKz3ujw/0aLaAAKKeVal072H942hfHe1uc1s2xng5K9E5Ty/95T3tB82OnrxvT6yza37bwub9er/HHnhfXdHlaWB/YDwqA4TtWO8ozPMet9a04mpk+02hfz+3twd4Wp8/h5Wpm/u56P3Z726X/oXn+Xc+LYfAeBgqAcXivdrjFrqwNR+vjEk+Hao+3ndD6udRTLEDryL6me0OaGpQ3ad6L/apC783gPxAUAAVoB7GLVdpmP6/BLzzA28HSdvJ6T1FGLy+qm9HbtP38gefZMPgPCwXAiLDzJVoPV3s6dH28qOsOno7aSPals7Ucr/G8c/Q/w0MBMDLshBOHezt4fJ75jWydn6fleZ7nnWE7HSYKgBHSzvjnnoYzxo5Iy3Sip+hY4e3nN7xt2zu1XL/neevGuM9FQQEwTi/zFuPwDW/RIQ1kF3laxLUvuOAfPe3CG7V8r/W8NV0O/jVuBISKKABGKmJVPuZljvh55qT1e5CaR6aporq8mHeDlvMMzxtjmxw+CoARYwcFZpb1IUwL0VFv149hfof6hdM9r63rvoWj/zyireRePAtAO08b96yeWc6dqUnH0GQ+2+iQul5PmsdPqml0n/+25lHzYvcBWJOmKjla83Cl54sqtS1U1ca2M6tZlyvDPG3QvJzneSUZ5u09mrfneF4FzwKoiDMAAeTs4ErQ8t3yXPEG2rrb24LUqdmjd9EjY983FvEHWvbKFwbmWF81B3/UQAEQhHbcCz0dow95W5s6nas87ZTep9GRbeABq3V9Xpe+nXR9K2u7MPC/er5fmQb/bGd+QAEQyZx24Ad6PhpaJnukciND63S0zCXvEHi9t4OmdVj0iv9ZaLu8o5rvpanO/I3WxVmeL0j/D4P/CFEAxPIlb8ek0SOVS2ihoyt2h0DN++ALAA1mdu1DH6743y+t7zt72qU3a5282vPbYPAfLwqAYHLszLloWT7laW0FO55Gt2gd0+dYwKAehOTb6A1pqjOv0zZ1m6eKZtjO9jD4l0MBENCIBo+Hezs46vRe5ykyGuq2r+3lEDXfSVOdsaeK3lIE5FhXWq5lnqIACoCgtHMP+nGwmv/GX2eUPvJo+v5DHcxKGfr60vZyNzVd36/AioD5HOuq9P4HCoChsueUN7VGO/kveT5ETS9o3ObtoOkzzPpdtt5vkE8DbGtA60HReLCng8bg3w8UAAOknec6Ne9JU418xttBaaMz1zo8wdOiWugIe381e2ljGfxv5vPxgzQ1PH1Zj6AAGCztRK3cLKOtznFg/tLbvnimt7XoM7zRU+xD6+ZZnjbSt0FL83Ocmh+lqeFg8O8XCoABa2tnGlIR0Ma8ar29yNNe0Pz8tZqHNojKdxjUe56kZtprLRr6dzPdBrhH2jhTdqS3vaLP4j95OgiaXwb/non2gYziWQD77khtDeBt7KBN5mV/76/XXqmm6c+hXqT36dsZgFHqcluYRUv7xZ9oXl7l+UTp5dqX5sfuzdDnawPsp345rvbnWQAVcQZgBNrqVFrqMLvU+LfQWlcM/gG0tC1fs+/g30eaR/uJYNd3DKwt0+CPGigARqLFIuC1nvaK5uvXPK2trXWEfmurkNX2coSnvad5zXHHwMrY5/qNAgD72uBt31zgLbAgDf6t3Kp4iANX3+aZwb//KABGpK0drq0jqLa0MT90RuOn7eRlahp/Fz7kbcXn/Ydpqhz2t2GgABiZsRYBfaH1cvb+wv9XZKT1btv9n6epRp7t7WCpDzhWTZbHW0/D4D8c0T6oUf4KYBq9RxsD+E16rwM9n0mT9522XHo968ga/QyrSYfU0nrMbn/LrOX6GzUzPwv+ZlXWZdvbwmLa+pxmed+cy9VEiW035/JNwa8AKuIMwEi1tCOuUCfyt56X0vQ32O/0thLrPEt0oG2Y8bO/v7eVaJ307lbAbX1OhQev1vnyZHt889jWXwQUAOP2aG+b+C11sHf1fHDUKZ3h6cyGOvBHxOC/Xyd727Wne4sBoQAYMXVqH1fz5TTVyLe9za5px6wB4hueRjGKh8XMgsF/cVo/d1Tz9TTVub/X+73YcwwEBcDIqXNr+tS8ibY62wJO9HYmA17OCX3eXT8uthf0OX3R00bGOvi73DcHeos+F84EDAgFQABtdXKlBsem8z/0QX1WIx/MbqHP076SOjVNNXJPb0dF6+duBbf59+m9H+M5eo4CIIihFwFNab65Hel4tPGV1Me0T4zu6yFt5/dQsz1NFfMRzUfla2+QHwVALMd724h27q96mk0LBcwub0cp0NF/KwWo1tdYj1Iv97a0d+izep7n6CkKgEDU6dmRUxsXBZ6knbvEI1L/zNtaNM+HeTo2jR+SNAQtDv6jK5Zs225r/bTonZqnR3qOHqIACEadXysXBUr2O41p3l/uaV3XeLuY3j5VbSFaL/Y0uFFj8F+Y1o1dyzDLtl3CRZq/p3qOnqEACKitTrDEEUfTedc8/66nU+n1e/lUtUX8obejpc/s8542MtLB327M9G9pqrfer/k803P0CAVAUEMuAhp6k7cLGtJAoXkd9bMHtH0do+bBaaqRQ70dmx9723dv12f5BM/RExQAgQ21CGg637PMr79HK0eeHXqpt2PWxpPt7Ir/bLfEzUHb8F1z73ct+CfN8yM8Rw9QAOC13jaiHfsZno6GBo2HWiHgxYAdaXcRtWm+3uLpKLU1wGk9jeqKf62Xu6kpdnfOhj6p+T/dcxQ2mFOdLQnzNMAqWuxolzZ5rarL1XC+d+r9it42V/P/OTUPSVPVNN0G9N6XqlmTpio5Wu99peeLamu7aqLpepom5zY+TR/WawueoXVhT6RsE08DrIgzAGitkyzQMX3a2zpWeltSrcG/sMEMPl0M/iVp/zo8xz7m6+26NNWZv9ayDHH7HxUKAEwMsbPUPDf6PrHkkVST9y75Wem9f+Jprw1xe16MtpcT1Fydprpz83pTu0rNDss79Dkt11M8RwEUALjFQDvNRt8nqgM6ydNs9J6t3JERC3qht6Og7cUG42+mqe7su/9r+ihPu/QBLd+zPUdmFADY16Duma9O6t2e1pX9tsayzdvKBlqkZaV19FZPx+Jabzuz0HaVaXt7t4qAR3uOjCgAcCva4feoeW6aGoxGnYc6n4d62jm9V5PfbWe/++LQjKlA0rZyF0Wu7/wX5P/9p2mqMx/NuR8ioQDAbWiHf5ea76ap/tP8ftzTuj7rbQ5257ZatJy38xRT7G8gG6DveNuZWdeZ/r/be9qlz6oIGN3PifuMAgBTaYe3Z64PRtPOXx3PhzztTI6juajGNvj34ch/X5nW8Xu9RQYUAFjQADtV+/qirid62wl16E/ytJaxDXBtYvCvru4683/X6V0VKZTzoQDAoobUuWpeG13A2HHH80Fv6+Ae6gv7bW9HQdvgL3namab7tP69PVfhZ2mqGxQBeYyqcp4BdwKsKccO2cZyjbHj6OLz1nqqdSfAKvOS4bP4gebnOM+zabJc+1t/Xa+zNrelHs4rdwKsiDMAmJX9Frn32uzgeqIPdyzspRKDf5c0oHb6NVTb+0bX+5rWhx1soUMUAJiJdna7NWiJ38zXcZ63g6f1/nNPsZeuB59COrsQtav15a/b1R0D7+8tOkIBgJlpZ296ei0LzecGTwdtpINcY6yXarpeX3r9HHcMRAcoAFDJgDrfe3mL6Z7q7aAw+FeTa33xuQwTBQAqG8LOrnm83NNB6nod6/X/zdMh4XqICnLvp/5+nf5EEO2iAEBdte9ol9GR3mL4PqYBhushZpR78L+Z3td+IrgzTaHvKAAK0E7S6GeEfaBlsMfC3j1N9ZPmsfPHp3ahVOfdYx/XOnmM59iP0tuP3v9gT9FzFADD05udSzv6t9Q0va/CRFedVunOsIaczyXoWhv9i/3Wv29Piqu7D+7vRlXLva2tL9t7S/MxlF8dDRYFQDnHeFuJdqxenV7T/JzWws7+NW+70uQJfFlpXT7M085V/dxq/P92o5inpKnq7P0Uvfutv+bJ9sFL0tTMLtO/W/RW1frvuz2t41JbX573gs/P/05T1enfD+JXR0NGAVCINm4blCp9FdC3HXxvDebtYv3bynekq0KvX6vYKqDEzxdnvUVxrWcZaN1/sMa28coG21MWmr+T1bwyTe2XLc9Jni+q5nI/Tv+ul7+Z13ydqcauC6ik5npARdFWci9uBbyvGW6peX/tEHbr1kGY9RahOXdyzZMVGb1eh6U6Pa2bT6p5RJqa6iTN22WeN6L3soFwoVO7R+l9urqpTGcWWaba+20f96GmtEwfUbPfazkaLBO3Aq6IAqC61gsAoA/UQX9XzZ3T1MRr1Bm/znMUMOUz+Z4+k72nB2nKcv27lusuntdFAYBFWQFglXWTsI0MANAv1jdP67OrhI0RYXANAAAAAVEAAAAQEAUAAAABUQAAABAQBQAAAAFRAAAAEBAFAAAAAVEAAAAQEAUAAAABUQAAABAQBQAAAAFRAAAAEBAFAAAAAVEAAAAQEAUAAAABUQAAABAQBQAAAAFRAAAAENBSb6NYr9iY0tq2KtalFEP2yE3nzXvaqeve950le374c5/qxpc2np99Xz557lmdrr9ldztkySFPupNPdWvz+rOj9YVjtEWxNqW1zSk2pXT8OAOAsHJ1+of+5l09QxUM/kC3KAAQ3W5vO3XYWffwrBtdH43vq+v363p97aXbUzNAj1EAIDQd/S33FAHp81/pKRAOBQDCu8M198qyH4zlLMBYjv459Y/oKAAQ3vuf9rSsp8+7dOrTn3upp5045TdO/6anAAaOAgCQXEeDXR/d7rlm1xpPOzF//e4TPO0ER/9APhQAQGYr7n+EZ93o6hR916f+Dzz1dp4ByIECAHC5jgpXPvIYz7C3gx5ye8+6xdE/kFAAALf2M287NbQLAsdy4d+S+SU7PAPCowAA9qKjw8M8xQhtnjv7KE+B8CgAgH2M5YLAto7ax3L0z6l/4NYoAIARO/kpp//Q01pOfvJzrvUUwMhQAABTjOUswJIbdje74nDnnlWedYKjf6AcCgCgsIN/7TjPulH3FH7Xp/4PedqdPQNQAgUAsIBcR43L797pQXZvLTvuYM+6xdE/MB0FALCY+SVXeNapvl0QOJYL//QBXuwJgH1QAACL2Dx3dq6RqnOPes1LZnry4UNe/aKDPB28zes3nOopgH1QAAD7MZYLAq+55OqbPF3UTV+5dqenneDCP6AfKACAQPZ3ar/rU/8A+oMCAJjBWM4ClMbRP9AfFABAzxx6xmrPurHQUX7XR/+rnt/pk4QBVEQBAMwo11HlAYfMdK3e4CxducyzbnH0D8yGAgCo5i+87VTXp8r3Pdrv+ug/31cb8+d6AmA/KACACnR0eZang/egl7xwpbWnvvSs0dyJaPP6Da/1FMB+UAAAFY3lgsDdV/zsBmv3fOOqTh/4w4V/QD9RAACB8bM/IC4KAKCGsZwF6BpH/0B/UQAAPbfqRXf3bFhWveREzwD0EQUAUFOuo86ly4e5my49IM9BOUf/QD0UAEAje57rSaeG9lVAtvmd3/N4zwBURAEANLB5/Tnv8hQFbJ4750JPAVREAQA0xAWBt8aFf8AwUAAAQ7Ki52PeSroUYCjYW4EWZDsL8MJ+X1l/2PPz/GKBo3+gOQoAoD1ZbqrT168CMs4XNy8CWkABALRER6XsTxmwnoF2sCMBLVp10+6DPe1U384CcOEfMDwUAECLLnjCuTs9BYBeowAAWpbtgsCenAXg6B8YJgoAYMCWHrLMszKWHr7CMwBDQwEAdCDX0eqqM07wrIxVpx/vWbc4+gfaRwEADFyprwL6diEigGooAICOcNTaDtYj0A0KAKBDS5ccsMrTTuU+Gs/1fssP2H2gpwBaRgEAdOii9b9/naeo4aOPPfcmTwG0jAIA6FiuU9i5jspzvQ+n/oFuUQAAI7L8nt1+43DgyUd5BmDoKACADHIdzR48d5xn3Tjol+7gWbc4+ge6RwEA5LPL2051dYo+44WG3E4ZyIACAMhER7XcNm8GWk9ZHqgEREcBAGSU69R220frXPgHjA8FAAAAAVEAAJkN7SwAR//AOFEAACN20K8e41k9K0871jMAY0MBABSQ62j3wDVHeFbPinsc5lm3OPoH8qMAAEqZX/ItzzpV9xR+rlP/WhGXeQIgIwoAoJDNc2ff3dPQNq/fcJKnADKiAAAK6usFgVz4B4wfBQAAAAFRAACF9e0sAEf/QAwUAEAghz7neM+mW3XmCZ4BGDsKAKAHch0NH3DE4o8jWHrwMs+6xdE/UB4FANAfn/W2Uwud4s916l/O9xZAQRQAQE/oqPhhno6alvPZngIoiAIA6JFcp8b3Pdrnwj8gHgoAAAACogAAeib3WQCO/oGYKACAwDJe+AegZygAgB4a29EyR/9A/1AAAL01P5ar5X/dWwA9QgEA9NTm9RtG8Xt5Hf1f4CmAHqEAAHps6KfOOfUP9BcFAAAAAVEAAD031KNojv6BfqMAAAAgIAoAYACGdjTN0T/QfxQAwEAsXbLnVE97bv5engDoMQoAYCAuWn/OxZ722ub1Gy73FECPUQAAA9L3U+uc+geGgwIAAICAKACAgenrUTZH/8CwUAAAaMO8twAGggIAGKC+HW1rfuhLgIFhpwUGan7J7pWeFjV/0O7lngIYEAoAYKA+sf7cn3ta1Cceee5uTwEMCAUAMGClvwrgwj9guCgAAAAIiAIAGLhSR+Ec/QPDRgEAAEBAFADACOQ+GufoHxg+CgBgJJbu3pPn53h75uk3gBFgRwZG4qLHn5Pl53ibT9vAXf+AEaAAAEak61PznPoHxoMCAACAgCgAgJHp6iido39gXCgAgHG60tuWzH/LEwAjQQEAjJCO1o/2tBWb12+4u6cARoICABiptk7Zc+ofGCcKAAAAAqIAAEas6dE7R//AeFEAAAAQEAUAMHJ1j+I5+gfGjQIACGB+fv4jns5E///7PQUwUhQAQACfmNvwOE9nov//aZ4CGCkKACCIWU/pc+ofiIECAACAgCgAgED2d3TP0T8QBwUAAAABUQAAwSx0lM/RPxALBQAQ0PyS+Td4OqGR/2WeAgiCAgAI6BPrN/x3TycuWn/2mz0FEAQFABDUzaf8OfUPxEQBAABAQBQAQGAc/QNxUQAAABAQBQAAAAFFKwBu8raJld4CAPqjjb65jTFiMKIVAD/wtokTFYekFADQA9YnW9/cVBtjxGBEKwC+520TyxTrUgoA6AHrk61vbqqNMWIwohUAOxQ3pLSRB3kLACivjT7ZxgYbIzBiVyjmG8aPFEcrAABlWV9sffK0vrpK2NgQSsRfAWz3tgnb4N6WUgBAQdYXt3FA1sbYgJ57hWJa9VcnXqXgRioAkJ/1vdYHT+ub64SNDRi5eyimffh145OKExQAgDysz7W+d1qfXDdsbAgl6tHr1xT3TWkrrlN8WPElxcWKf1HsVgAAmrMr/O+jOEVxsuKJikMVbfm64n4pjSNqAfA6xatTCgAI7o8Uv5/SOCJeBGj+TmGnfAAAsdlYYGNCOFELgMsUf5tSAEBgNhbYmBBO5CvYVyv+VXHgZAoAEM2Ninsrtk2mgol6BsDYB/7WlAIAArIxIOTgb6L/hv0OissVR02mAABRXKW4p+LKyVRAkc8AGPvgf1PBT/YAIA7r863vDzv4mzaenjR031RcrVg/mQIAjN1/U4S/EJwCIPmi4s6KB0ymAABj9U5FuN/8TxP9GoC9rVB8SHHaZAoAMDYXKp6kuGkyFRxnAH5hj+LvFXZ7yYfaHwAAo/Fniucpdk2mwBmABTxL8Q7FQZMpAMBQ/VxxpuL8yRRuQQGwsAcr3qs4cTIFABiaKxTPVHxhMoVbif4zwMXYBmNPDHypIvRPRQBgYKzPtr7b+nAG/wVwDcDi7LqA/6d4u8IeGGGPobSLBQEA/XOD4g2Kpyk+rbA+HAvgK4BqjlDY/QLsWdRziiMVAIBydig2Kj6s2KSw+7pgBhQA9S1XPELxcMWdFHfcqz1awboFgHbYGdgfK76v+N5erR3lf0rBlf2VLVny/wG6JWrXsvjPtAAAAABJRU5ErkJggg==;" vertex="1" parent="Apy_nMzA6MKSCh_NEfZ--171">
          <mxGeometry x="75.5" y="52" width="100" height="100" as="geometry" />
        </mxCell>
        <mxCell id="Apy_nMzA6MKSCh_NEfZ--175" style="edgeStyle=orthogonalEdgeStyle;rounded=0;orthogonalLoop=1;jettySize=auto;html=1;" edge="1" parent="1" source="Apy_nMzA6MKSCh_NEfZ--76" target="Apy_nMzA6MKSCh_NEfZ--173">
          <mxGeometry relative="1" as="geometry" />
        </mxCell>
        <mxCell id="Apy_nMzA6MKSCh_NEfZ--177" value="Le serveur récepteur sert d&#39;API Rest pour l&#39;accès a la base de données mais aussi gère le coté gestion des urgences" style="text;html=1;strokeColor=none;fillColor=none;align=center;verticalAlign=middle;whiteSpace=wrap;rounded=0;" vertex="1" parent="1">
          <mxGeometry x="-200" y="977" width="200" height="110" as="geometry" />
        </mxCell>
        <mxCell id="Apy_nMzA6MKSCh_NEfZ--178" value="&lt;i&gt;Requêtes HTTP&lt;br&gt;&lt;/i&gt;" style="text;html=1;strokeColor=none;fillColor=none;align=center;verticalAlign=middle;whiteSpace=wrap;rounded=0;" vertex="1" parent="1">
          <mxGeometry x="240" y="1075" width="60" height="30" as="geometry" />
        </mxCell>
        <mxCell id="Apy_nMzA6MKSCh_NEfZ--179" style="edgeStyle=orthogonalEdgeStyle;rounded=0;orthogonalLoop=1;jettySize=auto;html=1;" edge="1" parent="1" source="Apy_nMzA6MKSCh_NEfZ--158" target="Apy_nMzA6MKSCh_NEfZ--122">
          <mxGeometry relative="1" as="geometry">
            <Array as="points">
              <mxPoint x="635" y="1310" />
              <mxPoint x="-490" y="1310" />
              <mxPoint x="-490" y="536" />
            </Array>
          </mxGeometry>
        </mxCell>
      </root>
    </mxGraphModel>
  </diagram>
</mxfile>
